<svg width="24" height="24" viewBox="0 0 24 24" fill="none" xmlns="http://www.w3.org/2000/svg">
<g clip-path="url(#clip0_1123_2085)">
<path fill-rule="evenodd" clip-rule="evenodd" d="M8.57596 4.16046C8.3487 4.36692 8.10783 4.95269 8.41352 6.17305L8.41512 6.18105C8.79123 7.74471 9.92596 9.8021 11.6833 11.7771C13.4558 13.7553 15.3643 15.1116 16.864 15.6502L16.8728 15.6534L16.8816 15.6566C17.9475 16.0631 18.5405 15.9679 18.8117 15.8039L18.9022 15.7238C19.035 15.6054 19.1718 15.3765 19.2015 14.9228C19.2311 14.4635 19.1422 13.8505 18.8942 13.1095C18.4004 11.6314 17.3385 9.83331 15.7941 8.10961C14.248 6.38511 12.5819 5.12794 11.1711 4.46855C10.4637 4.13886 9.86514 3.98041 9.40581 3.9564C8.95527 3.934 8.7112 4.04203 8.57596 4.16046ZM12.017 2.65602C13.7271 3.45466 15.602 4.89828 17.2841 6.77482C18.967 8.65217 20.1921 10.6824 20.7915 12.4749C21.0908 13.3695 21.2501 14.2522 21.198 15.0516C21.1564 15.6998 20.97 16.3392 20.5667 16.8602V16.9314L20.2346 17.2291C19.1478 18.2053 17.5666 18.0573 16.1774 17.53C14.2656 16.8402 12.0978 15.2373 10.1916 13.1111L10.19 13.1087C8.29508 10.9784 6.94909 8.63616 6.47135 6.65399C6.11125 5.21117 6.16326 3.63791 7.24118 2.67043L7.24518 2.66643C7.88456 2.09826 8.7016 1.91821 9.50743 1.95902C10.3069 1.99903 11.1639 2.25831 12.017 2.65602Z" fill="white"/>
<path fill-rule="evenodd" clip-rule="evenodd" d="M7.89082 3.14095C8.39497 3.36662 8.62144 3.95719 8.39577 4.46214L2.14115 18.4798L2.14035 18.4814C1.6202 19.6418 2.72452 20.9053 3.96888 20.5188L3.97048 20.518L18.6115 15.8911C18.7368 15.8515 18.8686 15.837 18.9995 15.8484C19.1304 15.8598 19.2577 15.8968 19.3743 15.9574C19.4908 16.018 19.5943 16.101 19.6788 16.2016C19.7633 16.3021 19.8271 16.4184 19.8667 16.5437C19.9063 16.6689 19.9208 16.8007 19.9094 16.9316C19.898 17.0625 19.861 17.1898 19.8004 17.3064C19.7398 17.4229 19.6568 17.5264 19.5562 17.6109C19.4556 17.6954 19.3394 17.7593 19.2141 17.7988L4.56986 22.4266L4.56585 22.4282C1.70422 23.3196 -0.923743 20.4244 0.314217 17.6636L6.56884 3.6467C6.62238 3.52674 6.69902 3.4185 6.79439 3.32816C6.88976 3.23782 7.002 3.16715 7.12468 3.12018C7.24737 3.07322 7.3781 3.05088 7.50942 3.05445C7.64073 3.05801 7.77086 3.0874 7.89082 3.14095Z" fill="white"/>
<path fill-rule="evenodd" clip-rule="evenodd" d="M12.2923 18.0373C12.5455 17.9582 12.8197 17.9828 13.0548 18.1059C13.2898 18.2289 13.4663 18.4403 13.5454 18.6935L14.2521 20.9454C14.8042 22.6979 13.8191 24.5944 12.065 25.1482L9.81076 25.8548C8.05825 26.4069 6.1617 25.4219 5.60874 23.6678L4.90133 21.4119C4.85913 21.2858 4.84249 21.1526 4.85238 21.02C4.86228 20.8874 4.89851 20.7581 4.95896 20.6397C5.01941 20.5212 5.10286 20.416 5.20444 20.3302C5.30602 20.2444 5.42369 20.1798 5.55056 20.14C5.67743 20.1002 5.81096 20.0861 5.94334 20.0985C6.07573 20.1109 6.20431 20.1496 6.32156 20.2123C6.43882 20.275 6.5424 20.3604 6.62624 20.4636C6.71009 20.5668 6.77252 20.6857 6.80988 20.8133L7.51649 23.066C7.62765 23.4049 7.86713 23.6869 8.18363 23.8514C8.50013 24.0159 8.86849 24.05 9.20978 23.9462L11.4632 23.2396C11.802 23.1285 12.0838 22.8891 12.2483 22.5728C12.4128 22.2565 12.447 21.8883 12.3435 21.5471L11.6369 19.2913C11.5577 19.0383 11.5821 18.7642 11.7049 18.5292C11.8276 18.2943 12.0386 18.1176 12.2915 18.0381L12.2923 18.0373ZM24.5646 1.52931C24.6581 1.62167 24.7324 1.73154 24.7834 1.85263C24.8344 1.97373 24.861 2.10368 24.8617 2.23506C24.8625 2.36644 24.8373 2.49668 24.7877 2.61835C24.7381 2.74001 24.665 2.85071 24.5727 2.94412L23.3987 4.13087C23.3063 4.22429 23.1965 4.29861 23.0754 4.34957C22.9543 4.40053 22.8243 4.42714 22.693 4.42789C22.4276 4.42939 22.1726 4.32543 21.9839 4.13887C21.7952 3.95232 21.6884 3.69845 21.6869 3.43312C21.6854 3.16779 21.7893 2.91274 21.9759 2.72406L23.1498 1.53731C23.2422 1.44387 23.3521 1.36954 23.4732 1.31857C23.5943 1.2676 23.7242 1.24098 23.8556 1.24023C23.987 1.23949 24.1172 1.26464 24.2389 1.31424C24.3605 1.36384 24.4712 1.43692 24.5646 1.52931ZM18.2204 0.0896926C18.34 0.144099 18.4477 0.221541 18.5374 0.317593C18.6271 0.413645 18.697 0.526426 18.743 0.64949C18.7891 0.772555 18.8105 0.903491 18.8059 1.03482C18.8014 1.16615 18.771 1.29529 18.7165 1.41488L18.1692 2.61523C18.1159 2.73649 18.039 2.84596 17.9431 2.93728C17.8471 3.0286 17.734 3.09995 17.6102 3.14719C17.4864 3.19443 17.3545 3.21662 17.2221 3.21247C17.0897 3.20832 16.9595 3.17791 16.8389 3.12301C16.7184 3.06811 16.6099 2.98982 16.5199 2.89267C16.4298 2.79552 16.36 2.68145 16.3143 2.55708C16.2687 2.43271 16.2483 2.30053 16.2542 2.16819C16.2601 2.03586 16.2922 1.90601 16.3487 1.78619L16.896 0.585837C17.0059 0.344466 17.2071 0.156611 17.4555 0.0635733C17.7038 -0.0294646 17.979 -0.0200697 18.2204 0.0896926ZM25.8898 7.73032C25.9518 7.84612 25.9904 7.97301 26.0034 8.10373C26.0164 8.23445 26.0034 8.36644 25.9654 8.49217C25.9274 8.6179 25.8649 8.7349 25.7817 8.8365C25.6984 8.9381 25.5959 9.02231 25.4801 9.08431L24.3598 9.68449C24.1259 9.8097 23.8519 9.83688 23.5979 9.76005C23.344 9.68321 23.131 9.50865 23.0058 9.27477C22.8806 9.04088 22.8534 8.76684 22.9302 8.51291C23.0071 8.25899 23.1816 8.04599 23.4155 7.92077L24.5358 7.3206C24.6516 7.25859 24.7785 7.22001 24.9093 7.20704C25.04 7.19408 25.172 7.20699 25.2977 7.24503C25.4234 7.28308 25.5404 7.34552 25.642 7.42878C25.7436 7.51205 25.8278 7.61451 25.8898 7.73032Z" fill="white"/>
</g>
<defs>
<clipPath id="clip0_1123_2085">
<rect width="24" height="24" fill="white"/>
</clipPath>
</defs>
</svg>
