<svg width="29" height="27" viewBox="0 0 29 27" fill="none" xmlns="http://www.w3.org/2000/svg">
<path d="M11.6795 0.135094C14.778 -0.251586 17.9341 0.196203 20.7514 1.42221C21.2056 1.63673 21.726 1.79641 22.064 2.16093C22.3197 2.4561 22.1409 2.87223 21.8816 3.11417C21.5418 3.38837 21.0983 3.16579 20.755 3.02385C18.4856 1.96899 15.9463 1.30931 13.3801 1.40608C11.3165 1.47866 9.29034 2.03028 7.4824 2.92223C7.1927 3.05611 6.90121 3.20934 6.57574 3.26095C5.88368 3.22063 5.56358 2.27061 6.21094 1.95609C7.87337 1.01237 9.73596 0.39214 11.6795 0.135094Z" fill="#1D1C1B"/>
<path d="M13.0551 3.2706C13.3787 3.14157 13.7525 3.2077 14.0958 3.19157C16.9392 3.21092 19.8076 3.97545 22.0894 5.53031C23.2735 6.33582 24.3143 7.29962 25.176 8.38842C25.5175 8.7852 25.2028 9.44166 24.652 9.49166C24.1477 9.5836 23.8741 9.13843 23.6094 8.84165C21.2579 6.08677 17.3988 4.42868 13.5379 4.61901C12.6867 4.77224 12.279 3.5948 13.0551 3.2706ZM10.0561 3.65286C10.6552 3.35286 11.383 3.92867 11.1541 4.50449C10.9789 5.01256 10.3011 5.00611 9.84333 5.17708C7.37909 5.87387 5.39411 7.53196 3.97243 9.43037C3.72744 9.74328 3.47172 10.1272 3.00855 10.1852C2.41842 10.161 1.93559 9.52715 2.30398 9.05134C3.34117 7.7997 4.44096 6.55452 5.85906 5.63515C7.14662 4.80288 8.54683 4.09481 10.0561 3.65286ZM3.79003 3.76093C4.27286 3.39318 5.0901 3.7948 5.02394 4.35933C5.05076 4.85288 4.38731 5.24321 3.90627 4.98514C3.39303 4.77224 3.32865 4.05448 3.78824 3.76093H3.79003Z" fill="#1D1C1B"/>
<path d="M12.5717 6.25735C13.9876 6.05529 15.4342 6.11494 16.8237 6.4327C18.2133 6.75045 19.5166 7.31967 20.6547 8.10577C22.9115 9.65418 24.3582 12.122 24.4638 14.6817C24.5067 15.9785 24.4387 17.3591 23.7073 18.5108C23.1297 19.4527 21.8761 19.9705 20.7066 19.8414C20.0127 19.7382 19.8625 18.793 20.4849 18.5092C20.9587 18.3495 21.5131 18.4543 21.9566 18.2027C22.7667 17.7898 23.0385 16.8978 23.1047 16.1172C23.2406 14.1591 22.688 12.1171 21.3307 10.559C20.2166 9.26546 18.5893 8.3719 16.8421 7.96222C14.3958 7.38156 11.6579 7.52672 9.45121 8.709C6.96552 10.0026 5.35607 12.4397 5.00736 14.9849C4.75879 16.5543 5.00736 18.1495 5.4741 19.6656C5.5957 19.985 5.59034 20.3914 5.25593 20.6043C4.84463 20.9269 4.13468 20.6979 4.0399 20.2172C3.19942 17.572 3.08139 14.6526 4.24556 12.0687C5.59928 8.96062 8.97017 6.79446 12.5717 6.25735Z" fill="#1D1C1B"/>
<path d="M14.5076 9.42078C14.9297 9.13045 15.6038 9.39336 15.6897 9.85788C15.8631 10.3869 15.2015 10.9353 14.6364 10.6885C14.0677 10.4901 13.9962 9.70949 14.5076 9.42078ZM17.3742 10.3724C17.5103 10.2877 17.6734 10.2453 17.8386 10.2517C18.0039 10.2581 18.1623 10.3129 18.2898 10.4079C19.9386 11.5498 21.0026 13.3144 21.3013 15.1596C21.3549 15.5854 21.4264 16.037 21.2619 16.4499C20.9347 16.9919 19.851 16.8015 19.8742 16.1435C19.7182 14.3865 18.8169 12.7516 17.3581 11.5789C16.9057 11.2982 16.9111 10.6369 17.376 10.3724H17.3742ZM25.7827 10.5563C26.2601 10.2498 26.9808 10.6176 26.9647 11.1385C27.0363 11.6918 26.2512 12.1095 25.7594 11.7644C25.2963 11.4982 25.3124 10.8063 25.7827 10.5563ZM1.08128 11.3289C1.44251 11.1353 1.94501 11.2982 2.12205 11.6353C2.32592 11.9482 2.10953 12.2886 2.02012 12.5999C1.70539 13.4321 1.59272 14.3096 1.51941 15.1822C1.48364 15.5935 0.950735 15.8918 0.525127 15.737C0.360848 15.6858 0.220239 15.5866 0.125632 15.4551C0.0310257 15.3236 -0.0121541 15.1674 0.00295111 15.0112C0.0525611 13.9851 0.254036 12.9697 0.602022 11.9918C0.696801 11.7418 0.793367 11.4515 1.08128 11.3305V11.3289ZM12.7408 12.5321C13.17 12.4321 13.6349 12.2869 14.0713 12.4128C14.6328 12.6015 14.7097 13.3724 14.2072 13.6579C13.7673 13.8434 13.2451 13.7983 12.8177 14.0208C11.954 14.4096 11.4765 15.2902 11.4729 16.1402C11.498 18.1999 12.2794 20.3064 13.905 21.7903C14.98 22.7887 16.3117 23.5323 17.7819 23.9549C18.2058 24.0533 18.6189 24.4097 18.4561 24.8371C18.3935 25.2484 17.8964 25.4372 17.4869 25.3259C15.3553 24.9613 13.5527 23.6742 12.2437 22.1613C10.6843 20.3274 9.6775 17.9935 9.96184 15.6564C10.1103 14.245 11.2315 12.9531 12.7408 12.5321ZM27.0327 12.8144C27.5477 12.5999 28.17 13.0434 28.0931 13.5402C28.0878 14.0402 27.4064 14.3821 26.9361 14.1112C26.3818 13.8434 26.4372 13.0063 27.0327 12.8144ZM16.1171 13.4354C16.6303 13.1418 17.1739 13.5547 17.351 13.9886C17.6066 14.4593 17.7838 14.9615 17.8767 15.4789C17.9268 16.158 16.836 16.5128 16.4139 15.9386C16.16 15.4386 16.0384 14.887 15.8059 14.3773C15.6217 14.0467 15.7523 13.6095 16.1171 13.4337V13.4354Z" fill="#1D1C1B"/>
<path d="M13.6153 15.5482C14.0284 15.2999 14.6972 15.495 14.7115 15.9837C14.8134 16.9289 14.9565 17.8967 15.484 18.7386C15.9539 19.5342 16.6562 20.1986 17.5149 20.6598C18.3736 21.121 19.3559 21.3613 20.3553 21.3548C20.7845 21.3838 21.3299 21.2161 21.65 21.5661C22.0488 21.9403 21.8199 22.6516 21.2459 22.7484C18.5545 23.1355 15.7398 21.8371 14.3378 19.7564C13.6558 18.7613 13.2822 17.6195 13.2559 16.4499C13.2559 16.1305 13.2863 15.737 13.6153 15.5466V15.5482Z" fill="#1D1C1B"/>
<path d="M17.8834 17.453C18.4735 17.2062 19.1423 17.8465 18.8866 18.374C18.7489 18.8272 18.064 19.0159 17.6706 18.7095C17.1931 18.3885 17.3129 17.6175 17.8816 17.453H17.8834ZM23.4628 20.395C23.9992 20.0288 24.8093 20.5643 24.643 21.1321C24.5733 21.6208 23.8741 21.9063 23.4359 21.5966C22.9853 21.3289 22.996 20.645 23.461 20.395H23.4628ZM5.39049 21.995C5.87511 21.7047 6.57969 22.0724 6.5636 22.5918C6.62082 23.1305 5.88406 23.5466 5.37976 23.2289C4.88799 22.9708 4.90229 22.2498 5.39049 21.995Z" fill="#1D1C1B"/>
<path d="M11.6706 9.62083C11.9889 9.52406 12.4002 9.43212 12.6685 9.67406C13.1245 9.99664 12.9814 10.7515 12.4074 10.8838C10.6906 11.3676 9.2314 12.5515 8.5751 14.0677C8.06187 15.1838 8.08512 16.4274 8.24069 17.6081C8.41952 18.9952 8.956 20.3258 9.69992 21.5436C10.0665 22.0162 9.5211 22.7259 8.90593 22.5936C8.29077 22.471 8.1638 21.8162 7.89913 21.3855C6.92095 19.1678 6.17345 16.6838 6.88518 14.3112C7.49499 12.166 9.31723 10.3112 11.6706 9.62083Z" fill="#1EAB75"/>
<path d="M10.2294 23.4404C10.5727 23.1823 11.0752 23.3033 11.3381 23.6017C11.9048 24.1179 12.5179 24.5911 13.1711 25.0162C13.7755 25.3646 13.357 26.3195 12.6489 26.2049C11.6653 25.8743 10.807 25.2549 10.1453 24.5275C9.83236 24.2227 9.84845 23.6888 10.2294 23.4404Z" fill="#E82026"/>
</svg>
