<svg xmlns="http://www.w3.org/2000/svg" width="40.35" height="28.609" viewBox="0 0 40.35 28.609">
  <g id="Group_6020" data-name="Group 6020" transform="translate(0.504 0.5)">
    <path id="Path_23629" data-name="Path 23629" d="M-19.063,657.971a3.236,3.236,0,0,0-1.982-1.982l-.169-.071-.005-.181v-6.065a.908.908,0,0,0-.523-.82l-17.589-8.208a.9.9,0,0,0-.382-.085.9.9,0,0,0-.382.085l-17.594,8.206a.9.9,0,0,0-.468.511.9.9,0,0,0,.03.692.907.907,0,0,0,.438.438l6.513,3.043v13.731a.906.906,0,0,0,.9.9h21.108a.906.906,0,0,0,.9-.9V653.529l5.226-2.438v4.835l-.178.063a3.254,3.254,0,0,0-1.982,4.148,3.257,3.257,0,0,0,3.065,2.168,3.242,3.242,0,0,0,1.083-.187,3.23,3.23,0,0,0,1.85-1.664A3.23,3.23,0,0,0-19.063,657.971Zm-30.3,8.386V654.38L-40.1,658.7a.9.9,0,0,0,.382.085.9.9,0,0,0,.382-.085l9.266-4.325.005,11.976Zm9.652-9.479-15.449-7.209,15.449-7.209,15.449,7.209Zm19.03,2.172c0,.006,0,.013,0,.019,0,.043,0,.085-.006.127,0,.005,0,.011,0,.016,0,.043-.011.086-.02.128v0a1.43,1.43,0,0,1-.39.726,1.434,1.434,0,0,1-1.023.424l-.006,0a1.431,1.431,0,0,1-.636-.154h0l0,0q-.04-.021-.079-.043l-.013-.008a1.447,1.447,0,0,1-.222-.164l-.011-.01a1.455,1.455,0,0,1-.181-.2l-.014-.018q-.024-.033-.046-.068l-.017-.028c-.023-.038-.044-.076-.063-.116l-.021-.043c-.009-.02-.017-.04-.025-.06s-.015-.039-.021-.059-.012-.036-.018-.054c-.011-.036-.02-.073-.028-.11,0-.013,0-.027-.007-.04q-.008-.045-.014-.091c0-.014,0-.028,0-.041,0-.042-.006-.084-.006-.127v0h0a1.432,1.432,0,0,1,.107-.543l.006-.016c.008-.02.019-.038.028-.058s.021-.046.033-.069l0-.007a1.437,1.437,0,0,1,.151-.223,1.438,1.438,0,0,1,1.111-.525,1.438,1.438,0,0,1,1.111.525l.016.022c.023.029.046.058.067.089l.012.021a1.43,1.43,0,0,1,.234.783h0Z" transform="translate(58.211 -640.559)" fill="#0071be" stroke="rgba(0,0,0,0)" stroke-width="1"/>
  </g>
</svg>
