<svg xmlns="http://www.w3.org/2000/svg" width="33" height="30" viewBox="0 0 33 30">
  <path id="Icon_material-translate" data-name="Icon material-translate" d="M19.305,22.6,15.5,18.84l.045-.045A26.279,26.279,0,0,0,21.105,9H25.5V6H15V3H12V6H1.5V8.985H18.255a23.569,23.569,0,0,1-4.755,8.04A23.468,23.468,0,0,1,10.035,12h-3a26.343,26.343,0,0,0,4.47,6.84L3.87,26.37,6,28.5,13.5,21l4.665,4.665,1.14-3.06ZM27.75,15h-3L18,33h3l1.68-4.5h7.125L31.5,33h3ZM23.82,25.5l2.43-6.495L28.68,25.5Z" transform="translate(-1.5 -3)" fill="#fff"/>
</svg>
