<svg xmlns="http://www.w3.org/2000/svg" width="26.444" height="24" viewBox="0 0 26.444 24">
  <g id="Group_6032" data-name="Group 6032" transform="translate(1 1)">
    <g id="Icon_feather-briefcase" data-name="Icon feather-briefcase">
      <path id="Path_23611" data-name="Path 23611" d="M5.444,10.5H25a2.444,2.444,0,0,1,2.444,2.444V25.167A2.444,2.444,0,0,1,25,27.611H5.444A2.444,2.444,0,0,1,3,25.167V12.944A2.444,2.444,0,0,1,5.444,10.5Z" transform="translate(-3 -5.611)" fill="none" stroke="#0071be" stroke-linecap="round" stroke-linejoin="round" stroke-width="2"/>
      <path id="Path_23612" data-name="Path 23612" d="M21.778,26.5V6.944A2.444,2.444,0,0,0,19.333,4.5H14.444A2.444,2.444,0,0,0,12,6.944V26.5" transform="translate(-4.667 -4.5)" fill="none" stroke="#0071be" stroke-linecap="round" stroke-linejoin="round" stroke-width="2"/>
    </g>
  </g>
</svg>
