<?xml version="1.0" encoding="UTF-8"?>
<svg xmlns="http://www.w3.org/2000/svg" xmlns:xlink="http://www.w3.org/1999/xlink" viewBox="0 0 32 32" width="32px" height="32px">
<g id="surface153804002">
<path style=" stroke:none;fill-rule:nonzero;fill:rgb(100%,100%,100%);fill-opacity:1;" d="M 13 2 C 11.351562 2 10 3.351562 10 5 L 10 6 L 5 6 C 3.351562 6 2 7.351562 2 9 L 2 25 C 2 26.648438 3.351562 28 5 28 L 27 28 C 28.648438 28 30 26.648438 30 25 L 30 9 C 30 7.351562 28.648438 6 27 6 L 22 6 L 22 5 C 22 3.351562 20.648438 2 19 2 Z M 13 4 L 19 4 C 19.5625 4 20 4.4375 20 5 L 20 6 L 12 6 L 12 5 C 12 4.4375 12.4375 4 13 4 Z M 5 8 L 27 8 C 27.5625 8 28 8.4375 28 9 L 28 18 L 4 18 L 4 9 C 4 8.4375 4.4375 8 5 8 Z M 14 14 L 14 16 L 18 16 L 18 14 Z M 4 20 L 28 20 L 28 25 C 28 25.5625 27.5625 26 27 26 L 5 26 C 4.4375 26 4 25.5625 4 25 Z M 4 20 "/>
</g>
</svg>
