<svg xmlns="http://www.w3.org/2000/svg" width="25.587" height="25.635" viewBox="0 0 25.587 25.635">
  <g id="Group_6003" data-name="Group 6003" transform="translate(-118.74 -564.06)">
    <g id="Group_6001" data-name="Group 6001" transform="translate(119.741 565.06)">
      <path id="Icon_feather-phone" data-name="Icon feather-phone" d="M26.753,20.693v3.558a2.372,2.372,0,0,1-2.585,2.372,23.468,23.468,0,0,1-10.234-3.641,23.125,23.125,0,0,1-7.115-7.115A23.468,23.468,0,0,1,3.177,5.585,2.372,2.372,0,0,1,5.537,3H9.095a2.372,2.372,0,0,1,2.372,2.04,15.227,15.227,0,0,0,.83,3.332,2.372,2.372,0,0,1-.534,2.5L10.257,12.38A18.974,18.974,0,0,0,17.372,19.5l1.506-1.506a2.372,2.372,0,0,1,2.5-.534,15.227,15.227,0,0,0,3.332.83A2.372,2.372,0,0,1,26.753,20.693Z" transform="translate(-3.168 -3)" fill="none" stroke="#fff" stroke-linecap="round" stroke-linejoin="round" stroke-width="2"/>
    </g>
  </g>
</svg>
