<svg width="510.833" height="510.833" xmlns="http://www.w3.org/2000/svg" fill="white" enable-background="new 0 0 510.833 510.833">
 <g>
  <title>Layer 1</title>
  <g id="svg_1">
   <path d="m255.417,65.563c4.143,0 7.5,-3.357 7.5,-7.5l0,-50.563c0,-4.143 -3.357,-7.5 -7.5,-7.5s-7.5,3.357 -7.5,7.5l0,50.563c0,4.143 3.357,7.5 7.5,7.5z" id="svg_2" fill="#3B2F0E"/>
   <path d="m115.487,119.132c2.93,2.928 7.677,2.928 10.607,0c2.929,-2.93 2.929,-7.678 0,-10.607l-35.754,-35.755c-2.929,-2.927 -7.677,-2.929 -10.607,0c-2.929,2.93 -2.929,7.678 0,10.607l35.754,35.755z" id="svg_3" fill="#3B2F0E"/>
   <path d="m65.027,240.953l-50.564,0c-4.143,0 -7.5,3.357 -7.5,7.5s3.357,7.5 7.5,7.5l50.563,0c4.143,0 7.5,-3.357 7.5,-7.5s-3.357,-7.5 -7.499,-7.5z" id="svg_4" fill="#3B2F0E"/>
   <path d="m115.487,377.775l-35.754,35.754c-2.929,2.93 -2.929,7.678 0,10.607c2.93,2.928 7.677,2.928 10.607,0l35.754,-35.754c2.929,-2.93 2.929,-7.678 0,-10.607c-2.929,-2.927 -7.677,-2.927 -10.607,0z" id="svg_5" fill="#3B2F0E"/>
   <path d="m395.346,377.775c-2.93,-2.928 -7.678,-2.928 -10.607,0c-2.929,2.93 -2.929,7.678 0,10.607l35.754,35.754c2.93,2.928 7.677,2.928 10.607,0c2.929,-2.93 2.929,-7.678 0,-10.607l-35.754,-35.754z" id="svg_6" fill="#3B2F0E"/>
   <path d="m496.37,240.953l-50.563,0c-4.143,0 -7.5,3.357 -7.5,7.5s3.357,7.5 7.5,7.5l50.563,0c4.143,0 7.5,-3.357 7.5,-7.5s-3.358,-7.5 -7.5,-7.5z" id="svg_7" fill="#3B2F0E"/>
   <path d="m420.493,72.77l-35.754,35.755c-2.929,2.93 -2.929,7.678 0,10.607c2.93,2.928 7.677,2.928 10.607,0l35.754,-35.755c2.929,-2.93 2.929,-7.678 0,-10.607c-2.93,-2.928 -7.678,-2.928 -10.607,0z" id="svg_8" fill="#3B2F0E"/>
   <path d="m403.579,233.293c0,-82.872 -66.465,-150.293 -148.162,-150.293c-28.618,0 -56.394,8.293 -80.324,23.982c-23.282,15.265 -41.842,36.74 -53.673,62.103c-1.751,3.754 -0.127,8.217 3.626,9.968c3.757,1.753 8.217,0.127 9.968,-3.626c21.939,-47.035 69.2,-77.427 120.403,-77.427c73.426,0 133.162,60.692 133.162,135.293c0,35.434 -13.39,68.934 -37.702,94.327c-14.013,14.635 -25.941,28.619 -29.01,48.213l-130.939,0c-3.867,-20.341 -17.742,-34.612 -30.21,-47.425c-24.803,-25.49 -38.463,-59.27 -38.463,-95.115c0,-8.851 0.847,-17.703 2.516,-26.312c0.789,-4.066 -1.868,-8.002 -5.935,-8.791c-4.066,-0.783 -8.002,1.869 -8.791,5.936c-1.852,9.547 -2.79,19.36 -2.79,29.167c0,39.775 15.169,77.27 42.713,105.576c15.819,16.256 27.017,29.232 27.017,48.251c0,0.066 0.001,0.134 0.003,0.2l0.43,44.013c0,14.279 7.617,26.812 19,33.752l0,8.248c0,20.678 16.822,37.5 37.5,37.5l46,0c20.678,0 37.5,-16.822 37.5,-37.5l0,-8.248c11.383,-6.94 19,-19.473 19,-33.752c0,0 -0.053,-49.026 -0.153,-49.515c1.423,-17.382 11.959,-29.737 25.447,-43.825c26.997,-28.199 41.867,-65.383 41.867,-104.7zm-101.162,240.04c0,12.406 -10.094,22.5 -22.5,22.5l-46,0c-12.406,0 -22.5,-10.094 -22.5,-22.5l0,-2.891c1.799,0.252 3.633,0.391 5.5,0.391l80,0c1.867,0 3.701,-0.14 5.5,-0.391l0,2.891zm-5.5,-17.5l-80,0c-13.51,0 -24.5,-10.99 -24.5,-24.5l0,-0.5l76,0c4.143,0 7.5,-3.357 7.5,-7.5s-3.357,-7.5 -7.5,-7.5l-76,0l0,-25l128.768,0l0.232,25l-18,0c-4.143,0 -7.5,3.357 -7.5,7.5s3.357,7.5 7.5,7.5l18,0l0,0.5c0,13.51 -10.991,24.5 -24.5,24.5z" id="svg_9" fill="#3B2F0E"/>
   <path d="m304.177,234.285c-2.54,3.271 -1.947,7.983 1.324,10.523c3.27,2.541 7.982,1.949 10.523,-1.324l14.848,-19.121c3.932,-5.063 5.656,-11.354 4.856,-17.715c-0.801,-6.361 -4.03,-12.029 -9.094,-15.961c-5.063,-3.932 -11.358,-5.666 -17.715,-4.855c-6.361,0.8 -12.029,4.029 -15.96,9.093l-48.439,62.384l-27.8,-30.759c-8.875,-9.816 -24.082,-10.582 -33.897,-1.711c-4.756,4.299 -7.553,10.192 -7.877,16.595c-0.323,6.402 1.866,12.547 6.164,17.304l47.001,52c9.461,10.974 28.156,10.301 36.761,-1.374l29.685,-38.23c2.54,-3.271 1.947,-7.983 -1.324,-10.523s-7.982,-1.949 -10.523,1.324l-29.685,38.23c-3.222,4.378 -10.253,4.633 -13.785,0.515l-47,-52c-3.328,-3.682 -3.04,-9.384 0.643,-12.712c3.68,-3.324 9.383,-3.04 12.711,0.643l33.8,37.396c2.946,3.416 8.802,3.22 11.488,-0.43l53.927,-69.451c2.887,-3.882 8.873,-4.635 12.628,-1.589c3.883,2.888 4.635,8.869 1.589,12.629l-14.849,19.119z" id="svg_10" fill="#3B2F0E"/>
  </g>
 </g>

</svg>