<svg xmlns="http://www.w3.org/2000/svg" width="28.744" height="25.996" viewBox="0 0 28.744 25.996">
  <g id="Group_6074" data-name="Group 6074" transform="translate(-331.226 -497.542)">
    <g id="_001-monitor" data-name="001-monitor" transform="translate(331.526 497.842)">
      <path id="Path_23602" data-name="Path 23602" d="M26.5,25H1.649A1.651,1.651,0,0,0,0,26.649V43.03a1.651,1.651,0,0,0,1.649,1.649H9.73v4.068H5.277a.825.825,0,1,0,0,1.649h17.59a.825.825,0,1,0,0-1.649H18.415V44.679H26.5a1.651,1.651,0,0,0,1.649-1.649V26.649A1.651,1.651,0,0,0,26.5,25Zm-9.73,23.747H11.379V44.679h5.387ZM26.5,43.03H1.649V26.649H26.5C26.5,43.386,26.5,43.03,26.5,43.03Z" transform="translate(0 -25)" fill="#0071be" stroke="#0071be" stroke-width="0.6"/>
    </g>
  </g>
</svg>
