<svg xmlns="http://www.w3.org/2000/svg" width="25.275" height="21.057" viewBox="0 0 25.275 21.057">
  <path id="Icon_ionic-ios-share-alt" data-name="Icon ionic-ios-share-alt" d="M29.553,15.595,20.268,6.908A.475.475,0,0,0,19.9,6.75c-.29.013-.658.217-.658.526v4.357A.281.281,0,0,1,19,11.9c-9.233,1.415-13.122,8.325-14.5,15.5-.053.283.329.546.507.322,3.369-4.245,7.469-7.015,13.951-7.068a.326.326,0,0,1,.276.316v4.278a.565.565,0,0,0,.954.349l9.351-8.838a.727.727,0,0,0,.23-.553A.882.882,0,0,0,29.553,15.595Z" transform="translate(-4.502 -6.75)" fill="#adadad"/>
</svg>
