<svg xmlns="http://www.w3.org/2000/svg" width="21.816" height="30.88" viewBox="0 0 21.816 30.88">
  <g id="Group_6051" data-name="Group 6051" transform="translate(-16.142 -10.979)">
    <g id="_002-idea" data-name="002-idea" transform="translate(16.243 11.082)">
      <g id="Group_5861" data-name="Group 5861" transform="translate(0 0)">
        <g id="Group_5860" data-name="Group 5860" transform="translate(0 0)">
          <path id="Path_23603" data-name="Path 23603" d="M121.868,108.7a10.622,10.622,0,0,0-8.013-2.888A10.808,10.808,0,0,0,103.7,116.484a11.074,11.074,0,0,0,5.683,9.55v5.311a5.124,5.124,0,1,0,10.249,0v-5.264a11.274,11.274,0,0,0,5.683-9.55A10.947,10.947,0,0,0,121.868,108.7Zm-7.36,25.808a3.308,3.308,0,0,1-3.121-2.8h6.242A3.308,3.308,0,0,1,114.507,134.513Zm3.261-4.659h-6.522v-1.4h6.522Zm.466-5.218a.932.932,0,0,0-.466.839v1.118h-6.522v-1.118a.979.979,0,0,0-.466-.885,8.711,8.711,0,0,1-5.218-8.059,9.038,9.038,0,0,1,8.385-8.851h.559a8.991,8.991,0,0,1,8.944,8.851A8.9,8.9,0,0,1,118.234,124.637Z" transform="translate(-103.699 -105.793)" fill="#fff" stroke="#fff" stroke-width="0.2"/>
        </g>
      </g>
    </g>
  </g>
</svg>
