<svg xmlns="http://www.w3.org/2000/svg" width="30.285" height="30.27" viewBox="0 0 30.285 30.27">
  <path id="_001-refer" data-name="001-refer" d="M23.884,8.75a8.75,8.75,0,1,0-13.7,7.21A15.158,15.158,0,0,0,0,30.269H2.365A12.784,12.784,0,0,1,15.134,17.5,8.76,8.76,0,0,0,23.884,8.75Zm-8.75,6.385A6.385,6.385,0,1,1,21.519,8.75,6.392,6.392,0,0,1,15.134,15.134Zm15.151,6.621L24.72,27.321l-1.672-1.672,2.77-2.77H23.767a5.15,5.15,0,0,0-5.143,5.139l0,2.252-2.365,0,0-2.252a7.518,7.518,0,0,1,7.508-7.5H25.7l-2.652-2.652L24.72,16.19Zm0,0" fill="#fff"/>
</svg>
