<svg xmlns="http://www.w3.org/2000/svg" width="20.014" height="20.014" viewBox="0 0 20.014 20.014">
  <g id="Icon_feather-settings" data-name="Icon feather-settings" transform="translate(1 1)">
    <path id="Path_23617" data-name="Path 23617" d="M18.413,15.956A2.456,2.456,0,1,1,15.956,13.5,2.456,2.456,0,0,1,18.413,15.956Z" transform="translate(-6.949 -6.949)" fill="none" stroke="#9f9f9f" stroke-linecap="round" stroke-linejoin="round" stroke-width="2"/>
    <path id="Path_23618" data-name="Path 23618" d="M16.566,12.963a1.351,1.351,0,0,0,.27,1.49l.049.049a1.639,1.639,0,1,1-2.317,2.317l-.049-.049a1.362,1.362,0,0,0-2.309.966v.139a1.638,1.638,0,1,1-3.275,0V17.8a1.351,1.351,0,0,0-.884-1.236,1.351,1.351,0,0,0-1.49.27l-.049.049a1.639,1.639,0,1,1-2.317-2.317l.049-.049a1.362,1.362,0,0,0-.966-2.309H3.138a1.638,1.638,0,1,1,0-3.275h.074a1.351,1.351,0,0,0,1.236-.884,1.351,1.351,0,0,0-.27-1.49l-.049-.049A1.639,1.639,0,1,1,6.446,4.194l.049.049a1.351,1.351,0,0,0,1.49.27h.066a1.351,1.351,0,0,0,.819-1.236V3.138a1.638,1.638,0,1,1,3.275,0v.074a1.362,1.362,0,0,0,2.309.966l.049-.049A1.639,1.639,0,1,1,16.82,6.446l-.049.049a1.351,1.351,0,0,0-.27,1.49v.066a1.351,1.351,0,0,0,1.236.819h.139a1.638,1.638,0,1,1,0,3.275H17.8a1.351,1.351,0,0,0-1.236.819Z" transform="translate(-1.5 -1.5)" fill="none" stroke="#9f9f9f" stroke-linecap="round" stroke-linejoin="round" stroke-width="2"/>
  </g>
</svg>
