<svg xmlns="http://www.w3.org/2000/svg" width="30.283" height="30.283" viewBox="0 0 30.283 30.283">
  <g id="Group_6025" data-name="Group 6025" transform="translate(-16036.575 -1074.975)">
    <path id="Path_23632" data-name="Path 23632" d="M26.141,41.283A15.141,15.141,0,1,1,41.283,26.141,15.159,15.159,0,0,1,26.141,41.283Zm0-27.953A12.812,12.812,0,1,0,38.953,26.141,12.827,12.827,0,0,0,26.141,13.329Z" transform="translate(16025.575 1063.975)" fill="#fff"/>
    <g id="Group_6024" data-name="Group 6024" transform="translate(16047.164 1081.922)">
      <path id="Path_23633" data-name="Path 23633" d="M19.553,25.747a.911.911,0,0,1-.911-.911v-.479a5.757,5.757,0,0,1,2.524-4.6,2.732,2.732,0,1,0-4.345-2.205.911.911,0,1,1-1.821,0,4.553,4.553,0,1,1,7.242,3.675,4,4,0,0,0-1.779,3.13v.479a.911.911,0,0,1-.911.911Z" transform="translate(-15 -13)" fill="#fff"/>
      <path id="Path_23634" data-name="Path 23634" d="M17.911,22.819A.934.934,0,0,1,17,21.908a.739.739,0,0,1,.073-.346.647.647,0,0,1,.2-.291.63.63,0,0,1,.291-.2.9.9,0,0,1,.983.2.854.854,0,0,1,.273.637.776.776,0,0,1-.073.344.637.637,0,0,1-.2.291.849.849,0,0,1-.637.275Z" transform="translate(-13.358 -6.429)" fill="#fff"/>
    </g>
  </g>
</svg>
