<svg id="_001-gallery" data-name="001-gallery" xmlns="http://www.w3.org/2000/svg" width="22.711" height="19.732" viewBox="0 0 22.711 19.732">
  <g id="Group_5856" data-name="Group 5856" transform="translate(0 0)">
    <path id="Path_23561" data-name="Path 23561" d="M74.992,28.681a1.735,1.735,0,0,1,1.5,1.909l-1.33,11.77a1.706,1.706,0,0,1-1.881,1.511l-.056-.007h-.087V33.077a1.735,1.735,0,0,0-1.735-1.735H56.947l.318-2.892A1.764,1.764,0,0,1,59.2,26.917Z" transform="translate(-53.795 -26.907)" fill="#00acea"/>
    <path id="Path_23562" data-name="Path 23562" d="M19.346,237.994v1.041a1.735,1.735,0,0,1-1.735,1.735H1.735A1.735,1.735,0,0,1,0,239.035v-2.429l4.771-3.47a1.966,1.966,0,0,1,2.516.116l3.181,2.776a2.053,2.053,0,0,0,2.371.2l6.507-3.817Z" transform="translate(0 -221.038)" fill="#00ceb4"/>
    <path id="Path_23563" data-name="Path 23563" d="M19.346,108.76v5.205l-6.507,3.817a2.053,2.053,0,0,1-2.371-.2L7.287,114.8a1.966,1.966,0,0,0-2.516-.116L0,118.158v-9.4a1.735,1.735,0,0,1,1.735-1.735H17.611A1.735,1.735,0,0,1,19.346,108.76Z" transform="translate(0 -102.59)" fill="#00efd1"/>
  </g>
  <circle id="Ellipse_9" data-name="Ellipse 9" cx="1.851" cy="1.851" r="1.851" transform="translate(9.716 7.326)" fill="#d4e1f4"/>
</svg>
