<svg xmlns="http://www.w3.org/2000/svg" width="20.577" height="14.311" viewBox="0 0 20.577 14.311">
  <g id="Group_6120" data-name="Group 6120" transform="translate(-3.909 -6.663)">
    <g id="Icon_feather-user" data-name="Icon feather-user" transform="translate(4.659 7.413)">
      <path id="Path_23591" data-name="Path 23591" d="M17.388,26.77V25.347A2.847,2.847,0,0,0,14.541,22.5H8.847A2.847,2.847,0,0,0,6,25.347V26.77" transform="translate(-6 -13.959)" fill="none" stroke="#fff" stroke-linecap="round" stroke-linejoin="round" stroke-width="1.5"/>
      <path id="Path_23592" data-name="Path 23592" d="M17.694,7.347A2.847,2.847,0,1,1,14.847,4.5a2.847,2.847,0,0,1,2.847,2.847Z" transform="translate(-9.153 -4.5)" fill="none" stroke="#fff" stroke-linecap="round" stroke-linejoin="round" stroke-width="1.5"/>
    </g>
    <g id="Icon_feather-user-2" data-name="Icon feather-user" transform="translate(12.349 7.413)">
      <path id="Path_23591-2" data-name="Path 23591" d="M17.388,26.77V25.347A2.847,2.847,0,0,0,14.541,22.5H8.847A2.847,2.847,0,0,0,6,25.347V26.77" transform="translate(-6 -13.959)" fill="none" stroke="#fff" stroke-linecap="round" stroke-linejoin="round" stroke-width="1.5"/>
      <path id="Path_23592-2" data-name="Path 23592" d="M17.694,7.347A2.847,2.847,0,1,1,14.847,4.5a2.847,2.847,0,0,1,2.847,2.847Z" transform="translate(-9.153 -4.5)" fill="none" stroke="#fff" stroke-linecap="round" stroke-linejoin="round" stroke-width="1.5"/>
    </g>
  </g>
</svg>
