<svg id="_003-image" data-name="003-image" xmlns="http://www.w3.org/2000/svg" width="15.386" height="19.63" viewBox="0 0 15.386 19.63">
  <g id="Group_5857" data-name="Group 5857" transform="translate(0)">
    <path id="Path_23574" data-name="Path 23574" d="M57.182,5.6V17.508A2.122,2.122,0,0,1,55.06,19.63H43.918A2.122,2.122,0,0,1,41.8,17.508V2.122A2.122,2.122,0,0,1,43.918,0h7.64l.159.159-.106.106v4.51a.769.769,0,0,0,.742.8h4.564l.133-.133Z" transform="translate(-41.796)" fill="#00efd1"/>
    <path id="Path_23575" data-name="Path 23575" d="M240.532,8.413l-.133.133h-4.51a.769.769,0,0,1-.8-.742q0-.027,0-.054V3.24l.106-.106Z" transform="translate(-225.279 -2.975)" fill="#00acea"/>
  </g>
</svg>
