<?xml version="1.0" encoding="UTF-8"?>
<svg xmlns="http://www.w3.org/2000/svg" xmlns:xlink="http://www.w3.org/1999/xlink" viewBox="0 0 32 32" width="32px" height="32px">
<g id="surface154237466">
<path style=" stroke:none;fill-rule:nonzero;fill:rgb(100%,100%,100%);fill-opacity:1;" d="M 18 2 C 15.804688 2 14 3.804688 14 6 L 6 6 L 6 12 C 3.804688 12 2 13.804688 2 16 C 2 18.195312 3.804688 20 6 20 L 6 26 L 14 26 C 14 28.195312 15.804688 30 18 30 C 20.195312 30 22 28.195312 22 26 L 30 26 L 30 18 L 28 18 C 26.882812 18 26 17.117188 26 16 C 26 14.882812 26.882812 14 28 14 L 30 14 L 30 6 L 22 6 C 22 3.804688 20.195312 2 18 2 Z M 18 4 C 19.117188 4 20 4.882812 20 6 L 20 8 L 28 8 L 28 12 C 25.804688 12 24 13.804688 24 16 C 24 18.195312 25.804688 20 28 20 L 28 24 L 20 24 L 20 26 C 20 27.117188 19.117188 28 18 28 C 16.882812 28 16 27.117188 16 26 L 16 24 L 8 24 L 8 18 L 6 18 C 4.882812 18 4 17.117188 4 16 C 4 14.882812 4.882812 14 6 14 L 8 14 L 8 8 L 16 8 L 16 6 C 16 4.882812 16.882812 4 18 4 Z M 18 4 "/>
</g>
</svg>
