<svg xmlns="http://www.w3.org/2000/svg" width="28.006" height="34.046" viewBox="0 0 28.006 34.046">
  <g id="_001-award" data-name="001-award" transform="translate(-35.827 0)">
    <g id="Group_6023" data-name="Group 6023" transform="translate(35.827 0)">
      <g id="Group_6022" data-name="Group 6022" transform="translate(0 0)">
        <path id="Path_23631" data-name="Path 23631" d="M63.764,29.275,58.817,17.551a1.849,1.849,0,0,0,.337-1.93l-.843-2.082,1.9-1.188A1.853,1.853,0,0,0,60.8,9.8a1.825,1.825,0,0,0-.582-.582l-1.9-1.188.843-2.082a1.844,1.844,0,0,0-1.028-2.4,1.813,1.813,0,0,0-.818-.126l-2.242.16L54.527,1.4A1.849,1.849,0,0,0,52.293.055a1.81,1.81,0,0,0-.75.379L49.832,1.875,48.113.434a1.853,1.853,0,0,0-2.6.219,1.81,1.81,0,0,0-.379.75L44.59,3.578l-2.242-.16a1.848,1.848,0,0,0-1.972,1.711,1.936,1.936,0,0,0,.126.818l.843,2.082-1.9,1.188a1.847,1.847,0,0,0-.59,2.545,1.877,1.877,0,0,0,.59.59l1.9,1.188L40.5,15.621a1.849,1.849,0,0,0,.337,1.93L35.892,29.275a.843.843,0,0,0,.447,1.1.868.868,0,0,0,.666,0l5.343-2.335L44.4,33.5a.851.851,0,0,0,.775.548H45.2a.846.846,0,0,0,.775-.514l3.86-9.128,3.852,9.128a.846.846,0,0,0,.775.514h.017a.847.847,0,0,0,.775-.548l2.056-5.453,5.343,2.335a.844.844,0,0,0,1.113-.438A.832.832,0,0,0,63.764,29.275Zm-18.516,1.66L43.621,26.62a.838.838,0,0,0-1.087-.489c-.017.008-.025.008-.042.017l-4.222,1.846,4.147-9.836,2.174-.152.539,2.183A1.828,1.828,0,0,0,46.36,21.5a1.9,1.9,0,0,0,.573.093,1.8,1.8,0,0,0,1.18-.438l.253-.211.548,1.3Zm1.778-11.074a.144.144,0,0,1-.152.025.172.172,0,0,1-.11-.118L46.057,16.9a.838.838,0,0,0-.818-.641H45.18l-2.941.211H42.18l-.017-.008a.183.183,0,0,1-.093-.084.164.164,0,0,1,0-.126l1.1-2.731a.842.842,0,0,0-.337-1.028l-2.5-1.559a.166.166,0,0,1-.076-.143.143.143,0,0,1,.076-.135l2.5-1.568a.845.845,0,0,0,.337-1.028l-1.1-2.739a.162.162,0,0,1,.093-.211A.186.186,0,0,1,42.23,5.1l2.95.2a.854.854,0,0,0,.877-.641L46.765,1.8a.144.144,0,0,1,.11-.118.147.147,0,0,1,.152.034l2.259,1.9a.852.852,0,0,0,1.087,0l2.267-1.9a.167.167,0,0,1,.152-.034.172.172,0,0,1,.11.118l.708,2.866a.854.854,0,0,0,.877.641l2.95-.2a.151.151,0,0,1,.169.152.186.186,0,0,1-.008.067l-1.1,2.739a.842.842,0,0,0,.337,1.028l2.5,1.568a.143.143,0,0,1,.076.135.166.166,0,0,1-.076.143l-2.512,1.559a.845.845,0,0,0-.337,1.028l1.113,2.739a.164.164,0,0,1,0,.126.133.133,0,0,1-.093.084l-.017.008a.071.071,0,0,1-.059,0l-2.941-.211a.839.839,0,0,0-.877.641L52.9,19.776a.156.156,0,0,1-.11.118.147.147,0,0,1-.152-.034l-2.259-1.9a.852.852,0,0,0-1.087,0Zm10.139,6.287a.844.844,0,0,0-1.113.438c-.008.017-.008.025-.017.042l-1.627,4.315-3.767-8.925-.927-2.2.118-.093,1.719,1.424a1.851,1.851,0,0,0,2.984-.969L55.075,18l2.174.152L61.4,27.977Z" transform="translate(-35.827 0)" fill="#0071be"/>
      </g>
    </g>
  </g>
</svg>
