<svg height="496pt" fill="white" viewBox="0 0 496 496" width="496pt" xmlns="http://www.w3.org/2000/svg"><path d="m72 272c-13.230469 0-24 10.769531-24 24s10.769531 24 24 24 24-10.769531 24-24-10.769531-24-24-24zm0 32c-4.414062 0-8-3.59375-8-8s3.585938-8 8-8 8 3.59375 8 8-3.585938 8-8 8zm0 0"/><path d="m136 272c-13.230469 0-24 10.769531-24 24s10.769531 24 24 24 24-10.769531 24-24-10.769531-24-24-24zm0 32c-4.414062 0-8-3.59375-8-8s3.585938-8 8-8 8 3.59375 8 8-3.585938 8-8 8zm0 0"/><path d="m200 272c-13.230469 0-24 10.769531-24 24s10.769531 24 24 24 24-10.769531 24-24-10.769531-24-24-24zm0 32c-4.414062 0-8-3.59375-8-8s3.585938-8 8-8 8 3.59375 8 8-3.585938 8-8 8zm0 0"/><path d="m496 112c0-61.761719-50.238281-112-112-112-44.566406 0-83.015625 26.222656-101.039062 64h-242.960938c-22.054688 0-40 17.945312-40 40v240c0 22.054688 17.945312 40 40 40h40v104c0 3.230469 1.945312 6.152344 4.9375 7.390625.992188.410156 2.03125.609375 3.0625.609375 2.078125 0 4.128906-.816406 5.65625-2.34375l109.65625-109.65625h220.6875c22.054688 0 40-17.945312 40-40v-153.769531c19.761719-20.199219 32-47.796875 32-78.230469zm-112-96c52.9375 0 96 43.0625 96 96s-43.0625 96-96 96-96-43.0625-96-96 43.0625-96 96-96zm40 352h-224c-2.128906 0-4.160156.839844-5.65625 2.34375l-98.34375 98.34375v-92.6875c0-4.414062-3.574219-8-8-8h-48c-13.230469 0-24-10.769531-24-24v-240c0-13.230469 10.769531-24 24-24h236.71875c-3.039062 10.152344-4.71875 20.878906-4.71875 32 0 61.761719 50.238281 112 112 112 23.792969 0 45.839844-7.511719 64-20.214844v140.214844c0 13.230469-10.769531 24-24 24zm0 0"/><path d="m376 120v72h16v-72h72v-16h-72v-72h-16v72h-72v16zm0 0"/></svg>