<svg id="_004-broken-link" data-name="004-broken-link" xmlns="http://www.w3.org/2000/svg" width="18.72" height="18.72" viewBox="0 0 18.72 18.72">
  <g id="Group_5858" data-name="Group 5858" transform="translate(0)">
    <path id="Path_23578" data-name="Path 23578" d="M9.266,4.309,5.981,1.025A3.5,3.5,0,0,0,1.026,5.979L4.311,9.264A3.5,3.5,0,0,0,9.266,4.309ZM4.749,2.256,8.034,5.541A1.761,1.761,0,1,1,5.543,8.032L3.9,6.39h0L2.258,4.747A1.761,1.761,0,0,1,4.749,2.256Z" transform="translate(-0.002)" fill="#4acfd9"/>
    <path id="Path_23579" data-name="Path 23579" d="M239.858,234.9l-3.285-3.285a3.5,3.5,0,0,0-4.955,4.955l3.285,3.285a3.5,3.5,0,0,0,4.955-4.955Zm-3.723,3.723-1.642-1.642-1.642-1.642a1.761,1.761,0,0,1,2.491-2.491l3.285,3.285a1.761,1.761,0,0,1-2.491,2.491Z" transform="translate(-222.163 -222.164)" fill="#4acfd9"/>
  </g>
  <path id="Path_23580" data-name="Path 23580" d="M137.35,136.13l-7.008-7.008a.871.871,0,0,0-1.232,1.232l7.008,7.008a.871.871,0,1,0,1.232-1.232Z" transform="translate(-124.144 -124.156)" fill="#0295aa"/>
  <g id="Group_5859" data-name="Group 5859" transform="translate(10.954 2.979)">
    <path id="Path_23581" data-name="Path 23581" d="M333.77,116.137a.29.29,0,0,1-.205-.5l1.626-1.626a.29.29,0,0,1,.411.411l-1.626,1.626A.29.29,0,0,1,333.77,116.137Z" transform="translate(-332.241 -112.744)" fill="#fd6a33"/>
    <path id="Path_23582" data-name="Path 23582" d="M299.888,84.355a.29.29,0,0,1-.29-.29v-2.3a.29.29,0,0,1,.581,0v2.3A.29.29,0,0,1,299.888,84.355Z" transform="translate(-299.598 -81.475)" fill="#fd6a33"/>
    <path id="Path_23583" data-name="Path 23583" d="M350.106,192.863h-2.3a.29.29,0,1,1,0-.581h2.3a.29.29,0,0,1,0,.581Z" transform="translate(-345.764 -188.231)" fill="#fd6a33"/>
  </g>
</svg>
