<svg width="23" height="23" viewBox="0 0 23 23" fill="none" xmlns="http://www.w3.org/2000/svg">
<path d="M11.249 2.82812C10.8931 2.82812 10.6045 3.1167 10.6045 3.47266C10.6045 3.82861 10.8931 4.11719 11.249 4.11719C13.3817 4.11719 15.1169 5.85201 15.1169 7.98438C15.1169 8.34033 15.4054 8.62891 15.7614 8.62891C16.1173 8.62891 16.4059 8.34033 16.4059 7.98438C16.4059 5.14122 14.0926 2.82812 11.249 2.82812Z" fill="white" stroke="white" stroke-width="0.5"/>
<path d="M9.58861 0.422656C6.67662 1.03114 4.31549 3.36967 3.6942 6.29975C3.1696 8.77398 3.81606 11.258 5.46782 13.1149C6.27525 14.0225 6.73828 15.2206 6.73828 16.4053V17.6944C6.73828 18.552 7.29975 19.2807 8.07431 19.533C8.32903 21.038 9.63528 22.249 11.25 22.249C12.8643 22.249 14.1709 21.0384 14.4257 19.533C15.2002 19.2807 15.7617 18.552 15.7617 17.6943V16.4053C15.7617 15.2183 16.2263 14.0346 17.0698 13.0722C18.3042 11.6644 18.9846 9.8558 18.9844 7.98344C18.9844 3.10369 14.5178 -0.607133 9.58861 0.422656ZM11.25 20.96C10.4215 20.96 9.69505 20.3899 9.42679 19.6237H13.0732C12.805 20.3899 12.0785 20.96 11.25 20.96ZM14.4727 17.6944C14.4727 18.0498 14.1835 18.3389 13.8281 18.3389H8.67188C8.31648 18.3389 8.02734 18.0498 8.02734 17.6944V17.0498H14.4727V17.6944ZM16.1004 12.2226C15.2015 13.2481 14.6484 14.4848 14.5081 15.7608H7.99202C7.85186 14.4841 7.30023 13.2353 6.43105 12.2581C5.05442 10.7106 4.5165 8.63626 4.95525 6.56714C5.46739 4.1517 7.43536 2.18953 9.85231 1.68452C13.9783 0.822265 17.6953 3.92083 17.6953 7.98344C17.6955 9.54318 17.1287 11.0498 16.1004 12.2226ZM2.18359 7.98344H0.894531C0.538578 7.98344 0.25 8.27202 0.25 8.62797C0.25 8.98392 0.538578 9.2725 0.894531 9.2725H2.18359C2.53955 9.2725 2.82812 8.98392 2.82812 8.62797C2.82812 8.27202 2.53955 7.98344 2.18359 7.98344ZM2.45056 4.76078L1.53906 3.84929C1.28739 3.59757 0.879277 3.59757 0.627566 3.84929C0.375855 4.101 0.375855 4.50907 0.627566 4.76078L1.53906 5.67228C1.79073 5.92399 2.19885 5.92403 2.45056 5.67228C2.70227 5.42057 2.70227 5.01249 2.45056 4.76078ZM2.45056 11.5837C2.19885 11.3319 1.79073 11.3319 1.53906 11.5837L0.627566 12.4952C0.375855 12.7469 0.375855 13.1549 0.627566 13.4067C0.879234 13.6584 1.28735 13.6584 1.53906 13.4067L2.45056 12.4952C2.70227 12.2434 2.70227 11.8354 2.45056 11.5837ZM21.6055 7.98344H20.3164C19.9605 7.98344 19.6719 8.27202 19.6719 8.62797C19.6719 8.98392 19.9605 9.2725 20.3164 9.2725H21.6055C21.9614 9.2725 22.25 8.98392 22.25 8.62797C22.25 8.27202 21.9614 7.98344 21.6055 7.98344ZM21.8724 3.84929C21.6208 3.59757 21.2126 3.59757 20.9609 3.84929L20.0494 4.76078C19.7977 5.01249 19.7977 5.42057 20.0494 5.67228C20.3011 5.92395 20.7092 5.92399 20.9609 5.67228L21.8724 4.76078C22.1241 4.50907 22.1241 4.101 21.8724 3.84929ZM21.8724 12.4952L20.9609 11.5837C20.7093 11.3319 20.3012 11.3319 20.0494 11.5837C19.7977 11.8354 19.7977 12.2434 20.0494 12.4952L20.9609 13.4067C21.2126 13.6583 21.6207 13.6584 21.8724 13.4067C22.1241 13.1549 22.1241 12.7469 21.8724 12.4952Z" fill="white" stroke="white" stroke-width="0.5"/>
</svg>
