<svg width="183" height="88" viewBox="0 0 183 88" fill="none" xmlns="http://www.w3.org/2000/svg">
<path d="M124.124 82.9551H55.5718V87.7583H124.124V82.9551Z" fill="white"/>
<path d="M124.124 0H55.5718V4.80444H124.124V0Z" fill="white"/>
<path d="M0.673828 53.282H2.14906V62.4956H7.1408V63.8375H0.673828V53.282Z" fill="white"/>
<path d="M14.1298 59.723C14.1185 59.4249 14.0705 59.1511 13.984 58.9033C13.8969 58.6538 13.7665 58.4386 13.5922 58.2543C13.4185 58.07 13.2004 57.9254 12.9396 57.8222C12.6783 57.7179 12.3742 57.6646 12.0251 57.6646C11.6873 57.6646 11.3773 57.7262 11.0963 57.8507C10.8142 57.9757 10.5765 58.1364 10.3827 58.3355C10.1871 58.5347 10.036 58.7563 9.92872 58.9993C9.82026 59.2424 9.7681 59.483 9.7681 59.7224H14.1298V59.723ZM9.76751 60.7952C9.76751 61.104 9.83567 61.3844 9.97436 61.638C10.1125 61.8911 10.2944 62.1075 10.5196 62.2871C10.7455 62.4655 11.0057 62.6053 11.3032 62.7037C11.6001 62.8033 11.9072 62.8537 12.2248 62.8537C12.6551 62.8537 13.0286 62.7553 13.3468 62.5627C13.6639 62.3688 13.9561 62.1128 14.2223 61.7957L15.2672 62.5704C14.4985 63.5341 13.4245 64.0166 12.0417 64.0166C11.468 64.0166 10.9488 63.9217 10.4823 63.7327C10.0164 63.5442 9.6217 63.2828 9.29927 62.9503C8.97684 62.6166 8.7285 62.2248 8.55543 61.7732C8.37999 61.3204 8.29346 60.8308 8.29346 60.3039C8.29346 59.777 8.3877 59.2874 8.57736 58.8358C8.76703 58.3835 9.02841 57.9906 9.36151 57.6587C9.69401 57.325 10.0905 57.0636 10.5505 56.8751C11.0122 56.6878 11.5142 56.5912 12.0559 56.5912C12.702 56.5912 13.2473 56.7008 13.6924 56.9201C14.1375 57.1383 14.5044 57.4245 14.7912 57.7766C15.0781 58.1287 15.2856 58.5276 15.4136 58.9697C15.541 59.4119 15.6056 59.8617 15.6056 60.3187V60.7952H9.76751Z" fill="white"/>
<path d="M21.6251 60.4379C21.2973 60.4379 20.9624 60.4551 20.6193 60.4906C20.2761 60.5262 19.9637 60.5926 19.6828 60.6922C19.4007 60.7917 19.1701 60.9304 18.9911 61.1094C18.8121 61.2884 18.7226 61.5166 18.7226 61.7958C18.7226 62.203 18.8625 62.4963 19.1452 62.6747C19.4273 62.8537 19.8079 62.9427 20.2891 62.9427C20.6685 62.9427 20.9909 62.8804 21.2576 62.7565C21.5237 62.6321 21.7395 62.4709 21.9031 62.2735C22.0666 62.0743 22.184 61.8527 22.2557 61.6097C22.3274 61.3649 22.3642 61.1248 22.3642 60.886V60.4379H21.6251ZM17.7239 57.6356C18.1127 57.2865 18.5644 57.0263 19.0753 56.8526C19.588 56.6784 20.0995 56.5919 20.6121 56.5919C21.1438 56.5919 21.6026 56.657 21.9866 56.7857C22.3695 56.9143 22.686 57.0897 22.9314 57.3072C23.1768 57.5265 23.3587 57.7773 23.4761 58.0606C23.594 58.3427 23.6533 58.639 23.6533 58.9472V62.555C23.6533 62.8034 23.6586 63.0327 23.6681 63.2414C23.6788 63.4494 23.6936 63.6486 23.7144 63.8376H22.4851C22.4543 63.4796 22.44 63.1216 22.44 62.7637H22.4086C22.101 63.2206 21.7383 63.5437 21.3181 63.7327C20.8978 63.9218 20.4118 64.0166 19.8588 64.0166C19.5216 64.0166 19.198 63.971 18.8909 63.8827C18.5833 63.792 18.3148 63.6586 18.0849 63.479C17.8537 63.3006 17.6718 63.0784 17.539 62.8158C17.4056 62.5526 17.3398 62.2474 17.3398 61.8995C17.3398 61.4425 17.4442 61.0596 17.654 60.7508C17.8644 60.4438 18.1513 60.1919 18.514 59.9975C18.8773 59.8049 19.3029 59.6644 19.7889 59.5808C20.2749 59.4961 20.7953 59.4546 21.3477 59.4546H22.3624V59.1559C22.3624 58.9769 22.3257 58.7979 22.2539 58.6195C22.1822 58.4411 22.0749 58.2781 21.9315 58.1347C21.7881 57.9912 21.6091 57.8762 21.3939 57.7921C21.18 57.7073 20.9227 57.6646 20.6258 57.6646C20.3597 57.6646 20.1261 57.6901 19.927 57.7405C19.7267 57.7897 19.5453 57.8513 19.3817 57.926C19.2181 58.0013 19.0693 58.0884 18.936 58.188C18.8026 58.2858 18.6752 58.3818 18.5525 58.4701L17.7239 57.6356Z" fill="white"/>
<path d="M29.6127 62.7636C29.9814 62.7636 30.3139 62.702 30.6108 62.5775C30.9084 62.4531 31.1591 62.2842 31.3642 62.0702C31.5692 61.8574 31.7275 61.599 31.8401 61.2955C31.9521 60.9915 32.009 60.6619 32.009 60.3039C32.009 59.9459 31.9521 59.6164 31.8401 59.3123C31.7281 59.0101 31.5692 58.7505 31.3642 58.5377C31.1585 58.3237 30.9078 58.1548 30.6108 58.0303C30.3139 57.9065 29.9814 57.8436 29.6127 57.8436C29.2447 57.8436 28.911 57.9065 28.614 58.0303C28.3177 58.1548 28.0664 58.3237 27.8613 58.5377C27.6562 58.7499 27.4974 59.0101 27.3854 59.3123C27.2722 59.6164 27.2164 59.9459 27.2164 60.3039C27.2164 60.6619 27.2722 60.9915 27.3854 61.2955C27.4968 61.599 27.6562 61.8568 27.8613 62.0702C28.0664 62.2842 28.3177 62.4531 28.614 62.5775C28.911 62.7026 29.2447 62.7636 29.6127 62.7636ZM33.3918 63.8376H32.009V62.8235H31.9788C31.7115 63.2017 31.3458 63.4933 30.8799 63.7025C30.4141 63.9117 29.9352 64.016 29.4432 64.016C28.8808 64.016 28.3704 63.9212 27.9146 63.7321C27.4595 63.5436 27.0706 63.2799 26.7476 62.9421C26.4252 62.6048 26.1757 62.2118 26.0026 61.7644C25.8283 61.3163 25.7412 60.8303 25.7412 60.3033C25.7412 59.7764 25.8283 59.2869 26.0026 58.834C26.1757 58.3818 26.4252 57.99 26.7476 57.6563C27.0706 57.3238 27.4595 57.063 27.9146 56.8746C28.371 56.6855 28.8808 56.5913 29.4432 56.5913C29.9654 56.5913 30.4573 56.6979 30.9179 56.9119C31.3784 57.1247 31.7322 57.4163 31.9782 57.7838H32.0084V52.565H33.3912L33.3918 63.8376Z" fill="white"/>
<path d="M41.3189 59.723C41.307 59.4249 41.2584 59.1511 41.1719 58.9033C41.0847 58.6538 40.9549 58.4386 40.7807 58.2543C40.6064 58.07 40.3889 57.9254 40.1275 57.8222C39.8661 57.7179 39.5621 57.6646 39.2136 57.6646C38.8763 57.6646 38.5652 57.7262 38.2842 57.8507C38.0021 57.9757 37.7644 58.1364 37.5706 58.3355C37.3762 58.5347 37.2245 58.7563 37.1166 58.9993C37.0087 59.2424 36.956 59.483 36.956 59.7224H41.3189V59.723ZM36.9554 60.7952C36.9554 61.104 37.0235 61.3844 37.1628 61.638C37.3009 61.8911 37.4823 62.1075 37.7081 62.2871C37.9339 62.4655 38.1941 62.6053 38.4911 62.7037C38.788 62.8033 39.095 62.8537 39.4127 62.8537C39.8436 62.8537 40.217 62.7553 40.5347 62.5627C40.8518 62.3688 41.144 62.1128 41.4107 61.7957L42.4557 62.5704C41.6869 63.5341 40.6124 64.0166 39.2296 64.0166C38.6558 64.0166 38.1366 63.9217 37.6696 63.7327C37.2043 63.5442 36.8108 63.2828 36.4872 62.9503C36.1647 62.6166 35.9164 62.2248 35.7433 61.7732C35.5685 61.3204 35.4819 60.8308 35.4819 60.3039C35.4819 59.777 35.5762 59.2874 35.7658 58.8358C35.9555 58.3835 36.2169 57.9906 36.55 57.6587C36.8825 57.325 37.279 57.0636 37.7395 56.8751C38.2007 56.6878 38.7027 56.5912 39.245 56.5912C39.8904 56.5912 40.4357 56.7008 40.8814 56.9201C41.326 57.1383 41.6929 57.4245 41.9803 57.7766C42.266 58.1293 42.474 58.5276 42.6021 58.9697C42.7301 59.4119 42.7941 59.8617 42.7941 60.3187V60.7952H36.9554Z" fill="white"/>
<path d="M44.8818 56.7703H46.2634V57.8591H46.2942C46.3867 57.6712 46.5094 57.4987 46.6629 57.3452C46.8176 57.1911 46.9889 57.0595 47.1774 56.9493C47.367 56.8396 47.5745 56.7543 47.7997 56.6891C48.0255 56.6251 48.2502 56.5925 48.4766 56.5925C48.7012 56.5925 48.9063 56.6221 49.0912 56.6814L49.029 58.1282C48.9164 58.0979 48.8043 58.073 48.6911 58.0529C48.5791 58.0327 48.4659 58.0221 48.3533 58.0221C47.6782 58.0221 47.1608 58.2064 46.8022 58.5745C46.4442 58.9419 46.2646 59.5139 46.2646 60.2891V63.8377H44.883V56.7703H44.8818Z" fill="white"/>
<path d="M54.8647 58.5442C54.7018 58.3462 54.4991 58.1797 54.2596 58.0451C54.0184 57.9112 53.7238 57.843 53.3759 57.843C53.0475 57.843 52.7636 57.9112 52.523 58.0451C52.2835 58.1797 52.1626 58.3753 52.1626 58.6343C52.1626 58.8423 52.232 59.0124 52.3707 59.1404C52.5076 59.2691 52.6723 59.374 52.862 59.4528C53.0511 59.5334 53.2538 59.5921 53.4689 59.6318C53.6829 59.6721 53.8678 59.7071 54.0213 59.7379C54.3189 59.8055 54.598 59.8902 54.8582 59.991C55.1196 60.0905 55.3448 60.2192 55.5345 60.3774C55.7242 60.5357 55.8723 60.7307 55.9802 60.9594C56.0875 61.1888 56.1414 61.4656 56.1414 61.7946C56.1414 62.1911 56.0543 62.5313 55.88 62.8152C55.7064 63.0985 55.4806 63.3291 55.2044 63.5092C54.9276 63.6882 54.6129 63.8169 54.2602 63.8957C53.9058 63.9751 53.5507 64.0154 53.1916 64.0154C52.5864 64.0154 52.0577 63.9259 51.6013 63.7469C51.1461 63.5679 50.739 63.2396 50.3804 62.763L51.4253 61.9279C51.6493 62.1472 51.9012 62.341 52.1786 62.5088C52.4548 62.6783 52.7921 62.763 53.1916 62.763C53.3652 62.763 53.5424 62.7458 53.722 62.7103C53.901 62.6759 54.0599 62.6208 54.1986 62.5467C54.3372 62.4726 54.4493 62.3778 54.5358 62.264C54.6223 62.1496 54.6668 62.0174 54.6668 61.8687C54.6668 61.6695 54.6034 61.5059 54.4753 61.3761C54.3467 61.2475 54.1932 61.1444 54.0136 61.0697C53.8352 60.9956 53.6462 60.9363 53.4458 60.8919C53.2455 60.8468 53.0701 60.8101 52.9154 60.7805C52.619 60.7099 52.3363 60.6317 52.0708 60.5422C51.8052 60.4521 51.5681 60.333 51.3643 60.1836C51.1586 60.0348 50.9962 59.8475 50.8729 59.6182C50.7502 59.3888 50.688 59.1055 50.688 58.7676C50.688 58.3996 50.768 58.0795 50.9262 57.8063C51.0845 57.533 51.2943 57.306 51.5563 57.127C51.8183 56.948 52.114 56.8153 52.4477 56.7252C52.7802 56.6345 53.1151 56.5906 53.4535 56.5906C53.9443 56.5906 54.4149 56.6796 54.8659 56.8585C55.3176 57.0375 55.675 57.3357 55.9417 57.7529L54.8647 58.5442Z" fill="white"/>
<path d="M58.2447 52.5656H59.6269V57.859H59.6577C59.8326 57.4809 60.1337 57.1762 60.564 56.9415C60.9937 56.708 61.4904 56.5912 62.054 56.5912C62.4025 56.5912 62.7374 56.6446 63.0598 56.7489C63.3823 56.8526 63.6644 57.0144 63.905 57.2325C64.1457 57.4512 64.3377 57.7328 64.4811 58.0753C64.6246 58.4179 64.6963 58.8221 64.6963 59.2898V63.8376H63.3135V59.6626C63.3135 59.3348 63.2673 59.0545 63.176 58.8198C63.0841 58.5868 62.9609 58.3978 62.8068 58.2543C62.6532 58.1097 62.4766 58.006 62.2775 57.9408C62.0771 57.8768 61.8697 57.8454 61.6545 57.8454C61.3683 57.8454 61.1021 57.8892 60.855 57.9787C60.6096 58.0682 60.3951 58.2093 60.2101 58.4037C60.0258 58.5975 59.8824 58.8429 59.7804 59.1416C59.6779 59.4391 59.6263 59.793 59.6263 60.1996V63.8382H58.2441L58.2447 52.5656Z" fill="white"/>
<path d="M67.3229 56.7702H68.7057V63.8376H67.3229V56.7702ZM67.0005 54.2358C67.0005 53.9685 67.1001 53.7368 67.2992 53.5424C67.4989 53.3492 67.7372 53.252 68.0146 53.252C68.2902 53.252 68.5291 53.3492 68.7276 53.5424C68.928 53.7368 69.0287 53.9685 69.0287 54.2358C69.0287 54.5043 68.928 54.7361 68.7276 54.9287C68.5291 55.1225 68.2902 55.2197 68.0146 55.2197C67.7372 55.2197 67.4989 55.1225 67.2992 54.9287C67.1001 54.7355 67.0005 54.5043 67.0005 54.2358Z" fill="white"/>
<path d="M75.11 57.8437C74.7419 57.8437 74.4083 57.9053 74.1125 58.0304C73.815 58.1548 73.5637 58.3238 73.3592 58.5377C73.1541 58.7499 72.9959 59.0083 72.8826 59.3124C72.7694 59.6164 72.7143 59.946 72.7143 60.304C72.7143 60.662 72.7694 60.9915 72.8826 61.2956C72.9953 61.599 73.1541 61.8568 73.3592 62.0702C73.5642 62.2842 73.8156 62.4531 74.1125 62.5776C74.4083 62.7026 74.7419 62.7637 75.11 62.7637C75.4793 62.7637 75.8118 62.702 76.1093 62.5776C76.4063 62.4531 76.657 62.2842 76.862 62.0702C77.0671 61.8574 77.2254 61.599 77.338 61.2956C77.4512 60.9915 77.5075 60.662 77.5075 60.304C77.5075 59.946 77.4512 59.6164 77.338 59.3124C77.226 59.0083 77.0671 58.7505 76.862 58.5377C76.657 58.3238 76.4063 58.1548 76.1093 58.0304C75.8118 57.9053 75.4793 57.8437 75.11 57.8437ZM71.3315 56.7703H72.7143V57.7844H72.7445C73.0113 57.4062 73.3764 57.114 73.8434 56.9054C74.3093 56.6962 74.7882 56.5925 75.2795 56.5925C75.8432 56.5925 76.3529 56.6861 76.8081 56.8758C77.2639 57.0643 77.6527 57.328 77.9751 57.6653C78.2982 58.0031 78.5459 58.3984 78.7208 58.8518C78.895 59.3035 78.9815 59.7883 78.9815 60.3046C78.9815 60.8315 78.895 61.321 78.7208 61.7739C78.5459 62.2261 78.2982 62.6191 77.9751 62.951C77.6527 63.2841 77.2639 63.5449 76.8081 63.7333C76.3523 63.9218 75.8432 64.0172 75.2795 64.0172C74.7579 64.0172 74.266 63.91 73.8049 63.696C73.345 63.4832 72.9911 63.1916 72.7451 62.8241H72.7149V68.0429H71.3321L71.3315 56.7703Z" fill="white"/>
<path d="M87.4291 62.4957H89.2884C89.9125 62.4957 90.5046 62.4133 91.0624 62.2485C91.6201 62.0849 92.1091 61.8395 92.5293 61.5118C92.9495 61.1828 93.2826 60.7739 93.528 60.2813C93.7734 59.79 93.8973 59.2157 93.8973 58.5607C93.8973 58.2217 93.8404 57.8264 93.7284 57.3753C93.6151 56.9225 93.403 56.4922 93.0906 56.0838C92.7783 55.6766 92.345 55.3317 91.7932 55.0484C91.2396 54.7645 90.5224 54.6234 89.6423 54.6234H87.4303V62.4957H87.4291ZM85.9551 53.2821H89.749C90.5159 53.2821 91.1898 53.3663 91.7683 53.5352C92.3468 53.7041 92.8482 53.9293 93.2732 54.2138C93.6987 54.4972 94.052 54.8226 94.3335 55.1906C94.615 55.5575 94.8385 55.9351 95.0009 56.3239C95.1645 56.7109 95.283 57.0979 95.3547 57.4873C95.4264 57.8738 95.4626 58.2318 95.4626 58.5607C95.4626 59.2358 95.334 59.8884 95.0791 60.5208C94.8225 61.152 94.4438 61.7127 93.9423 62.2052C93.4403 62.6978 92.8186 63.0919 92.0765 63.3906C91.3332 63.6894 90.4768 63.8381 89.5024 63.8381H85.9557L85.9551 53.2821Z" fill="white"/>
<path d="M103.067 59.723C103.056 59.4249 103.007 59.1511 102.92 58.9033C102.833 58.6538 102.703 58.4386 102.529 58.2543C102.355 58.07 102.137 57.9254 101.876 57.8222C101.615 57.7179 101.31 57.6646 100.962 57.6646C100.624 57.6646 100.314 57.7262 100.033 57.8507C99.7505 57.9757 99.5129 58.1364 99.3191 58.3355C99.1235 58.5347 98.9723 58.7563 98.865 58.9993C98.7572 59.2424 98.7044 59.483 98.7044 59.7224H103.067V59.723ZM98.7044 60.7952C98.7044 61.104 98.7726 61.3844 98.9119 61.638C99.0494 61.8911 99.2319 62.1075 99.4572 62.2871C99.6824 62.4655 99.9432 62.6053 100.24 62.7037C100.537 62.8033 100.844 62.8537 101.162 62.8537C101.592 62.8537 101.965 62.7553 102.284 62.5627C102.601 62.3688 102.892 62.1128 103.16 61.7957L104.204 62.5704C103.436 63.5341 102.361 64.0166 100.979 64.0166C100.405 64.0166 99.8851 63.9217 99.4192 63.7327C98.9539 63.5442 98.5586 63.2828 98.2362 62.9503C97.9137 62.6166 97.6654 62.2248 97.4917 61.7732C97.3175 61.3204 97.231 60.8308 97.231 60.3039C97.231 59.777 97.3258 59.2874 97.5149 58.8358C97.7045 58.3835 97.9653 57.9906 98.2984 57.6587C98.6303 57.325 99.0274 57.0636 99.4892 56.8751C99.9491 56.6878 100.451 56.5912 100.994 56.5912C101.639 56.5912 102.184 56.7008 102.63 56.9201C103.075 57.1383 103.441 57.4245 103.729 57.7766C104.014 58.1293 104.222 58.5276 104.35 58.9697C104.479 59.4119 104.543 59.8617 104.543 60.3187V60.7952H98.7044Z" fill="white"/>
<path d="M105.755 56.7701H107.352L109.534 62.1821L111.623 56.7701H113.097L110.24 63.8375H108.72L105.755 56.7701Z" fill="white"/>
<path d="M120.148 59.723C120.137 59.4249 120.089 59.1511 120.001 58.9033C119.915 58.6538 119.784 58.4386 119.61 58.2543C119.436 58.07 119.218 57.9254 118.957 57.8222C118.696 57.7179 118.39 57.6646 118.043 57.6646C117.705 57.6646 117.395 57.7262 117.114 57.8507C116.832 57.9757 116.594 58.1364 116.4 58.3355C116.205 58.5347 116.053 58.7563 115.946 58.9993C115.838 59.2423 115.786 59.483 115.786 59.7224H120.148V59.723ZM115.785 60.7952C115.785 61.104 115.854 61.3844 115.992 61.638C116.13 61.8911 116.312 62.1075 116.538 62.2871C116.763 62.4655 117.024 62.6053 117.321 62.7037C117.618 62.8033 117.925 62.8537 118.243 62.8537C118.673 62.8537 119.047 62.7553 119.365 62.5627C119.681 62.3688 119.973 62.1128 120.24 61.7957L121.285 62.5704C120.517 63.5341 119.441 64.0166 118.06 64.0166C117.485 64.0166 116.966 63.9217 116.5 63.7327C116.035 63.5442 115.64 63.2828 115.317 62.9503C114.995 62.6166 114.747 62.2248 114.572 61.7732C114.398 61.3204 114.312 60.8308 114.312 60.3039C114.312 59.777 114.406 59.2874 114.595 58.8357C114.785 58.3835 115.046 57.9906 115.378 57.6586C115.711 57.325 116.108 57.0636 116.57 56.8751C117.03 56.6878 117.532 56.5912 118.075 56.5912C118.72 56.5912 119.265 56.7008 119.71 56.9201C120.156 57.1383 120.522 57.4245 120.809 57.7766C121.096 58.1287 121.303 58.5275 121.431 58.9697C121.559 59.4119 121.624 59.8617 121.624 60.3187V60.7952H115.785Z" fill="white"/>
<path d="M125.201 52.5649H123.818V63.8375H125.201V52.5649Z" fill="white"/>
<path d="M128.949 60.3038C128.949 60.6618 129.005 60.9925 129.117 61.2954C129.23 61.5976 129.388 61.8566 129.594 62.0712C129.799 62.284 130.05 62.4535 130.347 62.5774C130.644 62.7012 130.977 62.7635 131.346 62.7635C131.714 62.7635 132.047 62.7012 132.344 62.5774C132.641 62.4529 132.893 62.284 133.096 62.0712C133.302 61.8572 133.46 61.5976 133.574 61.2954C133.686 60.9925 133.743 60.6618 133.743 60.3038C133.743 59.9458 133.686 59.6162 133.574 59.3122C133.461 59.0081 133.302 58.7503 133.096 58.5375C132.893 58.3236 132.641 58.1546 132.344 58.0313C132.047 57.9063 131.714 57.8435 131.346 57.8435C130.977 57.8435 130.644 57.9063 130.347 58.0313C130.05 58.1546 129.799 58.3236 129.594 58.5375C129.388 58.7497 129.23 59.0081 129.117 59.3122C129.005 59.6162 128.949 59.9458 128.949 60.3038ZM127.474 60.3038C127.474 59.7875 127.574 59.3045 127.774 58.8576C127.974 58.4107 128.248 58.0177 128.596 57.6799C128.944 57.3426 129.354 57.0765 129.825 56.8827C130.295 56.6889 130.802 56.5917 131.345 56.5917C131.887 56.5917 132.395 56.6889 132.865 56.8827C133.336 57.0765 133.747 57.342 134.093 57.6799C134.442 58.0177 134.716 58.4107 134.916 58.8576C135.115 59.3051 135.215 59.7875 135.215 60.3038C135.215 60.82 135.115 61.3048 134.916 61.7571C134.716 62.2099 134.442 62.6029 134.093 62.9348C133.747 63.2685 133.336 63.531 132.865 63.7248C132.394 63.9187 131.887 64.0159 131.345 64.0159C130.802 64.0159 130.295 63.9187 129.825 63.7248C129.354 63.531 128.944 63.2685 128.596 62.9348C128.248 62.6023 127.974 62.2093 127.774 61.7571C127.574 61.3048 127.474 60.82 127.474 60.3038Z" fill="white"/>
<path d="M141.16 57.8435C140.792 57.8435 140.458 57.9051 140.162 58.0302C139.864 58.1546 139.613 58.3236 139.408 58.5375C139.204 58.7497 139.046 59.0081 138.934 59.3122C138.82 59.6163 138.764 59.9458 138.764 60.3038C138.764 60.6618 138.82 60.9913 138.934 61.2954C139.046 61.5988 139.204 61.8567 139.408 62.07C139.614 62.284 139.865 62.4529 140.162 62.5774C140.458 62.7024 140.792 62.7635 141.16 62.7635C141.528 62.7635 141.862 62.7019 142.159 62.5774C142.456 62.4529 142.707 62.284 142.912 62.07C143.117 61.8573 143.275 61.5988 143.388 61.2954C143.5 60.9913 143.557 60.6618 143.557 60.3038C143.557 59.9458 143.5 59.6163 143.388 59.3122C143.276 59.0081 143.117 58.7503 142.912 58.5375C142.707 58.3236 142.456 58.1546 142.159 58.0302C141.862 57.9051 141.528 57.8435 141.16 57.8435ZM137.381 56.7701H138.764V57.7842H138.794C139.061 57.4061 139.427 57.1139 139.893 56.9052C140.36 56.6966 140.837 56.5923 141.33 56.5923C141.893 56.5923 142.403 56.6859 142.858 56.8756C143.314 57.0641 143.703 57.3278 144.026 57.6651C144.348 58.0029 144.596 58.3982 144.771 58.8517C144.944 59.3033 145.031 59.7881 145.031 60.3044C145.031 60.8313 144.944 61.3209 144.771 61.7737C144.596 62.2259 144.348 62.6189 144.026 62.9508C143.703 63.2839 143.314 63.5447 142.858 63.7332C142.402 63.9216 141.893 64.0171 141.33 64.0171C140.807 64.0171 140.316 63.9098 139.855 63.6958C139.395 63.483 139.042 63.1914 138.795 62.8239H138.764V68.0427H137.382V56.7701H137.381Z" fill="white"/>
<path d="M147.197 56.7701H148.486V57.8737H148.518C148.549 57.7753 148.628 57.6491 148.756 57.5003C148.884 57.3521 149.047 57.2099 149.247 57.0759C149.447 56.942 149.682 56.8276 149.953 56.7333C150.224 56.6385 150.525 56.5917 150.853 56.5917C151.395 56.5917 151.851 56.7025 152.22 56.92C152.588 57.1381 152.89 57.4671 153.126 57.9027C153.361 57.4671 153.695 57.1381 154.125 56.92C154.555 56.7025 154.99 56.5917 155.43 56.5917C155.992 56.5917 156.454 56.6806 156.813 56.8596C157.171 57.0386 157.452 57.2751 157.658 57.5673C157.862 57.8607 158.003 58.1932 158.08 58.5666C158.156 58.9394 158.195 59.3246 158.195 59.7223V63.8369H156.813V59.9013C156.813 59.6328 156.795 59.3744 156.759 59.1249C156.723 58.8765 156.648 58.6578 156.535 58.4688C156.423 58.2803 156.265 58.1286 156.059 58.0153C155.854 57.901 155.584 57.8423 155.245 57.8423C154.581 57.8423 154.104 58.0426 153.817 58.4397C153.53 58.8362 153.386 59.3489 153.386 59.9742V63.8369H152.004V60.1396C152.004 59.8023 151.987 59.493 151.951 59.215C151.913 58.9358 151.843 58.6958 151.736 58.4913C151.628 58.2886 151.475 58.1286 151.275 58.0153C151.075 57.901 150.806 57.8423 150.469 57.8423C150.222 57.8423 149.985 57.8903 149.754 57.9845C149.524 58.0788 149.322 58.2198 149.147 58.4095C148.974 58.598 148.836 58.8392 148.733 59.1326C148.631 59.426 148.579 59.7709 148.579 60.1692V63.8369H147.197V56.7701H147.197Z" fill="white"/>
<path d="M166.122 59.723C166.111 59.4249 166.061 59.1511 165.975 58.9033C165.888 58.6538 165.758 58.4386 165.584 58.2543C165.409 58.07 165.191 57.9254 164.93 57.8222C164.67 57.7179 164.364 57.6646 164.016 57.6646C163.679 57.6646 163.368 57.7262 163.088 57.8507C162.805 57.9757 162.567 58.1364 162.374 58.3355C162.179 58.5347 162.027 58.7563 161.92 58.9993C161.812 59.2423 161.759 59.483 161.759 59.7224H166.122V59.723ZM161.759 60.7952C161.759 61.104 161.828 61.3844 161.966 61.638C162.104 61.8911 162.287 62.1075 162.512 62.2871C162.737 62.4655 162.998 62.6053 163.295 62.7037C163.593 62.8033 163.9 62.8537 164.217 62.8537C164.647 62.8537 165.021 62.7553 165.338 62.5627C165.655 62.3688 165.947 62.1128 166.214 61.7957L167.259 62.5704C166.49 63.5341 165.416 64.0166 164.034 64.0166C163.46 64.0166 162.94 63.9217 162.474 63.7327C162.009 63.5436 161.614 63.2828 161.291 62.9503C160.969 62.6166 160.72 62.2248 160.546 61.7732C160.372 61.3204 160.287 60.8308 160.287 60.3039C160.287 59.777 160.38 59.2874 160.57 58.8357C160.76 58.3835 161.021 57.9906 161.353 57.6586C161.687 57.325 162.083 57.0636 162.544 56.8751C163.005 56.6878 163.506 56.5912 164.049 56.5912C164.695 56.5912 165.24 56.7008 165.685 56.9201C166.131 57.1383 166.497 57.4245 166.784 57.7766C167.071 58.1287 167.278 58.5275 167.406 58.9697C167.534 59.4119 167.598 59.8617 167.598 60.3187V60.7952H161.759Z" fill="white"/>
<path d="M169.686 56.7701H171.067V57.8589H171.098C171.273 57.4819 171.575 57.1761 172.004 56.9426C172.435 56.7078 172.931 56.5917 173.494 56.5917C173.843 56.5917 174.178 56.6444 174.501 56.7476C174.823 56.8525 175.104 57.0131 175.345 57.2324C175.585 57.4511 175.778 57.7326 175.922 58.0752C176.065 58.4178 176.137 58.8238 176.137 59.2897V63.8375H174.754V59.6625C174.754 59.3347 174.709 59.0544 174.616 58.8196C174.524 58.5867 174.402 58.3976 174.247 58.2542C174.094 58.1096 173.917 58.0059 173.718 57.9407C173.517 57.8767 173.31 57.8435 173.095 57.8435C172.809 57.8435 172.542 57.8891 172.296 57.9786C172.051 58.0681 171.836 58.2092 171.651 58.4036C171.467 58.5974 171.323 58.8428 171.221 59.1415C171.118 59.439 171.067 59.7929 171.067 60.1994V63.838H169.685V56.7701H169.686Z" fill="white"/>
<path d="M182.557 57.933H180.575V61.1389C180.575 61.3381 180.58 61.5331 180.591 61.7281C180.601 61.9207 180.639 62.095 180.705 62.2485C180.772 62.4038 180.874 62.5271 181.012 62.6213C181.151 62.7161 181.352 62.7635 181.619 62.7635C181.783 62.7635 181.952 62.7487 182.126 62.7197C182.3 62.6895 182.458 62.6337 182.602 62.5549V63.7777C182.438 63.866 182.226 63.9294 181.965 63.9632C181.704 63.9987 181.502 64.0165 181.358 64.0165C180.826 64.0165 180.414 63.9448 180.121 63.7996C179.83 63.6561 179.615 63.4694 179.477 63.2418C179.338 63.0125 179.256 62.757 179.23 62.4737C179.205 62.1898 179.193 61.9041 179.193 61.6161V57.9336H177.595V56.7707H179.193V54.7881H180.575V56.7707H182.557V57.933Z" fill="white"/>
<path d="M0.549316 40.0073H1.94335L4.61999 46.0161H4.64251L7.34168 40.0073H8.70311V47.6721H7.76605V41.2419H7.74294L4.91041 47.6721H4.34083L1.50771 41.2419H1.48638V47.6721H0.549316V40.0073Z" fill="white"/>
<path d="M11.5914 45.139C11.5914 45.4063 11.6346 45.6529 11.72 45.8805C11.8059 46.1081 11.9304 46.3072 12.0946 46.4767C12.257 46.6462 12.4531 46.7796 12.679 46.8774C12.9054 46.9752 13.1608 47.0238 13.443 47.0238C13.7263 47.0238 13.9811 46.9752 14.2081 46.8774C14.434 46.7796 14.6301 46.6462 14.7937 46.4767C14.9555 46.3072 15.0818 46.1081 15.1665 45.8805C15.2525 45.6529 15.2951 45.4063 15.2951 45.139C15.2951 44.8723 15.2525 44.6251 15.1665 44.3975C15.0818 44.1705 14.9561 43.972 14.7937 43.8013C14.6301 43.6329 14.434 43.499 14.2081 43.4018C13.9811 43.3046 13.7263 43.2554 13.443 43.2554C13.1608 43.2554 12.9054 43.3046 12.679 43.4018C12.4531 43.499 12.257 43.6329 12.0946 43.8013C11.931 43.972 11.8059 44.1705 11.72 44.3975C11.6352 44.6251 11.5914 44.8723 11.5914 45.139ZM10.6543 45.139C10.6543 44.7425 10.7254 44.3815 10.8671 44.0567C11.0081 43.7313 11.2014 43.4522 11.4467 43.2175C11.6921 42.9833 11.9855 42.8014 12.3281 42.6716C12.6695 42.5406 13.0411 42.4754 13.443 42.4754C13.8454 42.4754 14.217 42.5406 14.559 42.6716C14.9004 42.8014 15.1944 42.9833 15.4398 43.2175C15.6851 43.4522 15.8784 43.7313 16.02 44.0567C16.1617 44.3815 16.2322 44.7425 16.2322 45.139C16.2322 45.5361 16.1617 45.8977 16.02 46.2225C15.879 46.5467 15.6857 46.827 15.4398 47.0611C15.1938 47.2953 14.9004 47.4772 14.559 47.6076C14.217 47.738 13.8454 47.802 13.443 47.802C13.0411 47.802 12.6695 47.738 12.3281 47.6076C11.9855 47.4772 11.6921 47.2958 11.4467 47.0611C11.202 46.8264 11.0087 46.5467 10.8671 46.2225C10.726 45.8977 10.6543 45.5361 10.6543 45.139Z" fill="white"/>
<path d="M18.0288 39.4882H18.8989V43.3087H18.9208C18.9807 43.2086 19.0625 43.109 19.1668 43.0118C19.2699 42.9146 19.3962 42.8263 19.5408 42.7474C19.6854 42.6674 19.8472 42.6022 20.0256 42.5518C20.2034 42.5015 20.3937 42.4766 20.5946 42.4766C20.9366 42.4766 21.2324 42.5269 21.4813 42.6277C21.7302 42.7291 21.9371 42.8695 22.1007 43.0503C22.2631 43.2311 22.3846 43.4492 22.4628 43.7046C22.541 43.9619 22.5802 44.241 22.5802 44.5433V47.6722H21.7095V44.6298C21.7095 44.2043 21.6123 43.8694 21.4185 43.6234C21.2258 43.3781 20.9247 43.2548 20.5164 43.2548C20.2331 43.2548 19.9901 43.3022 19.7862 43.3964C19.5805 43.4901 19.4134 43.6234 19.2836 43.7959C19.1538 43.9696 19.0566 44.1758 18.9943 44.4135C18.9309 44.6512 18.8989 44.9161 18.8989 45.2042V47.6722H18.0288V39.4882Z" fill="white"/>
<path d="M27.1316 45.2374C26.5738 45.2374 26.1311 45.3132 25.8039 45.4644C25.4761 45.6155 25.3137 45.865 25.3137 46.2118C25.3137 46.5289 25.4234 46.7547 25.6427 46.888C25.8614 47.022 26.1358 47.0884 26.4618 47.0884C26.7155 47.0884 26.9366 47.0475 27.1256 46.9639C27.3159 46.8803 27.4735 46.7713 27.6004 46.6338C27.7266 46.4963 27.8238 46.3362 27.8902 46.1519C27.9572 45.9682 27.9951 45.7702 28.0016 45.5616V45.2374H27.1316ZM24.6096 43.2554C24.8781 42.9881 25.1952 42.7925 25.5633 42.665C25.9319 42.5388 26.3065 42.4766 26.6852 42.4766C27.4581 42.4766 28.0159 42.6526 28.3584 43.007C28.7004 43.3597 28.8711 43.8979 28.8711 44.621V46.7962C28.8711 46.9414 28.8788 47.0913 28.8937 47.2454C28.9085 47.4007 28.928 47.5436 28.9494 47.6734H28.1125C28.0828 47.5584 28.0662 47.4304 28.0621 47.2893C28.0585 47.1488 28.0574 47.0244 28.0574 46.9159H28.0348C27.8635 47.1761 27.6342 47.3889 27.3497 47.5554C27.0628 47.7208 26.7184 47.8032 26.3166 47.8032C26.0499 47.8032 25.7986 47.7712 25.5633 47.7066C25.3297 47.642 25.1253 47.5453 24.951 47.4197C24.775 47.2935 24.6363 47.1364 24.532 46.9485C24.4276 46.7606 24.3755 46.5443 24.3755 46.2989C24.3755 45.8799 24.4869 45.5515 24.7098 45.3144C24.9326 45.075 25.2106 44.8989 25.5407 44.7828C25.8727 44.6684 26.2283 44.5955 26.6118 44.5676C26.9946 44.5386 27.3461 44.5243 27.6662 44.5243H28.0005V44.3726C28.0005 44.0046 27.8878 43.726 27.6596 43.5381C27.4332 43.3514 27.1155 43.2572 26.7066 43.2572C26.4239 43.2572 26.1471 43.3016 25.8756 43.3929C25.6042 43.4824 25.3653 43.6223 25.1567 43.8095L24.6096 43.2554Z" fill="white"/>
<path d="M30.9137 43.8078C30.9137 43.5772 30.9048 43.3609 30.8906 43.1576C30.8764 42.9555 30.8687 42.7723 30.8687 42.6052H31.6949C31.6949 42.7427 31.6984 42.8802 31.7055 43.0159C31.7127 43.1529 31.718 43.2951 31.718 43.4391H31.7393C31.7986 43.3159 31.8828 43.1973 31.99 43.0811C32.0985 42.9668 32.2259 42.863 32.3753 42.7723C32.5241 42.6828 32.69 42.6099 32.8767 42.556C33.0634 42.5015 33.2644 42.4754 33.4801 42.4754C33.7628 42.4754 33.9981 42.5092 34.1878 42.5774C34.3774 42.6467 34.5357 42.7297 34.6619 42.8269C34.7882 42.9247 34.8872 43.029 34.9583 43.1404C35.0288 43.2518 35.0857 43.3508 35.1308 43.4385C35.3234 43.1351 35.5468 42.8992 35.8005 42.7297C36.053 42.5602 36.3808 42.4754 36.782 42.4754C37.1537 42.4754 37.466 42.5228 37.7179 42.6206C37.9716 42.7184 38.1749 42.8589 38.3325 43.0432C38.4884 43.2275 38.5999 43.451 38.6662 43.7147C38.7326 43.9785 38.767 44.2725 38.767 44.5967V47.6716H37.8963V44.6405C37.8963 44.4669 37.8779 44.298 37.8406 44.1314C37.8033 43.9661 37.7363 43.8179 37.6391 43.6875C37.5431 43.5577 37.4121 43.4528 37.2497 43.3739C37.0861 43.2951 36.8775 43.2548 36.6244 43.2548C36.4389 43.2548 36.264 43.2921 36.101 43.3633C35.9374 43.4362 35.7928 43.5369 35.6713 43.6667C35.548 43.7965 35.4508 43.9536 35.3803 44.1379C35.3098 44.3223 35.2742 44.5262 35.2742 44.7496V47.6728H34.4035V44.8035C34.4035 44.2417 34.3253 43.8422 34.1688 43.6075C34.0135 43.3728 33.7575 43.2548 33.4001 43.2548C33.1168 43.2548 32.8738 43.3022 32.6699 43.3953C32.4642 43.4901 32.2971 43.6235 32.1673 43.7959C32.0369 43.9696 31.9403 44.1759 31.878 44.4135C31.8146 44.6512 31.7826 44.9156 31.7826 45.2042V47.6722H30.9131V43.8078H30.9137Z" fill="white"/>
<path d="M40.8622 43.8078C40.8622 43.5772 40.8545 43.3609 40.8409 43.1576C40.8261 42.9555 40.8184 42.7723 40.8184 42.6052H41.6434C41.6434 42.7427 41.6476 42.8802 41.6553 43.0159C41.6624 43.1529 41.6665 43.2951 41.6665 43.4391H41.6884C41.7483 43.3159 41.8313 43.1973 41.9397 43.0811C42.0476 42.9668 42.1756 42.863 42.3238 42.7723C42.4726 42.6828 42.6403 42.6099 42.827 42.556C43.0125 42.5015 43.2135 42.4754 43.4292 42.4754C43.7131 42.4754 43.9478 42.5092 44.1369 42.5774C44.3266 42.6467 44.4854 42.7297 44.6117 42.8269C44.7379 42.9247 44.8363 43.029 44.9074 43.1404C44.9773 43.2518 45.0354 43.3508 45.0799 43.4385C45.2731 43.1351 45.496 42.8992 45.7496 42.7297C46.0015 42.5602 46.3293 42.4754 46.7306 42.4754C47.1022 42.4754 47.4151 42.5228 47.6676 42.6206C47.9207 42.7184 48.1252 42.8589 48.2811 43.0432C48.4375 43.2275 48.5484 43.451 48.6153 43.7147C48.6829 43.9779 48.7155 44.2725 48.7155 44.5967V47.6716H47.8454V44.6405C47.8454 44.4669 47.8276 44.298 47.7903 44.1314C47.7518 43.9661 47.6854 43.8179 47.5894 43.6875C47.4922 43.5577 47.3618 43.4528 47.1988 43.3739C47.0352 43.2951 46.8266 43.2548 46.5735 43.2548C46.388 43.2548 46.2137 43.2921 46.0495 43.3633C45.886 43.4362 45.7419 43.5369 45.6198 43.6667C45.4971 43.7965 45.3999 43.9536 45.33 44.1379C45.2589 44.3223 45.2239 44.5262 45.2239 44.7496V47.6728H44.3532V44.8035C44.3532 44.2417 44.2756 43.8422 44.1191 43.6075C43.9626 43.3728 43.7066 43.2548 43.3492 43.2548C43.0665 43.2548 42.8223 43.3022 42.619 43.3953C42.4133 43.4901 42.2468 43.6235 42.1164 43.7959C41.986 43.9696 41.8894 44.1759 41.8265 44.4135C41.7637 44.6512 41.7323 44.9156 41.7323 45.2042V47.6722H40.8616L40.8622 43.8078Z" fill="white"/>
<path d="M54.7288 44.6844C54.7134 44.2511 54.5694 43.9056 54.2937 43.6448C54.0187 43.3852 53.6394 43.2548 53.1564 43.2548C52.6727 43.2548 52.2821 43.3858 51.9846 43.6448C51.687 43.905 51.508 44.2505 51.4494 44.6844H54.7288ZM55.4756 46.7517C55.1638 47.1423 54.8213 47.4144 54.4496 47.5703C54.078 47.7255 53.6471 47.8026 53.1558 47.8026C52.7468 47.8026 52.3781 47.7327 52.051 47.5922C51.7238 47.4517 51.4464 47.2626 51.22 47.0238C50.9936 46.7861 50.8181 46.5046 50.696 46.1792C50.574 45.8538 50.5117 45.5077 50.5117 45.1396C50.5117 44.7502 50.5787 44.391 50.7126 44.0632C50.8466 43.7343 51.0321 43.4534 51.2698 43.218C51.5075 42.9827 51.7908 42.8008 52.1179 42.6716C52.4445 42.5412 52.8019 42.4772 53.189 42.4772C53.5541 42.4772 53.8889 42.5364 54.1936 42.6556C54.4976 42.7741 54.7596 42.9472 54.9795 43.1748C55.1976 43.4024 55.3677 43.6804 55.4857 44.0087C55.6048 44.3371 55.6647 44.7105 55.6647 45.1301V45.3998H51.4488C51.4636 45.6161 51.5169 45.8242 51.61 46.0221C51.703 46.2213 51.824 46.3949 51.9721 46.5425C52.1209 46.6901 52.2963 46.8069 52.4967 46.894C52.697 46.9811 52.9175 47.0244 53.1552 47.0244C53.5345 47.0244 53.8534 46.9598 54.1136 46.83C54.3744 46.7002 54.6091 46.5087 54.8171 46.2556L55.4756 46.7517Z" fill="white"/>
<path d="M61.8004 45.139C61.8004 44.8723 61.7577 44.6251 61.6718 44.3981C61.587 44.1705 61.462 43.9714 61.2978 43.8018C61.1348 43.6329 60.9398 43.499 60.7128 43.4012C60.4864 43.304 60.2315 43.2548 59.9488 43.2548C59.6661 43.2548 59.4112 43.304 59.1848 43.4012C58.9584 43.499 58.7628 43.6329 58.5992 43.8018C58.4357 43.9714 58.3112 44.1705 58.2252 44.3981C58.1405 44.6251 58.0972 44.8723 58.0972 45.139C58.0972 45.4063 58.1405 45.654 58.2252 45.881C58.3112 46.1086 58.4351 46.3072 58.5992 46.4773C58.7628 46.6462 58.9584 46.7796 59.1848 46.8768C59.4112 46.974 59.6667 47.0232 59.9488 47.0232C60.2321 47.0232 60.4864 46.974 60.7128 46.8768C60.9398 46.7796 61.1348 46.6462 61.2978 46.4773C61.4614 46.3072 61.587 46.1086 61.6718 45.881C61.7577 45.654 61.8004 45.4063 61.8004 45.139ZM61.8004 46.7748H61.7779C61.6155 47.0629 61.3559 47.3059 61.0026 47.505C60.6494 47.703 60.2392 47.802 59.7704 47.802C59.4053 47.802 59.0639 47.7356 58.7445 47.6017C58.4244 47.4683 58.147 47.2834 57.9129 47.0439C57.6782 46.8062 57.4944 46.5247 57.3611 46.1999C57.2271 45.8757 57.1602 45.5219 57.1602 45.139C57.1602 44.7561 57.2271 44.404 57.3611 44.078C57.4944 43.7532 57.6811 43.4717 57.9188 43.234C58.1559 42.9958 58.4451 42.8097 58.783 42.6763C59.1208 42.5429 59.4948 42.4766 59.9044 42.4766C60.2837 42.4766 60.631 42.5518 60.9475 42.703C61.2634 42.8559 61.5402 43.0669 61.7779 43.3425H61.8004V39.4882H62.6705V47.6728H61.8004V46.7748Z" fill="white"/>
<path d="M69.3634 46.8281H70.9483C71.1789 46.8281 71.4071 46.805 71.6341 46.7582C71.8605 46.712 72.065 46.6355 72.2475 46.5306C72.4301 46.4263 72.5765 46.2888 72.6873 46.1199C72.7999 45.9497 72.855 45.7417 72.855 45.4975C72.855 45.2302 72.8011 45.0062 72.6944 44.826C72.586 44.6446 72.4443 44.5006 72.2695 44.3927C72.0946 44.2848 71.8943 44.2084 71.6667 44.1651C71.4397 44.1219 71.2079 44.1005 70.9691 44.1005H69.3628V46.8281H69.3634ZM69.3634 43.2553H70.6579C70.8807 43.2553 71.0989 43.2411 71.3111 43.2121C71.5232 43.183 71.7141 43.1237 71.8866 43.0337C72.0561 42.9436 72.1942 42.8167 72.2979 42.6549C72.4016 42.4919 72.4544 42.2768 72.4544 42.0107C72.4544 41.7718 72.4052 41.5786 72.3092 41.4304C72.2126 41.2834 72.0839 41.1661 71.9251 41.0789C71.7651 40.9924 71.5831 40.9331 71.3786 40.8999C71.1735 40.8667 70.9679 40.8513 70.7592 40.8513H69.364L69.3634 43.2553ZM68.4264 40.0073H70.8357C71.1635 40.0073 71.4835 40.0399 71.7953 40.1051C72.107 40.1697 72.3868 40.277 72.6322 40.4246C72.8776 40.5728 73.0755 40.7654 73.2296 41.0037C73.3808 41.2419 73.4578 41.5377 73.4578 41.8921C73.4578 42.339 73.3328 42.7089 73.0838 43.0005C72.8355 43.2939 72.4976 43.5007 72.0744 43.624V43.6453C72.3281 43.6667 72.5628 43.7307 72.7821 43.835C73.0014 43.9405 73.1905 44.075 73.3517 44.2416C73.5118 44.4069 73.6362 44.6002 73.7251 44.8212C73.814 45.0405 73.8591 45.2776 73.8591 45.5295C73.8591 45.9563 73.769 46.3054 73.5864 46.5792C73.4033 46.8542 73.1656 47.0717 72.8722 47.2341C72.5788 47.3965 72.2475 47.5097 71.8795 47.5755C71.5114 47.6407 71.1451 47.6721 70.7806 47.6721H68.4258L68.4264 40.0073Z" fill="white"/>
<path d="M75.823 42.6063H76.6937V47.6727H75.823V42.6063ZM75.6221 40.6243C75.6221 40.459 75.6837 40.3149 75.8058 40.1917C75.9291 40.069 76.0796 40.0073 76.2586 40.0073C76.4364 40.0073 76.587 40.069 76.7103 40.1917C76.833 40.3149 76.894 40.459 76.894 40.6243C76.894 40.8057 76.8341 40.9533 76.7156 41.0694C76.5965 41.1838 76.4447 41.2419 76.2586 41.2419C76.0725 41.2419 75.9196 41.1838 75.8011 41.0694C75.6807 40.9533 75.6221 40.8057 75.6221 40.6243Z" fill="white"/>
<path d="M78.8672 43.8078C78.8672 43.5772 78.8589 43.3609 78.8453 43.1576C78.8305 42.9555 78.8228 42.7723 78.8228 42.6052H79.649C79.649 42.7427 79.6525 42.8802 79.6597 43.0159C79.6674 43.1529 79.6721 43.2951 79.6721 43.4391H79.694C79.7533 43.3159 79.8369 43.1973 79.9447 43.0811C80.0526 42.9668 80.1806 42.863 80.33 42.7723C80.4782 42.6828 80.6447 42.6099 80.8314 42.556C81.0169 42.5015 81.2179 42.4754 81.4336 42.4754C81.7756 42.4754 82.0719 42.5258 82.3209 42.6265C82.5704 42.7279 82.7767 42.8684 82.9403 43.0491C83.1027 43.2299 83.2242 43.448 83.3024 43.7035C83.3806 43.9607 83.4203 44.2399 83.4203 44.5422V47.671H82.5497V44.6287C82.5497 44.2031 82.4525 43.8677 82.2587 43.6223C82.066 43.3769 81.7649 43.2536 81.356 43.2536C81.0732 43.2536 80.8296 43.301 80.6252 43.3941C80.4195 43.4889 80.2535 43.6223 80.1237 43.7948C79.9933 43.9684 79.8961 44.1747 79.8333 44.4124C79.7705 44.65 79.7385 44.9144 79.7385 45.203V47.671H78.8684V43.8078H78.8672Z" fill="white"/>
<path d="M90.1563 43.3857H90.9926C91.2522 43.3857 91.5225 43.378 91.801 43.3638C92.0796 43.3496 92.3369 43.3021 92.5716 43.2227C92.8063 43.1439 92.9989 43.0194 93.1518 42.8493C93.3041 42.6798 93.38 42.4362 93.38 42.1191C93.38 41.8441 93.3249 41.6248 93.2135 41.4588C93.102 41.2929 92.955 41.1643 92.7725 41.0742C92.5905 40.9847 92.386 40.9248 92.159 40.8958C91.9326 40.8667 91.7033 40.8525 91.4733 40.8525H90.1569L90.1563 43.3857ZM89.2192 40.0073H91.2386C91.6185 40.0073 91.9943 40.0293 92.3706 40.0725C92.7464 40.1152 93.0819 40.2094 93.3794 40.3535C93.6775 40.4987 93.9194 40.7103 94.1055 40.9871C94.291 41.265 94.3846 41.6414 94.3846 42.1185C94.3846 42.6822 94.2086 43.1362 93.8595 43.4823C93.5104 43.8291 93.0273 44.0495 92.4092 44.1432L94.6514 47.6721H93.5027L91.3613 44.2291H90.1563V47.6721H89.2192V40.0073Z" fill="white"/>
<path d="M98.7793 45.2374C98.2216 45.2374 97.7788 45.3132 97.4522 45.4644C97.1257 45.6155 96.9621 45.865 96.9621 46.2118C96.9621 46.5289 97.0717 46.7547 97.291 46.888C97.5103 47.022 97.7836 47.0884 98.1107 47.0884C98.3638 47.0884 98.5849 47.0475 98.7745 46.9639C98.9636 46.8803 99.1219 46.7713 99.2487 46.6338C99.375 46.4963 99.4722 46.3362 99.5385 46.1519C99.6055 45.9682 99.6429 45.7702 99.65 45.5616V45.2374H98.7793ZM96.2579 43.2554C96.5258 42.9881 96.8435 42.7925 97.2122 42.665C97.5803 42.5388 97.9548 42.4766 98.3336 42.4766C99.1065 42.4766 99.6642 42.6526 100.007 43.007C100.349 43.3597 100.519 43.8979 100.519 44.621V46.7962C100.519 46.9414 100.527 47.0913 100.542 47.2454C100.556 47.4007 100.576 47.5436 100.598 47.6734H99.7614C99.7318 47.5584 99.7146 47.4304 99.711 47.2893C99.7069 47.1488 99.7057 47.0244 99.7057 46.9159H99.6832C99.5113 47.1761 99.2831 47.3889 98.9974 47.5554C98.7117 47.7208 98.3668 47.8032 97.9649 47.8032C97.6982 47.8032 97.4475 47.7712 97.2122 47.7066C96.9775 47.642 96.7736 47.5453 96.5987 47.4197C96.4239 47.2935 96.2846 47.1364 96.1803 46.9485C96.0766 46.7606 96.0244 46.5443 96.0244 46.2989C96.0244 45.8799 96.1358 45.5515 96.3581 45.3144C96.5821 45.075 96.8589 44.8989 97.1897 44.7828C97.5204 44.6684 97.8766 44.5955 98.2607 44.5676C98.6436 44.5386 98.9944 44.5243 99.3145 44.5243H99.6488V44.3726C99.6488 44.0046 99.5356 43.726 99.308 43.5381C99.0822 43.3514 98.7639 43.2572 98.3555 43.2572C98.0728 43.2572 97.796 43.3016 97.5245 43.3929C97.2525 43.4824 97.0136 43.6223 96.805 43.8095L96.2579 43.2554Z" fill="white"/>
<path d="M102.673 46.341C102.843 46.5502 103.031 46.7162 103.235 46.84C103.44 46.9615 103.699 47.0232 104.011 47.0232C104.145 47.0232 104.281 47.009 104.418 46.9799C104.556 46.9509 104.681 46.9046 104.792 46.8406C104.903 46.7754 104.993 46.6936 105.06 46.5952C105.126 46.498 105.161 46.3807 105.161 46.2438C105.161 46.1069 105.129 45.9948 105.066 45.9083C105.002 45.8218 104.919 45.7483 104.815 45.6866C104.71 45.6256 104.591 45.577 104.457 45.5408C104.324 45.5041 104.186 45.4727 104.045 45.4436C103.799 45.3921 103.565 45.3352 103.341 45.27C103.119 45.2048 102.924 45.1212 102.757 45.0151C102.589 44.9102 102.455 44.7762 102.355 44.6091C102.254 44.4432 102.204 44.2298 102.204 43.9708C102.204 43.7248 102.26 43.5085 102.371 43.3206C102.482 43.1333 102.632 42.978 102.818 42.8553C103.003 42.732 103.212 42.6384 103.442 42.5732C103.673 42.5086 103.91 42.4766 104.156 42.4766C104.528 42.4766 104.871 42.5483 105.188 42.6923C105.504 42.8363 105.752 43.071 105.93 43.3958L105.205 43.8623C105.093 43.6815 104.946 43.5357 104.763 43.4231C104.581 43.3117 104.36 43.256 104.1 43.256C103.981 43.256 103.861 43.2702 103.738 43.2992C103.615 43.3283 103.505 43.371 103.409 43.429C103.312 43.4871 103.232 43.5618 103.169 43.6507C103.106 43.7414 103.074 43.8439 103.074 43.9595C103.074 44.0674 103.11 44.1592 103.18 44.2351C103.25 44.3122 103.348 44.3785 103.47 44.4354C103.592 44.4935 103.733 44.5445 103.894 44.5878C104.055 44.6304 104.219 44.6672 104.391 44.6962C104.621 44.7389 104.841 44.7946 105.049 44.864C105.257 44.9333 105.439 45.0246 105.595 45.1396C105.752 45.2557 105.875 45.3998 105.963 45.5722C106.052 45.7453 106.098 45.9581 106.098 46.2118C106.098 46.4998 106.038 46.7452 105.919 46.9473C105.8 47.1494 105.641 47.3136 105.445 47.4398C105.247 47.5667 105.024 47.658 104.775 47.716C104.526 47.7741 104.271 47.8026 104.011 47.8026C103.565 47.8026 103.18 47.7362 102.856 47.6028C102.533 47.4695 102.241 47.2217 101.981 46.8608L102.673 46.341Z" fill="white"/>
<path d="M107.759 39.4882H108.629V43.3087H108.652C108.711 43.2086 108.792 43.109 108.897 43.0118C109 42.9146 109.126 42.8263 109.271 42.7474C109.416 42.6674 109.578 42.6022 109.756 42.5518C109.933 42.5015 110.124 42.4766 110.324 42.4766C110.666 42.4766 110.962 42.5269 111.211 42.6277C111.461 42.7291 111.667 42.8695 111.831 43.0503C111.994 43.2311 112.115 43.4492 112.193 43.7046C112.272 43.9619 112.31 44.241 112.31 44.5433V47.6722H111.44V44.6298C111.44 44.2043 111.343 43.8694 111.15 43.6234C110.956 43.3781 110.655 43.2548 110.246 43.2548C109.964 43.2548 109.72 43.3022 109.516 43.3964C109.311 43.4901 109.144 43.6234 109.014 43.7959C108.884 43.9696 108.787 44.1758 108.724 44.4135C108.661 44.6512 108.629 44.9161 108.629 45.2042V47.6722H107.759V39.4882Z" fill="white"/>
<path d="M114.486 42.6063H115.357V47.6727H114.486V42.6063ZM114.285 40.6243C114.285 40.459 114.346 40.3149 114.469 40.1917C114.592 40.069 114.742 40.0073 114.922 40.0073C115.1 40.0073 115.25 40.069 115.373 40.1917C115.496 40.3149 115.558 40.459 115.558 40.6243C115.558 40.8057 115.497 40.9533 115.378 41.0694C115.26 41.1838 115.108 41.2419 114.922 41.2419C114.736 41.2419 114.582 41.1838 114.464 41.0694C114.345 40.9533 114.285 40.8057 114.285 40.6243Z" fill="white"/>
<path d="M121.871 45.139C121.871 44.8723 121.827 44.6251 121.742 44.3981C121.657 44.1705 121.532 43.9714 121.368 43.8018C121.205 43.6329 121.01 43.499 120.783 43.4012C120.556 43.304 120.301 43.2548 120.019 43.2548C119.737 43.2548 119.482 43.304 119.255 43.4012C119.028 43.499 118.833 43.6329 118.67 43.8018C118.506 43.9714 118.381 44.1705 118.296 44.3981C118.21 44.6251 118.167 44.8723 118.167 45.139C118.167 45.4063 118.21 45.654 118.296 45.881C118.381 46.1086 118.505 46.3072 118.67 46.4773C118.833 46.6462 119.028 46.7796 119.255 46.8768C119.482 46.974 119.737 47.0232 120.019 47.0232C120.302 47.0232 120.556 46.974 120.783 46.8768C121.01 46.7796 121.205 46.6462 121.368 46.4773C121.532 46.3072 121.657 46.1086 121.742 45.881C121.827 45.654 121.871 45.4063 121.871 45.139ZM121.871 46.7748H121.848C121.685 47.0629 121.426 47.3059 121.073 47.505C120.72 47.703 120.309 47.802 119.841 47.802C119.476 47.802 119.134 47.7356 118.814 47.6017C118.494 47.4683 118.217 47.2834 117.983 47.0439C117.749 46.8062 117.565 46.5247 117.431 46.1999C117.297 45.8757 117.23 45.5219 117.23 45.139C117.23 44.7561 117.297 44.404 117.431 44.078C117.565 43.7532 117.751 43.4717 117.989 43.234C118.226 42.9958 118.515 42.8097 118.853 42.6763C119.191 42.5429 119.565 42.4766 119.975 42.4766C120.354 42.4766 120.701 42.5518 121.017 42.703C121.333 42.8559 121.61 43.0669 121.848 43.3425H121.871V39.4882H122.74V47.6728H121.871V46.7748Z" fill="white"/>
<path d="M134.029 41.5881C133.792 41.2775 133.498 41.0452 133.149 40.8905C132.799 40.734 132.435 40.6569 132.056 40.6569C131.617 40.6569 131.213 40.7435 130.845 40.9166C130.477 41.089 130.159 41.3237 129.891 41.6159C129.624 41.9076 129.415 42.2472 129.266 42.6336C129.117 43.0195 129.044 43.4213 129.044 43.8404C129.044 44.2878 129.117 44.7045 129.266 45.0904C129.415 45.4768 129.621 45.8123 129.886 46.0974C130.15 46.3824 130.466 46.6077 130.834 46.7736C131.202 46.9408 131.609 47.0238 132.056 47.0238C132.539 47.0238 132.971 46.9313 133.35 46.747C133.73 46.5626 134.06 46.2983 134.344 45.9504L135.046 46.5247C134.689 46.987 134.26 47.3266 133.757 47.543C133.255 47.7593 132.688 47.8678 132.057 47.8678C131.491 47.8678 130.963 47.7664 130.473 47.5643C129.981 47.3628 129.556 47.083 129.195 46.7256C128.834 46.3682 128.552 45.9444 128.347 45.4531C128.143 44.9629 128.04 44.4253 128.04 43.8404C128.04 43.2773 128.139 42.7498 128.336 42.259C128.533 41.7695 128.81 41.3427 129.166 40.9812C129.524 40.6214 129.947 40.3363 130.438 40.1277C130.93 39.9179 131.468 39.8135 132.056 39.8135C132.591 39.8135 133.107 39.9072 133.601 40.0951C134.095 40.283 134.509 40.5894 134.844 41.0155L134.029 41.5881Z" fill="white"/>
<path d="M140.555 44.6844C140.54 44.2511 140.394 43.9056 140.12 43.6448C139.844 43.3852 139.465 43.2548 138.982 43.2548C138.498 43.2548 138.108 43.3858 137.811 43.6448C137.513 43.905 137.334 44.2505 137.276 44.6844H140.555ZM141.302 46.7517C140.99 47.1423 140.648 47.4144 140.276 47.5703C139.905 47.7255 139.473 47.8026 138.982 47.8026C138.572 47.8026 138.204 47.7327 137.878 47.5922C137.55 47.4517 137.273 47.2626 137.046 47.0238C136.82 46.7861 136.644 46.5046 136.522 46.1792C136.4 45.8538 136.338 45.5077 136.338 45.1396C136.338 44.7502 136.405 44.391 136.539 44.0632C136.672 43.7343 136.858 43.4534 137.097 43.218C137.334 42.9833 137.618 42.8008 137.944 42.6716C138.271 42.5412 138.628 42.4772 139.015 42.4772C139.38 42.4772 139.715 42.5364 140.02 42.6556C140.324 42.7741 140.586 42.9472 140.806 43.1748C141.024 43.4024 141.194 43.6804 141.312 44.0087C141.432 44.3371 141.491 44.7105 141.491 45.1301V45.3998H137.276C137.29 45.6161 137.343 45.8242 137.436 46.0221C137.529 46.2213 137.65 46.3949 137.798 46.5425C137.948 46.6901 138.122 46.8069 138.323 46.894C138.524 46.9811 138.743 47.0244 138.981 47.0244C139.361 47.0244 139.68 46.9598 139.94 46.83C140.201 46.7002 140.435 46.5087 140.643 46.2556L141.302 46.7517Z" fill="white"/>
<path d="M143.288 43.8078C143.288 43.5772 143.28 43.3609 143.266 43.1576C143.251 42.9555 143.244 42.7723 143.244 42.6052H144.07C144.07 42.7427 144.073 42.8802 144.081 43.0159C144.089 43.1529 144.093 43.2951 144.093 43.4391H144.115C144.175 43.3159 144.258 43.1973 144.366 43.0811C144.474 42.9668 144.602 42.863 144.75 42.7723C144.899 42.6828 145.066 42.6099 145.252 42.556C145.438 42.5015 145.639 42.4754 145.855 42.4754C146.197 42.4754 146.493 42.5258 146.742 42.6265C146.991 42.7279 147.198 42.8684 147.361 43.0491C147.524 43.2299 147.645 43.448 147.724 43.7035C147.802 43.9607 147.841 44.2399 147.841 44.5422V47.671H146.971V44.6287C146.971 44.2031 146.873 43.8677 146.68 43.6223C146.487 43.3769 146.186 43.2536 145.777 43.2536C145.494 43.2536 145.251 43.301 145.047 43.3941C144.841 43.4889 144.674 43.6223 144.544 43.7948C144.414 43.9684 144.317 44.1747 144.255 44.4124C144.191 44.65 144.159 44.9144 144.159 45.203V47.671H143.289V43.8078H143.288Z" fill="white"/>
<path d="M152.791 43.3205H151.253V45.8532C151.253 46.0197 151.256 46.1732 151.263 46.3131C151.271 46.4542 151.301 46.5774 151.353 46.6824C151.405 46.7861 151.483 46.8696 151.587 46.9301C151.691 46.9917 151.84 47.0226 152.033 47.0226C152.16 47.0226 152.29 47.0083 152.425 46.9793C152.557 46.9503 152.684 46.9076 152.803 46.8495L152.838 47.6182C152.688 47.6834 152.523 47.7297 152.34 47.7587C152.158 47.7883 151.985 47.8014 151.821 47.8014C151.51 47.8014 151.261 47.7628 151.074 47.6834C150.888 47.604 150.742 47.492 150.64 47.348C150.535 47.2039 150.467 47.0243 150.433 46.8122C150.399 46.5988 150.383 46.3623 150.383 46.1033V43.3205H149.244V42.6063H150.383V41.1661H151.253V42.6063H152.792V43.3205H152.791Z" fill="white"/>
<path d="M158.224 44.6844C158.209 44.2511 158.064 43.9056 157.789 43.6448C157.513 43.3852 157.134 43.2548 156.651 43.2548C156.168 43.2548 155.777 43.3858 155.48 43.6448C155.183 43.905 155.004 44.2505 154.945 44.6844H158.224ZM158.972 46.7517C158.659 47.1423 158.317 47.4144 157.946 47.5703C157.574 47.7255 157.143 47.8026 156.651 47.8026C156.242 47.8026 155.874 47.7327 155.547 47.5922C155.219 47.4517 154.942 47.2626 154.716 47.0238C154.49 46.7861 154.314 46.5046 154.192 46.1792C154.069 45.8538 154.007 45.5077 154.007 45.1396C154.007 44.7502 154.074 44.391 154.208 44.0632C154.342 43.7343 154.527 43.4534 154.766 43.218C155.004 42.9833 155.287 42.8008 155.614 42.6716C155.941 42.5412 156.298 42.4772 156.685 42.4772C157.049 42.4772 157.385 42.5364 157.689 42.6556C157.994 42.7741 158.255 42.9472 158.475 43.1748C158.694 43.4024 158.863 43.6804 158.982 44.0087C159.1 44.3371 159.161 44.7105 159.161 45.1301V45.3998H154.945C154.959 45.6161 155.013 45.8242 155.106 46.0221C155.198 46.2213 155.32 46.3949 155.468 46.5425C155.617 46.6901 155.791 46.8069 155.992 46.894C156.193 46.9811 156.413 47.0244 156.651 47.0244C157.03 47.0244 157.349 46.9598 157.61 46.83C157.871 46.7002 158.104 46.5087 158.313 46.2556L158.972 46.7517Z" fill="white"/>
<path d="M160.958 43.8078C160.958 43.5772 160.949 43.3609 160.936 43.1576C160.921 42.9555 160.913 42.7723 160.913 42.6052H161.739C161.739 42.7427 161.743 42.8802 161.75 43.0159C161.757 43.1529 161.762 43.2951 161.762 43.4391H161.783C161.844 43.3159 161.927 43.1973 162.035 43.0811C162.143 42.9668 162.271 42.863 162.419 42.7723C162.568 42.6828 162.735 42.6099 162.922 42.556C163.107 42.5015 163.308 42.4754 163.524 42.4754C163.583 42.4754 163.644 42.479 163.703 42.4861C163.762 42.4932 163.822 42.5068 163.881 42.5293L163.825 43.384C163.676 43.3408 163.52 43.3194 163.357 43.3194C162.822 43.3194 162.433 43.4871 162.191 43.8232C161.949 44.1593 161.828 44.6192 161.828 45.2036V47.6716H160.959V43.8078H160.958Z" fill="white"/>
<path d="M169.323 43.3206H168.186V42.6064H169.323V41.4684C169.323 41.1596 169.353 40.8751 169.413 40.6196C169.473 40.363 169.574 40.1407 169.72 39.9529C169.865 39.7656 170.057 39.6192 170.294 39.5149C170.532 39.4105 170.825 39.3578 171.175 39.3578C171.286 39.3578 171.406 39.3685 171.533 39.3904C171.659 39.4123 171.764 39.4449 171.845 39.4882L171.723 40.2457C171.514 40.1733 171.316 40.1372 171.131 40.1372C170.908 40.1372 170.733 40.1745 170.607 40.2504C170.48 40.3269 170.385 40.4312 170.323 40.5645C170.259 40.6985 170.222 40.8579 170.211 41.0458C170.199 41.2337 170.195 41.4358 170.195 41.6521V42.6052H171.467V43.3194H170.195V47.6716H169.324V43.3206H169.323Z" fill="white"/>
<path d="M173.473 45.139C173.473 45.4063 173.515 45.6529 173.601 45.8805C173.687 46.1081 173.811 46.3072 173.975 46.4767C174.138 46.6462 174.334 46.7796 174.56 46.8774C174.787 46.9752 175.042 47.0238 175.324 47.0238C175.607 47.0238 175.862 46.9752 176.088 46.8774C176.315 46.7796 176.511 46.6462 176.674 46.4767C176.837 46.3072 176.963 46.1081 177.048 45.8805C177.133 45.6529 177.176 45.4063 177.176 45.139C177.176 44.8723 177.133 44.6251 177.048 44.3975C176.963 44.1705 176.838 43.972 176.674 43.8013C176.511 43.6329 176.315 43.499 176.088 43.4018C175.862 43.3046 175.606 43.2554 175.324 43.2554C175.042 43.2554 174.787 43.3046 174.56 43.4018C174.334 43.499 174.138 43.6329 173.975 43.8013C173.812 43.972 173.687 44.1705 173.601 44.3975C173.516 44.6251 173.473 44.8723 173.473 45.139ZM172.536 45.139C172.536 44.7425 172.607 44.3815 172.748 44.0567C172.888 43.7313 173.082 43.4522 173.327 43.2175C173.573 42.9833 173.866 42.8014 174.209 42.6716C174.551 42.5406 174.922 42.4754 175.324 42.4754C175.727 42.4754 176.098 42.5406 176.44 42.6716C176.782 42.8014 177.076 42.9833 177.321 43.2175C177.566 43.4522 177.759 43.7313 177.901 44.0567C178.042 44.3815 178.113 44.7425 178.113 45.139C178.113 45.5361 178.042 45.8977 177.901 46.2225C177.76 46.5467 177.566 46.827 177.321 47.0611C177.076 47.2958 176.782 47.4772 176.44 47.6076C176.098 47.738 175.727 47.802 175.324 47.802C174.922 47.802 174.551 47.738 174.209 47.6076C173.866 47.4772 173.573 47.2958 173.327 47.0611C173.082 46.8264 172.889 46.5467 172.748 46.2225C172.607 45.8977 172.536 45.5361 172.536 45.139Z" fill="white"/>
<path d="M179.909 43.8078C179.909 43.5772 179.901 43.3609 179.887 43.1576C179.873 42.9555 179.865 42.7723 179.865 42.6052H180.691C180.691 42.7427 180.694 42.8802 180.702 43.0159C180.709 43.1529 180.714 43.2951 180.714 43.4391H180.736C180.795 43.3159 180.879 43.1973 180.987 43.0811C181.095 42.9668 181.223 42.863 181.371 42.7723C181.52 42.6828 181.687 42.6099 181.873 42.556C182.059 42.5015 182.26 42.4754 182.476 42.4754C182.536 42.4754 182.595 42.479 182.655 42.4861C182.714 42.4932 182.773 42.5068 182.834 42.5293L182.778 43.384C182.629 43.3408 182.472 43.3194 182.309 43.3194C181.773 43.3194 181.385 43.4871 181.143 43.8232C180.901 44.1593 180.78 44.6192 180.78 45.2036V47.6716H179.91V43.8078H179.909Z" fill="white"/>
<path d="M3.54554 22.8131C3.54554 22.7254 3.57992 22.6525 3.64867 22.595C3.71683 22.5369 3.79151 22.5085 3.87508 22.5085H4.83289C4.92416 22.5085 4.99884 22.5369 5.05871 22.595C5.11857 22.6525 5.14702 22.7254 5.14702 22.8131V23.8504C5.14702 23.9298 5.11798 23.9979 5.05871 24.0566C4.99884 24.1135 4.92416 24.1426 4.83289 24.1426H3.87508C3.79151 24.1426 3.71683 24.1135 3.64867 24.0566C3.57992 23.9979 3.54554 23.9298 3.54554 23.8504V22.8131ZM1.72476 28.7793C1.72476 29.2854 1.83915 29.6588 2.06734 29.9024C2.29494 30.146 2.66953 30.2681 3.19051 30.2681H3.67653C3.86264 30.2681 4.0197 30.2634 4.14832 30.2545V27.0261C4.0197 27.0083 3.90116 26.9976 3.79151 26.9923C3.68186 26.9881 3.54139 26.9869 3.36832 26.9869C2.81059 26.9869 2.39807 27.1274 2.12839 27.4107C1.85871 27.6946 1.72417 28.0929 1.72417 28.6074V28.7793H1.72476ZM1.01293 22.8131C1.01293 22.7254 1.04493 22.6525 1.10835 22.595C1.17236 22.5369 1.24941 22.5085 1.34188 22.5085H2.28664C2.37733 22.5085 2.45793 22.5369 2.52609 22.595C2.59485 22.6525 2.62863 22.7254 2.62863 22.8131V23.8504C2.62863 23.9298 2.59129 23.9979 2.51957 24.0566C2.44608 24.1135 2.36844 24.1426 2.28605 24.1426H1.34128C1.24941 24.1426 1.17236 24.1135 1.10776 24.0566C1.04434 23.9979 1.01233 23.9298 1.01233 23.8504L1.01293 22.8131ZM0 28.7265C0 27.6822 0.298722 26.8731 0.89735 26.3018C1.4942 25.731 2.39511 25.4447 3.60066 25.4447C3.78381 25.4447 3.97288 25.4518 4.16906 25.4655C4.36525 25.4779 4.55432 25.4939 4.73687 25.5117C4.92002 25.5289 5.09131 25.5508 5.25074 25.5769C5.40959 25.6036 5.53998 25.6356 5.64074 25.67C5.74091 25.7061 5.80492 25.7387 5.83278 25.7695C5.86004 25.8015 5.87249 25.8519 5.87249 25.923V29.5765C5.87249 29.8687 5.8713 30.197 5.86656 30.5603C5.86123 30.9231 5.84107 31.2686 5.80492 31.5964C5.80492 31.6942 5.77766 31.76 5.72253 31.7961C5.66801 31.8317 5.59392 31.853 5.50383 31.8619C5.11087 31.8791 4.75287 31.8933 4.42926 31.9016C4.10564 31.9099 3.7921 31.9147 3.49101 31.9147H3.21718C2.17699 31.9147 1.3804 31.6681 0.828597 31.1773C0.276199 30.686 0.000592376 29.957 0.000592376 28.9915L0 28.7265Z" fill="white"/>
<path d="M7.52989 30.4536C7.52989 30.3831 7.55715 30.3256 7.61228 30.2817C7.6674 30.2373 7.73082 30.2153 7.80431 30.2153H11.3765L11.3493 29.0056C11.3315 28.6791 11.2781 28.3886 11.1916 28.1361C11.1051 27.8825 10.9687 27.6679 10.7815 27.4907C10.5942 27.3141 10.3523 27.1795 10.0554 27.0865C9.75845 26.9922 9.39631 26.946 8.96778 26.946H8.80301H8.56949C8.4871 26.946 8.4059 26.9478 8.32411 26.9531C8.24173 26.9584 8.17356 26.965 8.11844 26.9727C7.94419 26.9727 7.85825 26.9081 7.85825 26.7753V25.8003C7.85825 25.7304 7.8784 25.6699 7.91989 25.6219C7.96138 25.5739 8.03191 25.5407 8.13267 25.5235C8.38812 25.4802 8.64239 25.4536 8.89844 25.4441C9.15449 25.4358 9.34593 25.4316 9.47454 25.4316C10.1496 25.4316 10.7127 25.5294 11.1643 25.7233C11.6172 25.9177 11.9775 26.1784 12.246 26.505C12.5151 26.8328 12.7119 27.2103 12.8352 27.6389C12.9584 28.068 13.029 28.5155 13.0468 28.9849C13.0468 29.0554 13.0491 29.1568 13.0545 29.2889C13.058 29.4223 13.0634 29.5687 13.0675 29.7275C13.0717 29.8864 13.0746 30.0435 13.0746 30.1981V30.5757C13.0746 30.6996 13.0717 30.872 13.0675 31.0931C13.0628 31.3136 13.0521 31.5033 13.0331 31.6627C13.0331 31.7344 13.0076 31.7937 12.9579 31.8429C12.9069 31.8903 12.8322 31.9152 12.7314 31.9152H7.80372C7.73022 31.9152 7.6668 31.8933 7.61168 31.8494C7.55656 31.805 7.5293 31.7469 7.5293 31.6758V30.4536H7.52989Z" fill="white"/>
<path d="M15.0181 22.0698C15.0181 21.9987 15.0447 21.9364 15.0999 21.8837C15.1544 21.8309 15.2237 21.8043 15.3055 21.8043H16.5241C16.6154 21.8043 16.6842 21.8309 16.7304 21.8837C16.7754 21.937 16.7979 21.9987 16.7979 22.0698V29.5378C16.7979 29.8389 16.862 30.0262 16.99 30.1021C17.1174 30.1768 17.3095 30.2141 17.5661 30.2141H18.0171V31.9152H17.0581C16.7488 31.9152 16.4678 31.8903 16.2171 31.8423C15.9652 31.7937 15.7512 31.7006 15.5728 31.5631C15.3956 31.4256 15.2581 31.2353 15.1627 30.9911C15.0673 30.7481 15.0193 30.4316 15.0193 30.0416V22.0698H15.0181Z" fill="white"/>
<path d="M22.4925 22.748C22.4925 22.6596 22.5275 22.5873 22.5956 22.5281C22.6632 22.4706 22.7402 22.4415 22.8226 22.4415H23.7798C23.8717 22.4415 23.947 22.4706 24.0068 22.5281C24.0661 22.5873 24.0946 22.6596 24.0946 22.748V23.784C24.0946 23.8634 24.0655 23.9322 24.0068 23.9903C23.947 24.0483 23.8717 24.0762 23.7798 24.0762H22.8226C22.7402 24.0762 22.6632 24.0483 22.5956 23.9903C22.5275 23.9322 22.4925 23.8634 22.4925 23.784V22.748ZM23.1368 30.2676V26.92C22.8623 26.8927 22.5666 26.8803 22.2465 26.8803C21.1607 26.8803 20.6178 27.3935 20.6178 28.4225V28.6613C20.6178 29.1835 20.7339 29.5824 20.9669 29.8568C21.1992 30.1318 21.5756 30.2682 22.0966 30.2682L23.1368 30.2676ZM19.9605 22.748C19.9605 22.6596 19.9925 22.5873 20.0559 22.5281C20.1199 22.4706 20.1981 22.4415 20.2894 22.4415H21.2342C21.3249 22.4415 21.4055 22.4706 21.4736 22.5281C21.5418 22.5873 21.5762 22.6596 21.5762 22.748V23.784C21.5762 23.8634 21.54 23.9322 21.4665 23.9903C21.3942 24.0483 21.316 24.0762 21.2336 24.0762H20.2888C20.1981 24.0762 20.1199 24.0483 20.0553 23.9903C19.9919 23.9322 19.9599 23.8634 19.9599 23.784L19.9605 22.748ZM17.4688 30.3742C17.4688 30.3304 17.5191 30.2925 17.6199 30.2616C17.7206 30.2308 17.8202 30.2154 17.921 30.2154H19.4401C19.267 30.0548 19.1325 29.8402 19.037 29.5705C18.9404 29.3003 18.8918 28.9749 18.8918 28.5944V28.3407C18.8918 27.8547 18.9766 27.425 19.1455 27.0522C19.315 26.6805 19.5539 26.3705 19.865 26.1228C20.175 25.8745 20.5472 25.6872 20.9811 25.558C21.4138 25.4293 21.8962 25.3659 22.4249 25.3659C22.617 25.3659 22.8173 25.3695 23.0277 25.3784C23.2381 25.3873 23.4402 25.4027 23.637 25.4246C23.8332 25.4471 24.0187 25.4708 24.1912 25.4975C24.3654 25.5242 24.5106 25.5508 24.6298 25.5769C24.7305 25.6036 24.7939 25.638 24.8206 25.6783C24.8485 25.7168 24.8621 25.7725 24.8621 25.843V30.2148H26.0528V31.9159H17.921C17.8202 31.9159 17.7206 31.9022 17.6199 31.8756C17.5191 31.8495 17.4688 31.8092 17.4688 31.7558V30.3742Z" fill="white"/>
<path d="M25.5039 30.3742C25.5039 30.3304 25.5543 30.2924 25.655 30.2616C25.7558 30.2308 25.8554 30.2154 25.9561 30.2154H26.8873C27.1066 30.2154 27.25 30.1958 27.3188 30.1549C27.3863 30.1152 27.4219 29.9896 27.4219 29.7762V22.0829C27.4219 22.0035 27.448 21.9371 27.5037 21.8838C27.5588 21.831 27.6222 21.8038 27.6951 21.8038H28.941C29.0145 21.8038 29.0755 21.831 29.1265 21.8838C29.1763 21.9371 29.2018 22.0035 29.2018 22.0829V29.8029C29.2018 30.0411 29.197 30.3067 29.1887 30.5935C29.1787 30.881 29.1609 31.1442 29.133 31.383C29.1141 31.4725 29.085 31.5484 29.0447 31.61C29.0038 31.6717 28.9279 31.7256 28.8183 31.7695C28.7181 31.7967 28.5794 31.8187 28.4016 31.8358C28.2226 31.8536 28.0294 31.8696 27.8196 31.8821C27.6098 31.8957 27.3923 31.9046 27.1694 31.9087C26.9454 31.9141 26.7421 31.9164 26.5601 31.9164H25.9573C25.8566 31.9164 25.757 31.9028 25.6562 31.8761C25.5555 31.8501 25.5051 31.8098 25.5051 31.7564V30.3742H25.5039Z" fill="white"/>
<path d="M31.3086 22.0698C31.3086 21.9987 31.3341 21.9364 31.3839 21.8837C31.4348 21.8309 31.5 21.8043 31.5824 21.8043H32.8146C32.8964 21.8043 32.9628 21.8309 33.0132 21.8837C33.063 21.937 33.0879 21.9987 33.0879 22.0698V31.6366C33.0879 31.7077 33.063 31.7717 33.0132 31.8292C32.9628 31.8873 32.8964 31.9157 32.8146 31.9157H31.5824C31.5 31.9157 31.4348 31.8873 31.3839 31.8292C31.3341 31.7711 31.3086 31.7077 31.3086 31.6366V22.0698Z" fill="white"/>
<path d="M38.2501 30.4536C38.2501 30.3831 38.2774 30.3256 38.3319 30.2817C38.3876 30.2373 38.4504 30.2153 38.5245 30.2153H42.0967L42.0695 29.0056C42.0517 28.6791 41.9989 28.3886 41.9118 28.1361C41.8247 27.8825 41.6884 27.6679 41.5011 27.4907C41.3144 27.3141 41.072 27.1795 40.7756 27.0865C40.4787 26.9922 40.1165 26.946 39.6868 26.946H39.5232H39.2903C39.2079 26.946 39.1267 26.9478 39.0443 26.9531C38.9613 26.9584 38.8932 26.965 38.8381 26.9727C38.665 26.9727 38.5785 26.9081 38.5785 26.7753V25.8003C38.5785 25.7304 38.5986 25.6699 38.6401 25.6219C38.6816 25.5739 38.7521 25.5407 38.8517 25.5235C39.1077 25.4802 39.3632 25.4536 39.6181 25.4441C39.8747 25.4358 40.0661 25.4316 40.1936 25.4316C40.8693 25.4316 41.4335 25.5294 41.8846 25.7233C42.3368 25.9177 42.6966 26.1784 42.9662 26.505C43.2359 26.8328 43.4315 27.2103 43.5548 27.6389C43.6787 28.068 43.7492 28.5155 43.767 28.9849C43.767 29.0554 43.7687 29.1568 43.7741 29.2889C43.7782 29.4223 43.7836 29.5687 43.7871 29.7275C43.7925 29.8864 43.7936 30.0435 43.7936 30.1981V30.5757C43.7936 30.6996 43.7925 30.872 43.7871 31.0931C43.783 31.3136 43.7711 31.5033 43.7527 31.6627C43.7527 31.7344 43.7279 31.7937 43.6781 31.8429C43.6271 31.8903 43.5524 31.9152 43.4517 31.9152H38.5239C38.4498 31.9152 38.387 31.8933 38.3313 31.8494C38.2768 31.805 38.2495 31.7469 38.2495 31.6758L38.2501 30.4536Z" fill="white"/>
<path d="M45.8198 22.0698C45.8198 21.9987 45.8447 21.9364 45.8957 21.8837C45.9455 21.8309 46.0119 21.8043 46.0937 21.8043H47.3259C47.4077 21.8043 47.4746 21.8309 47.525 21.8837C47.5742 21.937 47.5991 21.9987 47.5991 22.0698V31.6366C47.5991 31.7077 47.5742 31.7717 47.525 31.8292C47.4746 31.8873 47.4077 31.9157 47.3259 31.9157H46.0937C46.0119 31.9157 45.9455 31.8873 45.8957 31.8292C45.8447 31.7711 45.8198 31.7077 45.8198 31.6366V22.0698Z" fill="white"/>
<path d="M49.3389 30.4536C49.3389 30.3831 49.3661 30.3256 49.4207 30.2817C49.4758 30.2373 49.5398 30.2153 49.6127 30.2153H53.1849L53.1576 29.0056C53.1399 28.6791 53.0865 28.3886 53 28.1361C52.9135 27.8825 52.7789 27.6679 52.5964 27.4907C52.4132 27.3141 52.1744 27.1795 51.878 27.0865C51.5811 26.9922 51.2225 26.946 50.8034 26.946H50.6387H50.3992C50.3121 26.946 50.2255 26.9478 50.139 26.9531C50.0519 26.9584 49.982 26.965 49.9274 26.9727C49.7538 26.9727 49.6678 26.9081 49.6678 26.7753V25.8003C49.6678 25.7304 49.6874 25.6675 49.7289 25.616C49.7704 25.5626 49.8409 25.5312 49.9411 25.5235C50.1971 25.4802 50.4514 25.4536 50.7074 25.4441C50.9635 25.4358 51.1549 25.4316 51.2829 25.4316C51.9491 25.4316 52.508 25.5277 52.9603 25.7221C53.4125 25.9171 53.7746 26.1784 54.0485 26.5038C54.3217 26.831 54.5209 27.2086 54.6435 27.6377C54.768 28.0662 54.838 28.5143 54.8557 28.9825L54.8694 30.2147H55.7323V31.9152H49.6127C49.5398 31.9152 49.4758 31.8933 49.4207 31.8494C49.3661 31.805 49.3389 31.7469 49.3389 31.6758V30.4536Z" fill="white"/>
<path d="M55.1841 30.3742C55.1841 30.3303 55.2345 30.2924 55.3352 30.2615C55.436 30.2307 55.5356 30.2153 55.6363 30.2153H57.1145C56.9592 30.0381 56.8342 29.7927 56.7387 29.478C56.6421 29.1633 56.5953 28.8112 56.5953 28.4224V28.2754C56.5953 27.7621 56.6854 27.3247 56.8685 26.9661C57.0511 26.6081 57.2994 26.313 57.6142 26.083C57.9289 25.853 58.294 25.6835 58.7101 25.5774C59.125 25.4713 59.5653 25.4186 60.0312 25.4186C60.3601 25.4186 60.6452 25.4298 60.8865 25.4518C61.1283 25.4743 61.3997 25.5116 61.7014 25.5638C61.801 25.5822 61.8798 25.6059 61.9344 25.6379C61.9895 25.6687 62.0167 25.728 62.0167 25.8169V26.7871C62.0167 26.9638 61.9207 27.0444 61.7293 27.026C61.5835 27.0171 61.4531 27.0088 61.3399 26.9993C61.2249 26.9898 61.1147 26.9845 61.0103 26.9803C60.906 26.9744 60.797 26.9703 60.6814 26.9661C60.5682 26.962 60.4366 26.9602 60.292 26.9602C59.6619 26.9602 59.1759 27.0781 58.8333 27.3117C58.4919 27.547 58.3207 27.9435 58.3207 28.5018V28.6476C58.3207 29.0192 58.403 29.3535 58.5672 29.6505C58.7314 29.9468 58.9187 30.1353 59.1279 30.2153H61.9895C62.0624 30.2153 62.1258 30.2378 62.1815 30.2811C62.2355 30.3261 62.2633 30.383 62.2633 30.4542V31.69C62.2633 31.7611 62.2355 31.8156 62.1815 31.8553C62.1258 31.8956 62.0624 31.9164 61.9895 31.9164H55.6369C55.5361 31.9164 55.4366 31.9027 55.3358 31.8761C55.2351 31.85 55.1847 31.8097 55.1847 31.7563L55.1841 30.3742Z" fill="white"/>
<path d="M65.4801 22.9203C65.4801 22.752 65.5702 22.6678 65.7533 22.6678H66.9446C67.1177 22.6678 67.2042 22.752 67.2042 22.9203V28.9392C67.2042 29.0186 67.1793 29.0856 67.1296 29.1383C67.078 29.1911 67.0175 29.2178 66.944 29.2178H65.7391C65.6662 29.2178 65.6039 29.1911 65.5536 29.1383C65.5044 29.0856 65.4795 29.0186 65.4795 28.9392L65.4801 22.9203ZM65.192 35.277C65.0468 35.277 64.9733 35.223 64.9733 35.1169V34.7317C64.9733 34.6434 65.0468 34.5989 65.192 34.5989H65.4522C65.3787 34.4922 65.3242 34.3731 65.2874 34.2397C65.2513 34.1076 65.2329 33.9742 65.2329 33.842C65.2329 33.0982 65.6893 32.7254 66.6026 32.7254C66.675 32.7254 66.7739 32.7295 66.8972 32.7378C67.0199 32.7473 67.1367 32.7692 67.2463 32.8048C67.3459 32.8226 67.3963 32.867 67.3963 32.9376V33.2967C67.3963 33.3851 67.337 33.4295 67.2185 33.4295H66.7384C66.5019 33.4295 66.3282 33.4698 66.2186 33.5492C66.1089 33.6287 66.0544 33.7662 66.0544 33.9606C66.0544 34.1117 66.0823 34.2421 66.1374 34.3529C66.1919 34.4638 66.2601 34.5408 66.3425 34.5859H67.3008C67.4467 34.5859 67.5196 34.6297 67.5196 34.718V35.1169C67.5196 35.223 67.4467 35.277 67.3008 35.277H65.192ZM63.8638 30.4536C63.8638 30.383 63.8893 30.3255 63.9396 30.2817C63.99 30.2372 64.0517 30.2153 64.1246 30.2153H69.1762C69.3955 30.2153 69.5389 30.1951 69.6082 30.1548C69.6752 30.1157 69.7102 29.9889 69.7102 29.7755V22.0698C69.7102 21.9987 69.7374 21.9364 69.792 21.8837C69.8471 21.8309 69.9105 21.8043 69.9834 21.8043H71.2299C71.3028 21.8043 71.365 21.8309 71.4154 21.8837C71.4658 21.937 71.4907 21.9987 71.4907 22.0698V29.8034C71.4907 30.1394 71.4829 30.4298 71.4693 30.6734C71.4563 30.917 71.4403 31.1541 71.4225 31.3835C71.4035 31.4724 71.3763 31.5483 71.3395 31.6099C71.3028 31.6721 71.2299 31.7249 71.1202 31.7699C71.02 31.7966 70.8748 31.818 70.6828 31.8357C70.4908 31.8529 70.2827 31.8695 70.0599 31.882C69.8364 31.8956 69.6029 31.9045 69.3611 31.9092C69.1198 31.914 68.9029 31.9157 68.7109 31.9157H64.1246C64.0523 31.9157 63.99 31.8938 63.9396 31.85C63.8893 31.8055 63.8638 31.7474 63.8638 31.6763V30.4536Z" fill="white"/>
<path d="M76.5684 30.4536C76.5684 30.3831 76.5956 30.3256 76.6507 30.2817C76.7053 30.2373 76.7687 30.2153 76.8428 30.2153H80.415L80.3877 29.0056C80.3699 28.6791 80.3166 28.3886 80.2301 28.1361C80.1435 27.8825 80.009 27.6679 79.8264 27.4907C79.6433 27.3141 79.4038 27.1795 79.1081 27.0865C78.81 26.9922 78.4526 26.946 78.0335 26.946H77.8693H77.6293C77.5428 26.946 77.4562 26.9478 77.3691 26.9531C77.2826 26.9584 77.2114 26.965 77.1581 26.9727C76.9844 26.9727 76.8979 26.9081 76.8979 26.7753V25.8003C76.8979 25.7304 76.9181 25.6675 76.9595 25.616C77.001 25.5626 77.0716 25.5312 77.1717 25.5235C77.4266 25.4802 77.682 25.4536 77.9381 25.4441C78.1941 25.4358 78.3856 25.4316 78.513 25.4316C79.1798 25.4316 79.7381 25.5277 80.1904 25.7221C80.6432 25.9171 81.0047 26.1784 81.2792 26.5038C81.5524 26.831 81.7515 27.2086 81.8742 27.6377C81.9987 28.0662 82.0686 28.5143 82.0864 28.9825L82.1 30.2147H82.963V31.9152H76.8434C76.7693 31.9152 76.7059 31.8933 76.6513 31.8494C76.5962 31.805 76.569 31.7469 76.569 31.6758V30.4536H76.5684Z" fill="white"/>
<path d="M88.7401 23.6109C88.7401 23.5232 88.7739 23.452 88.842 23.3993C88.9096 23.3454 88.9855 23.3187 89.0673 23.3187H90.0262C90.1163 23.3187 90.1922 23.3454 90.2515 23.3993C90.3113 23.4526 90.341 23.5232 90.341 23.6109V24.5811C90.341 24.6523 90.3107 24.7169 90.2515 24.7738C90.1922 24.8318 90.1163 24.8603 90.0262 24.8603H89.0673C88.9855 24.8603 88.9096 24.8313 88.842 24.7738C88.7739 24.7169 88.7401 24.6523 88.7401 24.5811V23.6109ZM87.5339 21.7243C87.5339 21.6443 87.5683 21.575 87.6371 21.5181C87.7052 21.46 87.7758 21.4315 87.8487 21.4315H88.7519C88.8432 21.4315 88.9203 21.4606 88.9849 21.5181C89.0489 21.575 89.0809 21.6443 89.0809 21.7243V22.5345C89.0809 22.614 89.0459 22.6809 88.9778 22.7337C88.909 22.7876 88.8296 22.8143 88.7395 22.8143H87.835C87.7627 22.8143 87.694 22.7876 87.6299 22.7337C87.5665 22.6809 87.5339 22.614 87.5339 22.5345V21.7243ZM86.2063 23.6109C86.2063 23.5232 86.2377 23.452 86.3017 23.3993C86.3657 23.3454 86.4434 23.3187 86.5352 23.3187H87.48C87.5707 23.3187 87.6507 23.3454 87.7194 23.3993C87.7876 23.4526 87.822 23.5232 87.822 23.6109V24.5811C87.822 24.6523 87.7846 24.7169 87.7123 24.7738C87.6382 24.8318 87.5618 24.8603 87.4794 24.8603H86.5346C86.4434 24.8603 86.3657 24.8313 86.3011 24.7738C86.2371 24.7169 86.2057 24.6523 86.2057 24.5811L86.2063 23.6109ZM82.4142 30.3742C82.4142 30.3303 82.4645 30.2924 82.5647 30.2616C82.6655 30.2308 82.7656 30.2154 82.8664 30.2154H83.3038C83.4781 30.2154 83.6488 30.1905 83.8171 30.143C83.9866 30.0939 84.0714 29.967 84.0714 29.7637V27.0657C84.0714 26.9863 84.098 26.9199 84.1532 26.866C84.2077 26.8127 84.2711 26.7866 84.3446 26.7866H85.5081C85.581 26.7866 85.6432 26.8127 85.6936 26.866C85.744 26.9199 85.7689 26.9863 85.7689 27.0657V30.0287C85.7961 30.082 85.8465 30.1241 85.92 30.1549C85.9923 30.1863 86.0706 30.2106 86.1523 30.2284C86.2353 30.2456 86.3183 30.2574 86.4066 30.2616C86.4925 30.2663 86.5672 30.2681 86.6318 30.2681H86.8375C86.9193 30.2681 87.0035 30.2646 87.0906 30.2551C87.1771 30.2462 87.2571 30.226 87.3306 30.1958C87.4029 30.1632 87.4622 30.1199 87.5078 30.0618C87.5535 30.0049 87.5766 29.9267 87.5766 29.8295V26.5874C87.5766 26.5169 87.6039 26.4558 87.659 26.4084C87.7141 26.3592 87.7775 26.3343 87.8504 26.3343H89.0003C89.0732 26.3343 89.1366 26.3592 89.1917 26.4084C89.2462 26.4558 89.2741 26.5169 89.2741 26.5874V30.0287C89.3292 30.1353 89.4519 30.2017 89.6439 30.2284C89.8354 30.2545 90.0227 30.2675 90.2052 30.2675H90.5188C90.7381 30.2675 90.8845 30.2509 90.9574 30.2148C91.0303 30.1792 91.067 30.0541 91.067 29.8425V29.0122V28.0621C91.067 27.7355 91.0652 27.403 91.0599 27.0657C91.0564 26.7303 91.0486 26.4013 91.0398 26.0824C91.0398 26.0208 91.0629 25.9633 91.1079 25.91C91.153 25.8566 91.2182 25.8306 91.3 25.8306H92.4634C92.5642 25.8306 92.6365 25.8548 92.6821 25.9035C92.7284 25.9526 92.7509 26.0119 92.7509 26.0824C92.7598 26.3747 92.7657 26.6497 92.771 26.9069C92.7764 27.1641 92.7805 27.4071 92.7847 27.6371C92.7894 27.8683 92.7918 28.0953 92.7918 28.3211V29.0187V29.7637C92.7918 30.0115 92.7894 30.2776 92.7847 30.5609C92.7799 30.8448 92.7639 31.1103 92.7367 31.3575C92.7177 31.4381 92.691 31.511 92.6543 31.5768C92.6181 31.6432 92.544 31.6983 92.4356 31.7433C92.2435 31.7967 92.0112 31.8346 91.7368 31.8554C91.4629 31.8785 91.1666 31.8886 90.8471 31.8886H90.6693C90.3493 31.8886 90.0025 31.8648 89.6285 31.8157C89.2545 31.7676 88.9345 31.6509 88.6707 31.4642C88.4603 31.6319 88.2066 31.7493 87.9109 31.8157C87.6145 31.882 87.3057 31.9164 86.9863 31.9164H86.8079C86.4706 31.9164 86.1553 31.8844 85.8631 31.8234C85.5709 31.7617 85.3024 31.6408 85.0558 31.4648C84.8194 31.6414 84.5337 31.7617 84.2006 31.8234C83.8669 31.885 83.545 31.9164 83.2357 31.9164H82.8658C82.765 31.9164 82.6649 31.9028 82.5641 31.8761C82.464 31.85 82.4136 31.8097 82.4136 31.7564V30.3742H82.4142Z" fill="white"/>
<path d="M94.8989 22.0698C94.8989 21.9987 94.9244 21.9364 94.9748 21.8837C95.0252 21.8309 95.0904 21.8043 95.1727 21.8043H96.405C96.4868 21.8043 96.5537 21.8309 96.6041 21.8837C96.6533 21.937 96.6782 21.9987 96.6782 22.0698V31.6366C96.6782 31.7077 96.6533 31.7717 96.6041 31.8292C96.5537 31.8873 96.4868 31.9157 96.405 31.9157H95.1727C95.0904 31.9157 95.0252 31.8873 94.9748 31.8292C94.9244 31.7711 94.8989 31.7077 94.8989 31.6366V22.0698Z" fill="white"/>
<path d="M97.5958 33.8161C97.5958 33.6738 97.6829 33.6033 97.856 33.6033H98.1292C98.3213 33.6033 98.4902 33.592 98.636 33.5701C98.7818 33.5476 98.9033 33.4972 98.9987 33.4178C99.0947 33.3372 99.1677 33.2204 99.2174 33.0651C99.2678 32.9098 99.2927 32.6947 99.2927 32.4202V26.4541C99.2927 26.3836 99.32 26.3231 99.3751 26.2751C99.4296 26.2265 99.493 26.2022 99.5671 26.2022H100.758C100.831 26.2022 100.893 26.2265 100.943 26.2751C100.993 26.3231 101.019 26.3836 101.019 26.4541V32.2211C101.019 32.5572 101.003 32.8831 100.97 33.1967C100.938 33.5114 100.85 33.8018 100.704 34.068C100.512 34.4491 100.239 34.7122 99.8824 34.8586C99.5256 35.005 99.0882 35.0779 98.5678 35.0779C98.5038 35.0779 98.39 35.075 98.2258 35.0708C98.0617 35.0661 97.9289 35.0548 97.8281 35.0376C97.6735 35.0109 97.5952 34.9268 97.5952 34.7851V33.8161H97.5958Z" fill="white"/>
<path d="M108.877 24.0761C108.877 23.9877 108.91 23.9142 108.973 23.8573C109.036 23.7993 109.114 23.7708 109.206 23.7708H110.287C110.37 23.7708 110.44 23.7999 110.499 23.8573C110.559 23.9142 110.588 23.9877 110.588 24.0761V25.1121C110.588 25.1915 110.559 25.2609 110.499 25.3184C110.44 25.3758 110.364 25.4049 110.274 25.4049H109.205C109.105 25.4049 109.025 25.3758 108.966 25.3184C108.906 25.2609 108.877 25.1915 108.877 25.1121V24.0761ZM107.577 27.9553C107.749 27.9553 107.828 28.04 107.81 28.209C107.791 28.4034 107.777 28.612 107.769 28.8331C107.759 29.0547 107.756 29.2266 107.756 29.3511C107.756 29.8478 107.79 30.2953 107.858 30.6936C107.927 31.093 108.064 31.4315 108.269 31.7101C108.474 31.9898 108.766 32.2038 109.145 32.3543C109.525 32.5049 110.019 32.5807 110.631 32.5807C110.804 32.5807 110.966 32.576 111.117 32.5677C111.267 32.5582 111.447 32.541 111.657 32.5143C111.667 32.0799 111.671 31.6988 111.671 31.3716V30.335V26.4558C111.671 26.3846 111.698 26.3248 111.753 26.2762C111.808 26.227 111.871 26.2027 111.945 26.2027H113.135C113.218 26.2027 113.282 26.227 113.327 26.2762C113.373 26.3248 113.396 26.3846 113.396 26.4558V30.2164H114.614V31.9157H113.396V32.8528C113.396 33.1859 113.386 33.4751 113.369 33.7235C113.369 33.8746 113.273 33.9712 113.081 34.0163C112.688 34.114 112.284 34.1792 111.869 34.2148C111.454 34.2504 111.032 34.2682 110.603 34.2682C109.06 34.2682 107.922 33.9362 107.187 33.2718C106.452 32.6074 106.084 31.553 106.084 30.1092C106.084 30.0203 106.09 29.8964 106.099 29.7375C106.107 29.5769 106.119 29.4062 106.132 29.226C106.147 29.0447 106.164 28.8657 106.187 28.6873C106.211 28.5106 106.236 28.3548 106.263 28.2226C106.281 28.1254 106.308 28.0566 106.345 28.0169C106.382 27.9772 106.45 27.9559 106.551 27.9559L107.577 27.9553Z" fill="white"/>
<path d="M114.915 33.3774C114.915 33.2879 114.947 33.2156 115.011 33.1581C115.074 33.1 115.147 33.0716 115.229 33.0716H116.283C116.374 33.0716 116.455 33.1006 116.523 33.1581C116.591 33.2156 116.625 33.2879 116.625 33.3774V34.4401C116.625 34.51 116.591 34.5752 116.523 34.6327C116.455 34.6896 116.374 34.7193 116.283 34.7193H115.229C115.147 34.7193 115.074 34.6896 115.011 34.6327C114.947 34.5747 114.915 34.51 114.915 34.4401V33.3774ZM114.066 30.3742C114.066 30.3303 114.116 30.2924 114.216 30.2616C114.317 30.2307 114.417 30.2153 114.518 30.2153H115.38C115.599 30.2153 115.745 30.1958 115.818 30.1549C115.891 30.1152 115.928 29.9895 115.928 29.7761V28.1948C115.928 27.6454 115.919 27.0521 115.9 26.4132C115.9 26.3438 115.926 26.2834 115.976 26.2348C116.026 26.1861 116.092 26.1613 116.174 26.1613H117.324C117.424 26.1613 117.497 26.1861 117.543 26.2348C117.588 26.2834 117.616 26.3438 117.625 26.4132C117.634 26.6976 117.642 26.9472 117.646 27.1659C117.651 27.3822 117.652 27.5879 117.652 27.7829V28.3673V29.0187C117.652 29.5865 117.651 30.0618 117.646 30.4471C117.642 30.8317 117.625 31.1441 117.597 31.383C117.579 31.4725 117.55 31.5483 117.51 31.61C117.468 31.6716 117.392 31.7255 117.283 31.7694C117.183 31.7967 117.048 31.8186 116.879 31.8358C116.71 31.8536 116.523 31.8696 116.318 31.882C116.112 31.8956 115.9 31.9045 115.682 31.9087C115.462 31.914 115.261 31.9164 115.079 31.9164H114.518C114.417 31.9164 114.317 31.9028 114.216 31.8761C114.116 31.85 114.066 31.8097 114.066 31.7564V30.3742Z" fill="white"/>
<path d="M122.731 30.4536C122.731 30.3831 122.759 30.3256 122.814 30.2817C122.868 30.2373 122.932 30.2153 123.005 30.2153H126.578L126.551 29.0056C126.532 28.6791 126.48 28.3886 126.393 28.1361C126.307 27.8825 126.172 27.6679 125.989 27.4907C125.806 27.3141 125.566 27.1795 125.271 27.0865C124.973 26.9922 124.616 26.946 124.196 26.946H124.032H123.792C123.706 26.946 123.619 26.9478 123.532 26.9531C123.446 26.9584 123.375 26.965 123.321 26.9727C123.147 26.9727 123.061 26.9081 123.061 26.7753V25.8003C123.061 25.7304 123.081 25.6675 123.123 25.616C123.164 25.5626 123.235 25.5312 123.335 25.5235C123.59 25.4802 123.845 25.4536 124.101 25.4441C124.357 25.4358 124.549 25.4316 124.676 25.4316C125.343 25.4316 125.902 25.5277 126.354 25.7221C126.805 25.9171 127.168 26.1784 127.442 26.5038C127.715 26.831 127.915 27.2086 128.037 27.6377C128.161 28.0662 128.232 28.5143 128.249 28.9825L128.264 30.2147H129.126V31.9152H123.006C122.932 31.9152 122.869 31.8933 122.814 31.8494C122.759 31.805 122.732 31.7469 122.732 31.6758V30.4536H122.731Z" fill="white"/>
<path d="M131.986 28.5878V29.1573C131.986 29.3683 131.999 29.5675 132.027 29.753C132.1 30.0713 132.246 30.2977 132.465 30.4346C132.684 30.5715 132.966 30.6397 133.313 30.6397C133.77 30.6397 134.103 30.5229 134.314 30.2888C134.523 30.0547 134.628 29.6777 134.628 29.1573V28.5878C134.628 28.0502 134.526 27.659 134.32 27.4166C134.114 27.1736 133.779 27.0521 133.313 27.0521C132.849 27.0521 132.51 27.1736 132.301 27.4166C132.091 27.659 131.986 28.0502 131.986 28.5878ZM128.577 30.3742C128.577 30.3303 128.628 30.2924 128.728 30.2616C128.828 30.2307 128.929 30.2153 129.029 30.2153H129.439C129.503 30.2153 129.578 30.2129 129.666 30.2082C129.752 30.2041 129.834 30.1934 129.912 30.175C129.99 30.1578 130.055 30.1258 130.11 30.082C130.165 30.0381 130.202 29.98 130.22 29.9095C130.248 29.8295 130.261 29.724 130.261 29.5906V28.4746C130.261 27.499 130.54 26.7622 131.097 26.262C131.653 25.7612 132.401 25.511 133.341 25.511C134.272 25.511 135.007 25.757 135.546 26.2484C136.084 26.7403 136.353 27.4782 136.353 28.4603V29.2445V29.5165C136.353 29.609 136.344 29.7014 136.326 29.7892C136.344 29.8775 136.387 29.9486 136.456 30.0014C136.525 30.0541 136.6 30.0968 136.682 30.1282C136.764 30.159 136.851 30.1809 136.942 30.1946C137.033 30.207 137.106 30.2141 137.161 30.2141H137.475V31.9152H137.202C136.891 31.9152 136.586 31.879 136.284 31.8079C135.983 31.7374 135.714 31.6218 135.477 31.463C135.24 31.719 134.936 31.9099 134.566 32.0343C134.197 32.1582 133.779 32.2198 133.313 32.2198C132.849 32.2198 132.399 32.1582 131.966 32.0343C131.532 31.9099 131.206 31.719 130.987 31.463C130.804 31.6396 130.567 31.7599 130.275 31.8215C129.982 31.8832 129.686 31.9146 129.385 31.9146H129.029C128.929 31.9146 128.828 31.901 128.728 31.8743C128.628 31.8482 128.577 31.8079 128.577 31.7546V30.3742Z" fill="white"/>
<path d="M137.38 31.9152C137.27 31.9152 137.168 31.898 137.071 31.8619C136.976 31.8269 136.928 31.7914 136.928 31.7552V30.3736C136.928 30.3297 136.978 30.2918 137.078 30.2604C137.179 30.2302 137.279 30.2148 137.38 30.2148H143.198L142.827 29.3903L142.554 28.8332C142.289 28.2666 141.906 27.8214 141.404 27.4966C140.902 27.1742 140.218 27.013 139.351 27.013C139.287 27.013 139.172 27.0154 139.008 27.0189C138.845 27.0243 138.712 27.0314 138.612 27.0397C138.42 27.0574 138.324 26.9857 138.324 26.8269V25.8436C138.324 25.7102 138.415 25.6267 138.598 25.5911C138.826 25.5466 139.048 25.5158 139.262 25.498C139.477 25.4809 139.702 25.4714 139.94 25.4714C140.442 25.4714 140.908 25.5223 141.336 25.6249C141.765 25.7262 142.167 25.8999 142.541 26.1435C142.915 26.3865 143.262 26.7101 143.581 27.1132C143.9 27.5168 144.197 28.0182 144.472 28.6216L144.649 28.9932C144.677 29.0637 144.713 29.1509 144.76 29.2528C144.805 29.3542 144.85 29.4567 144.896 29.5581C144.941 29.6606 144.983 29.7554 145.019 29.8437C145.055 29.9315 145.088 29.9949 145.114 30.0298C145.16 30.1004 145.206 30.1496 145.251 30.1756C145.297 30.2023 145.357 30.2154 145.429 30.2154H145.566V31.9158L137.38 31.9152Z" fill="white"/>
<path d="M148.428 29.0904C148.428 29.2943 148.441 29.4881 148.469 29.673C148.541 30.0002 148.688 30.2231 148.907 30.3422C149.126 30.4607 149.408 30.5206 149.755 30.5206C150.221 30.5206 150.554 30.4104 150.755 30.1887C150.956 29.9682 151.056 29.5806 151.056 29.0246V28.5351C151.056 28.0046 150.956 27.6187 150.755 27.3757C150.554 27.1339 150.221 27.0124 149.755 27.0124C149.291 27.0124 148.953 27.1369 148.742 27.3834C148.533 27.63 148.428 28.0141 148.428 28.5351V29.0904ZM145.019 30.3742C145.019 30.3303 145.069 30.2924 145.17 30.2616C145.27 30.2308 145.371 30.2154 145.471 30.2154H145.881C145.944 30.2154 146.018 30.2106 146.1 30.2023C146.183 30.1934 146.262 30.1756 146.34 30.1496C146.417 30.1229 146.485 30.085 146.546 30.0364C146.605 29.9884 146.643 29.9232 146.661 29.8437C146.689 29.7554 146.703 29.6535 146.703 29.5379V28.4224C146.703 27.4557 146.981 26.7232 147.538 26.2229C148.094 25.7221 148.842 25.4714 149.783 25.4714C150.713 25.4714 151.446 25.715 151.98 26.2028C152.513 26.6888 152.781 27.4196 152.781 28.3952V29.1787C152.781 30.1697 152.518 30.9059 151.994 31.383C151.469 31.8619 150.723 32.1013 149.755 32.1013C149.291 32.1013 148.841 32.0468 148.408 31.9354C147.974 31.8245 147.648 31.6408 147.429 31.383C147.246 31.5875 147.007 31.7267 146.711 31.802C146.414 31.8785 146.073 31.9158 145.69 31.9158H145.471C145.371 31.9158 145.27 31.9022 145.17 31.8755C145.069 31.8494 145.019 31.8091 145.019 31.7558V30.3742Z" fill="white"/>
<path d="M158.381 23.3975C158.381 23.3098 158.412 23.2369 158.477 23.1788C158.54 23.1219 158.618 23.0928 158.709 23.0928H159.791C159.874 23.0928 159.944 23.1219 160.003 23.1788C160.062 23.2369 160.091 23.3098 160.091 23.3975V24.4341C160.091 24.5147 160.062 24.5829 160.003 24.6404C159.943 24.6985 159.867 24.7269 159.777 24.7269H158.708C158.608 24.7269 158.528 24.6985 158.469 24.6404C158.409 24.5829 158.381 24.5147 158.381 24.4341V23.3975ZM156.45 33.8024C156.45 33.669 156.527 33.6026 156.683 33.6026H156.97C157.226 33.6026 157.443 33.592 157.62 33.5694C157.8 33.5469 157.942 33.4965 158.052 33.4171C158.162 33.3365 158.241 33.2185 158.291 33.0644C158.343 32.9092 158.368 32.694 158.368 32.4208V26.4552C158.368 26.3841 158.393 26.3242 158.442 26.2756C158.492 26.2264 158.559 26.2021 158.641 26.2021H159.832C159.905 26.2021 159.967 26.2264 160.017 26.2756C160.068 26.3242 160.092 26.3841 160.092 26.4552V30.2159H161.311V31.9152H160.052V32.5405C160.052 32.8422 160.032 33.1208 159.99 33.378C159.95 33.6352 159.878 33.8563 159.778 34.0412C159.569 34.4229 159.281 34.6902 158.916 34.8449C158.55 35.0002 158.081 35.0784 157.507 35.0784C157.432 35.0784 157.3 35.0755 157.109 35.0713C156.918 35.0672 156.762 35.0553 156.643 35.0381C156.516 35.0115 156.451 34.9267 156.451 34.7857V33.8024H156.45Z" fill="white"/>
<path d="M160.762 30.4536C160.762 30.3831 160.809 30.3256 160.9 30.2817C160.99 30.2373 161.096 30.2153 161.214 30.2153H166.389H166.738H167.285C167.481 30.2153 167.667 30.213 167.841 30.2082C168.014 30.2041 168.137 30.197 168.21 30.1887C168.22 30.0375 168.225 29.8805 168.23 29.7163C168.235 29.5533 168.238 29.401 168.238 29.2587C168.238 28.8693 168.176 28.5433 168.052 28.2825C167.929 28.0212 167.751 27.8102 167.519 27.6519C167.285 27.4913 167.003 27.3769 166.669 27.3052C166.336 27.2352 165.956 27.1991 165.526 27.1991H162.61C162.409 27.1991 162.304 27.1286 162.295 26.9869C162.295 26.9697 162.293 26.9383 162.288 26.8944C162.284 26.8494 162.28 26.8038 162.275 26.7546C162.27 26.706 162.268 26.6597 162.268 26.6153V26.5359C162.268 26.3142 162.286 26.102 162.323 25.8981C162.36 25.6948 162.416 25.4903 162.494 25.2864C162.572 25.0825 162.665 24.871 162.775 24.6493C162.885 24.4276 163.012 24.1899 163.158 23.9315L164.185 22.0716C164.23 22.0005 164.282 21.9383 164.342 21.8855C164.402 21.8328 164.477 21.8061 164.568 21.8061H165.8C165.873 21.8061 165.924 21.8209 165.951 21.8529C165.979 21.8831 165.992 21.9205 165.992 21.9643C165.992 22.01 165.979 22.0574 165.951 22.1107L164.664 24.4893C164.609 24.587 164.554 24.6931 164.5 24.8093C164.445 24.9237 164.395 25.0339 164.349 25.1406C164.303 25.2473 164.265 25.3475 164.233 25.4399C164.201 25.5324 164.186 25.5976 164.186 25.632C164.577 25.6154 164.89 25.6012 165.123 25.5929C165.356 25.5846 165.568 25.5792 165.759 25.5792C166.535 25.5792 167.192 25.664 167.731 25.8329C168.269 26.0006 168.707 26.249 169.045 26.5762C169.382 26.9039 169.628 27.3141 169.784 27.8054C169.94 28.2968 170.017 28.8622 170.017 29.4988V29.8325C170.017 29.9291 170.015 30.0577 170.01 30.2171C170.005 30.3766 169.999 30.5425 169.991 30.715C169.981 30.8881 169.97 31.054 169.956 31.2135C169.943 31.3741 169.93 31.5015 169.921 31.5981C169.893 31.7581 169.784 31.8423 169.592 31.8518C169.436 31.869 169.241 31.8808 169.003 31.8844C168.766 31.8897 168.506 31.8962 168.223 31.9045C167.939 31.914 167.655 31.9176 167.368 31.9176H166.567H161.214C161.096 31.9176 160.99 31.8957 160.9 31.8518C160.809 31.8073 160.762 31.7493 160.762 31.6781V30.4536Z" fill="white"/>
<path d="M170.387 33.8024C170.387 33.6691 170.464 33.6027 170.619 33.6027H170.907C171.162 33.6027 171.379 33.592 171.557 33.5695C171.736 33.547 171.879 33.4966 171.988 33.4172C172.098 33.3366 172.178 33.2186 172.228 33.0645C172.279 32.9092 172.304 32.6941 172.304 32.4208V26.4553C172.304 26.3842 172.328 26.3243 172.379 26.2757C172.429 26.2265 172.495 26.2022 172.577 26.2022H173.767C173.842 26.2022 173.903 26.2265 173.953 26.2757C174.003 26.3243 174.029 26.3842 174.029 26.4553V30.216H175.247V31.9153H173.988V32.5406C173.988 32.8422 173.968 33.1208 173.926 33.378C173.886 33.6353 173.814 33.8564 173.715 34.0413C173.505 34.423 173.217 34.6903 172.852 34.845C172.487 35.0003 172.017 35.0785 171.443 35.0785C171.368 35.0785 171.237 35.0755 171.045 35.0714C170.854 35.0672 170.698 35.0554 170.58 35.0382C170.452 35.0115 170.388 34.9268 170.388 34.7857V33.8024H170.387Z" fill="white"/>
<path d="M178.108 29.0904C178.108 29.2943 178.122 29.4881 178.149 29.673C178.222 30.0002 178.368 30.2231 178.587 30.3422C178.806 30.4607 179.088 30.5206 179.436 30.5206C179.901 30.5206 180.234 30.4104 180.435 30.1887C180.636 29.9682 180.737 29.5806 180.737 29.0246V28.5351C180.737 28.0046 180.636 27.6187 180.435 27.3757C180.234 27.1339 179.901 27.0124 179.436 27.0124C178.97 27.0124 178.633 27.1369 178.423 27.3834C178.212 27.63 178.108 28.0141 178.108 28.5351V29.0904ZM174.699 30.3742C174.699 30.3303 174.749 30.2924 174.85 30.2616C174.951 30.2308 175.051 30.2154 175.151 30.2154H175.561C175.625 30.2154 175.699 30.2106 175.78 30.2023C175.863 30.1934 175.942 30.1756 176.02 30.1496C176.097 30.1229 176.166 30.085 176.226 30.0364C176.285 29.9884 176.323 29.9232 176.342 29.8437C176.37 29.7554 176.383 29.6535 176.383 29.5379V28.4224C176.383 27.4557 176.661 26.7232 177.217 26.2229C177.774 25.7221 178.522 25.4714 179.463 25.4714C180.393 25.4714 181.127 25.715 181.661 26.2028C182.193 26.6888 182.461 27.4196 182.461 28.3952V29.1787C182.461 30.1697 182.199 30.9059 181.674 31.383C181.149 31.8619 180.403 32.1013 179.436 32.1013C178.97 32.1013 178.521 32.0468 178.088 31.9354C177.653 31.8245 177.328 31.6408 177.109 31.383C176.926 31.5875 176.687 31.7267 176.39 31.802C176.093 31.8785 175.754 31.9158 175.37 31.9158H175.151C175.051 31.9158 174.951 31.9022 174.85 31.8755C174.749 31.8494 174.699 31.8091 174.699 31.7558V30.3742Z" fill="white"/>
</svg>
