<svg width="193" height="85" viewBox="0 0 193 85" fill="none" xmlns="http://www.w3.org/2000/svg">
<path d="M131.024 79.7939H58.6602V84.3671H131.024V79.7939Z" fill="#2E66D9"/>
<path d="M130.856 0H58.4922V4.57431H130.856V0Z" fill="#2E66D9"/>
<path d="M0.710938 51.5415H2.2682V60.3137H7.5375V61.5913H0.710938V51.5415Z" fill="black"/>
<path d="M14.9146 57.6749C14.9028 57.391 14.8521 57.1303 14.7607 56.8944C14.6688 56.6568 14.5311 56.452 14.3472 56.2765C14.1639 56.101 13.9336 55.9633 13.6583 55.8651C13.3824 55.7658 13.0614 55.715 12.6929 55.715C12.3363 55.715 12.0091 55.7737 11.7125 55.8922C11.4147 56.0113 11.1638 56.1642 10.9592 56.3538C10.7528 56.5434 10.5932 56.7545 10.48 56.9858C10.3655 57.2172 10.3104 57.4463 10.3104 57.6743H14.9146V57.6749ZM10.3098 58.6957C10.3098 58.9897 10.3817 59.2566 10.5282 59.4981C10.6739 59.7391 10.866 59.9451 11.1038 60.1161C11.3421 60.2859 11.6168 60.4191 11.9309 60.5128C12.2443 60.6076 12.5684 60.6555 12.9038 60.6555C13.358 60.6555 13.7522 60.5619 14.0881 60.3785C14.4229 60.1939 14.7313 59.9502 15.0122 59.6482L16.1153 60.3858C15.3038 61.3034 14.1701 61.7627 12.7104 61.7627C12.1048 61.7627 11.5567 61.6724 11.0643 61.4924C10.5726 61.313 10.1559 61.0641 9.81553 60.7475C9.47517 60.4298 9.21302 60.0568 9.03032 59.6268C8.84513 59.1957 8.75378 58.7296 8.75378 58.2279C8.75378 57.7262 8.85326 57.2601 9.05347 56.8301C9.25369 56.3995 9.5296 56.0254 9.88122 55.7094C10.2322 55.3917 10.6508 55.1428 11.1363 54.9633C11.6237 54.785 12.1536 54.693 12.7255 54.693C13.4074 54.693 13.983 54.7974 14.4529 55.0062C14.9228 55.2139 15.3101 55.4865 15.6129 55.8217C15.9157 56.1569 16.1347 56.5366 16.2698 56.9576C16.4043 57.3786 16.4725 57.8069 16.4725 58.242V58.6957H10.3098Z" fill="black"/>
<path d="M22.8262 58.3544C22.4803 58.3544 22.1268 58.3708 21.7645 58.4047C21.4022 58.4385 21.0725 58.5017 20.776 58.5965C20.4781 58.6913 20.2348 58.8234 20.0458 58.9938C19.8569 59.1642 19.7624 59.3815 19.7624 59.6473C19.7624 60.035 19.91 60.3143 20.2085 60.4841C20.5063 60.6546 20.908 60.7392 21.416 60.7392C21.8164 60.7392 22.1568 60.68 22.4383 60.562C22.7193 60.4435 22.947 60.29 23.1197 60.1021C23.2924 59.9125 23.4162 59.7014 23.4919 59.4701C23.5676 59.237 23.6064 59.0085 23.6064 58.7811V58.3544H22.8262ZM18.7082 55.6864C19.1186 55.354 19.5953 55.1063 20.1347 54.9409C20.6759 54.775 21.2158 54.6926 21.757 54.6926C22.3182 54.6926 22.8025 54.7547 23.2079 54.8772C23.6121 54.9996 23.9462 55.1666 24.2052 55.3737C24.4642 55.5825 24.6563 55.8212 24.7802 56.091C24.9047 56.3596 24.9672 56.6418 24.9672 56.9352V60.3702C24.9672 60.6066 24.9729 60.825 24.9829 61.0236C24.9942 61.2217 25.0098 61.4113 25.0317 61.5913H23.7341C23.7015 61.2505 23.6865 60.9096 23.6865 60.5688H23.6534C23.3286 61.0039 22.9457 61.3114 22.5022 61.4914C22.0586 61.6715 21.5455 61.7617 20.9618 61.7617C20.6058 61.7617 20.2642 61.7183 19.9401 61.6342C19.6154 61.5479 19.3319 61.4209 19.0892 61.2499C18.8452 61.0801 18.6531 60.8684 18.513 60.6185C18.3722 60.3679 18.3027 60.0773 18.3027 59.746C18.3027 59.3109 18.4128 58.9464 18.6343 58.6524C18.8564 58.3601 19.1593 58.1202 19.5422 57.9352C19.9257 57.7518 20.3749 57.618 20.888 57.5384C21.401 57.4577 21.9503 57.4182 22.5334 57.4182H23.6046V57.1338C23.6046 56.9634 23.5658 56.793 23.4901 56.6231C23.4144 56.4533 23.3011 56.2981 23.1497 56.1615C22.9983 56.025 22.8094 55.9155 22.5822 55.8354C22.3564 55.7547 22.0848 55.714 21.7714 55.714C21.4905 55.714 21.244 55.7383 21.0337 55.7863C20.8223 55.8331 20.6308 55.8918 20.4581 55.9629C20.2854 56.0346 20.1284 56.1175 19.9876 56.2123C19.8469 56.3054 19.7123 56.3968 19.5828 56.4809L18.7082 55.6864Z" fill="black"/>
<path d="M31.2589 60.5697C31.6481 60.5697 31.9991 60.5111 32.3125 60.3926C32.6266 60.274 32.8913 60.1132 33.1077 59.9095C33.3242 59.7069 33.4913 59.4609 33.6101 59.172C33.7284 58.8825 33.7885 58.5687 33.7885 58.2279C33.7885 57.887 33.7284 57.5733 33.6101 57.2838C33.4919 56.996 33.3242 56.7488 33.1077 56.5462C32.8906 56.3425 32.626 56.1817 32.3125 56.0632C31.9991 55.9452 31.6481 55.8854 31.2589 55.8854C30.8704 55.8854 30.5181 55.9452 30.2047 56.0632C29.8919 56.1817 29.6266 56.3425 29.4101 56.5462C29.1936 56.7482 29.0259 56.996 28.9077 57.2838C28.7882 57.5733 28.7294 57.887 28.7294 58.2279C28.7294 58.5687 28.7882 58.8825 28.9077 59.172C29.0253 59.4609 29.1936 59.7064 29.4101 59.9095C29.6266 60.1132 29.8919 60.274 30.2047 60.3926C30.5181 60.5116 30.8704 60.5697 31.2589 60.5697ZM35.2481 61.5923H33.7885V60.6267H33.7565C33.4744 60.9868 33.0883 61.2644 32.5966 61.4636C32.1048 61.6628 31.5993 61.7621 31.08 61.7621C30.4862 61.7621 29.9475 61.6719 29.4664 61.4918C28.9859 61.3124 28.5755 61.0613 28.2345 60.7396C27.8941 60.4185 27.6307 60.0444 27.448 59.6183C27.2641 59.1917 27.1721 58.729 27.1721 58.2273C27.1721 57.7256 27.2641 57.2595 27.448 56.8284C27.6307 56.3978 27.8941 56.0248 28.2345 55.7071C28.5755 55.3905 28.9859 55.1422 29.4664 54.9628C29.9482 54.7827 30.4862 54.693 31.08 54.693C31.6312 54.693 32.1505 54.7946 32.6366 54.9983C33.1228 55.2009 33.4963 55.4785 33.7559 55.8284H33.7878V50.8596H35.2475L35.2481 61.5923Z" fill="black"/>
<path d="M43.6146 57.6749C43.6021 57.3911 43.5508 57.1304 43.4594 56.8945C43.3675 56.6569 43.2305 56.4521 43.0465 56.2766C42.8626 56.1011 42.6329 55.9634 42.357 55.8652C42.0811 55.7659 41.7602 55.7151 41.3923 55.7151C41.0363 55.7151 40.7078 55.7738 40.4112 55.8923C40.1134 56.0113 39.8625 56.1643 39.6579 56.3539C39.4527 56.5435 39.2926 56.7545 39.1787 56.9859C39.0648 57.2173 39.0091 57.4464 39.0091 57.6744H43.6146V57.6749ZM39.0085 58.6958C39.0085 58.9898 39.0805 59.2567 39.2275 59.4982C39.3733 59.7392 39.5647 59.9452 39.8031 60.1161C40.0415 60.286 40.3161 60.4192 40.6296 60.5129C40.943 60.6077 41.2671 60.6556 41.6025 60.6556C42.0573 60.6556 42.4515 60.5619 42.7869 60.3785C43.1216 60.194 43.43 59.9502 43.7116 59.6483L44.8146 60.3859C44.0031 61.3035 42.8688 61.7628 41.4092 61.7628C40.8035 61.7628 40.2555 61.6725 39.7624 61.4925C39.2713 61.313 38.8559 61.0642 38.5142 60.7476C38.1739 60.4299 37.9117 60.0569 37.729 59.6269C37.5445 59.1958 37.4531 58.7296 37.4531 58.228C37.4531 57.7263 37.5526 57.2602 37.7528 56.8302C37.953 56.3996 38.2289 56.0254 38.5806 55.7094C38.9316 55.3917 39.3501 55.1429 39.8363 54.9634C40.323 54.7851 40.853 54.6931 41.4254 54.6931C42.1068 54.6931 42.6824 54.7975 43.1529 55.0063C43.6221 55.214 44.0094 55.4865 44.3128 55.8217C44.6144 56.1575 44.834 56.5367 44.9692 56.9577C45.1043 57.3787 45.1719 57.807 45.1719 58.2421V58.6958H39.0085Z" fill="black"/>
<path d="M47.377 54.8619H48.8354V55.8986H48.8679C48.9655 55.7197 49.095 55.5555 49.2571 55.4093C49.4204 55.2626 49.6012 55.1373 49.8001 55.0323C50.0003 54.9279 50.2193 54.8467 50.4571 54.7846C50.6954 54.7237 50.9326 54.6926 51.1716 54.6926C51.4087 54.6926 51.6252 54.7208 51.8204 54.7773L51.7547 56.1548C51.6358 56.126 51.5176 56.1023 51.3981 56.0831C51.2798 56.0639 51.1603 56.0537 51.0414 56.0537C50.3288 56.0537 49.7826 56.2292 49.4041 56.5797C49.0262 56.9296 48.8366 57.4741 48.8366 58.2122V61.5908H47.3782V54.8619H47.377Z" fill="black"/>
<path d="M57.9154 56.5526C57.7433 56.3641 57.5293 56.2055 57.2766 56.0774C57.0219 55.9499 56.711 55.885 56.3437 55.885C55.9971 55.885 55.6974 55.9499 55.4434 56.0774C55.1906 56.2055 55.063 56.3918 55.063 56.6384C55.063 56.8364 55.1362 56.9984 55.2826 57.1203C55.4271 57.2427 55.6011 57.3426 55.8013 57.4177C56.0009 57.4944 56.2148 57.5503 56.4419 57.5881C56.6678 57.6265 56.863 57.6598 57.0251 57.6891C57.3391 57.7534 57.6338 57.8341 57.9085 57.9301C58.1844 58.0249 58.4222 58.1473 58.6224 58.298C58.8226 58.4487 58.979 58.6343 59.0929 58.8522C59.2061 59.0705 59.263 59.3341 59.263 59.6473C59.263 60.0248 59.1711 60.3487 58.9871 60.619C58.8038 60.8888 58.5654 61.1083 58.2739 61.2798C57.9817 61.4502 57.6495 61.5727 57.2772 61.6478C56.9031 61.7234 56.5283 61.7617 56.1491 61.7617C55.5103 61.7617 54.9523 61.6765 54.4705 61.5061C53.99 61.3357 53.5602 61.0231 53.1816 60.5694L54.2847 59.7742C54.5212 59.983 54.7871 60.1676 55.0799 60.3273C55.3714 60.4887 55.7274 60.5694 56.1491 60.5694C56.3325 60.5694 56.5195 60.553 56.7091 60.5191C56.8981 60.4864 57.0657 60.4339 57.2121 60.3634C57.3585 60.2928 57.4768 60.2026 57.5681 60.0942C57.6595 59.9853 57.7064 59.8595 57.7064 59.7178C57.7064 59.5282 57.6395 59.3725 57.5043 59.2489C57.3685 59.1264 57.2065 59.0282 57.0169 58.9571C56.8286 58.8866 56.629 58.8302 56.4175 58.7878C56.2061 58.7449 56.0209 58.71 55.8576 58.6817C55.5448 58.6146 55.2463 58.5401 54.966 58.4549C54.6857 58.3691 54.4355 58.2557 54.2202 58.1135C54.0031 57.9718 53.8317 57.7935 53.7016 57.5751C53.572 57.3567 53.5064 57.087 53.5064 56.7653C53.5064 56.4149 53.5908 56.1102 53.7579 55.85C53.9249 55.5899 54.1464 55.3737 54.4229 55.2033C54.6995 55.0329 55.0117 54.9065 55.3639 54.8207C55.7149 54.7344 56.0684 54.6926 56.4257 54.6926C56.9437 54.6926 57.4405 54.7773 57.9166 54.9477C58.3934 55.1181 58.7706 55.402 59.0522 55.7992L57.9154 56.5526Z" fill="black"/>
<path d="M61.4811 50.8596H62.9401V55.8995H62.9727C63.1572 55.5394 63.4751 55.2494 63.9293 55.0259C64.3829 54.8036 64.9072 54.6924 65.5022 54.6924C65.8701 54.6924 66.2236 54.7432 66.5639 54.8425C66.9043 54.9413 67.2021 55.0953 67.4561 55.303C67.7102 55.5112 67.9129 55.7793 68.0643 56.1054C68.2157 56.4316 68.2914 56.8165 68.2914 57.2617V61.5917H66.8317V57.6167C66.8317 57.3046 66.7829 57.0377 66.6866 56.8142C66.5896 56.5925 66.4595 56.4124 66.2968 56.2759C66.1347 56.1382 65.9483 56.0394 65.7381 55.9774C65.5266 55.9164 65.3076 55.8865 65.0805 55.8865C64.7783 55.8865 64.4974 55.9283 64.2365 56.0135C63.9775 56.0987 63.751 56.233 63.5558 56.4181C63.3612 56.6026 63.2098 56.8362 63.1022 57.1206C62.9939 57.4039 62.9395 57.7408 62.9395 58.1279V61.5922H61.4805L61.4811 50.8596Z" fill="black"/>
<path d="M71.065 54.8641H72.5246V61.593H71.065V54.8641ZM70.7246 52.4511C70.7246 52.1966 70.8297 51.976 71.0399 51.7909C71.2508 51.6069 71.5023 51.5144 71.7951 51.5144C72.086 51.5144 72.3382 51.6069 72.5478 51.7909C72.7592 51.976 72.8656 52.1966 72.8656 52.4511C72.8656 52.7068 72.7592 52.9274 72.5478 53.1108C72.3382 53.2953 72.086 53.3879 71.7951 53.3879C71.5023 53.3879 71.2508 53.2953 71.0399 53.1108C70.8297 52.9269 70.7246 52.7068 70.7246 52.4511Z" fill="black"/>
<path d="M79.2852 55.8839C78.8967 55.8839 78.5444 55.9425 78.2322 56.0616C77.9181 56.1801 77.6529 56.3409 77.437 56.5447C77.2205 56.7467 77.0535 56.9927 76.934 57.2822C76.8145 57.5717 76.7563 57.8855 76.7563 58.2263C76.7563 58.5672 76.8145 58.8809 76.934 59.1704C77.0529 59.4593 77.2205 59.7048 77.437 59.908C77.6535 60.1117 77.9188 60.2725 78.2322 60.391C78.5444 60.5101 78.8967 60.5682 79.2852 60.5682C79.675 60.5682 80.026 60.5095 80.3401 60.391C80.6535 60.2725 80.9182 60.1117 81.1346 59.908C81.3511 59.7054 81.5182 59.4593 81.6371 59.1704C81.7566 58.8809 81.816 58.5672 81.816 58.2263C81.816 57.8855 81.7566 57.5717 81.6371 57.2822C81.5188 56.9927 81.3511 56.7472 81.1346 56.5447C80.9182 56.3409 80.6535 56.1801 80.3401 56.0616C80.026 55.9425 79.675 55.8839 79.2852 55.8839ZM75.2966 54.8619H76.7563V55.8274H76.7882C77.0697 55.4674 77.4551 55.1892 77.9482 54.9905C78.4399 54.7913 78.9455 54.6926 79.4641 54.6926C80.0591 54.6926 80.5972 54.7818 81.0777 54.9623C81.5588 55.1418 81.9693 55.3929 82.3096 55.714C82.6506 56.0357 82.9121 56.412 83.0967 56.8437C83.2807 57.2738 83.372 57.7354 83.372 58.2269C83.372 58.7285 83.2807 59.1947 83.0967 59.6258C82.9121 60.0564 82.6506 60.4305 82.3096 60.7465C81.9693 61.0637 81.5588 61.312 81.0777 61.4914C80.5966 61.6709 80.0591 61.7617 79.4641 61.7617C78.9136 61.7617 78.3943 61.6596 77.9075 61.4559C77.422 61.2533 77.0485 60.9756 76.7888 60.6258H76.7569V65.5945H75.2973L75.2966 54.8619Z" fill="black"/>
<path d="M92.2904 60.314H94.2531C94.9119 60.314 95.5369 60.2355 96.1257 60.0786C96.7144 59.9229 97.2306 59.6893 97.6742 59.3772C98.1178 59.064 98.4694 58.6746 98.7284 58.2057C98.9874 57.7379 99.1182 57.1911 99.1182 56.5675C99.1182 56.2447 99.0581 55.8683 98.9399 55.4389C98.8204 55.0077 98.5964 54.598 98.2667 54.2092C97.9369 53.8216 97.4796 53.4931 96.8971 53.2234C96.3127 52.9531 95.5557 52.8188 94.6266 52.8188H92.2916V60.314H92.2904ZM90.7344 51.5417H94.7392C95.5488 51.5417 96.2602 51.6219 96.8708 51.7827C97.4815 51.9435 98.0108 52.158 98.4594 52.4288C98.9086 52.6986 99.2815 53.0084 99.5787 53.3588C99.8759 53.7081 100.112 54.0676 100.283 54.4378C100.456 54.8063 100.581 55.1748 100.657 55.5455C100.732 55.9135 100.771 56.2543 100.771 56.5675C100.771 57.2102 100.635 57.8316 100.366 58.4337C100.095 59.0347 99.6951 59.5685 99.1657 60.0374C98.6358 60.5064 97.9795 60.8817 97.1962 61.1661C96.4116 61.4505 95.5075 61.5921 94.4789 61.5921H90.735L90.7344 51.5417Z" fill="black"/>
<path d="M108.797 57.6749C108.786 57.3911 108.734 57.1304 108.642 56.8945C108.55 56.6569 108.413 56.4521 108.229 56.2766C108.046 56.1011 107.815 55.9634 107.54 55.8652C107.264 55.7659 106.943 55.7151 106.575 55.7151C106.219 55.7151 105.891 55.7738 105.594 55.8923C105.296 56.0113 105.046 56.1643 104.841 56.3539C104.634 56.5435 104.475 56.7545 104.362 56.9859C104.248 57.2173 104.192 57.4464 104.192 57.6744H108.797V57.6749ZM104.192 58.6958C104.192 58.9898 104.264 59.2567 104.411 59.4982C104.556 59.7392 104.749 59.9452 104.987 60.1161C105.224 60.286 105.5 60.4192 105.813 60.5129C106.127 60.6077 106.451 60.6556 106.786 60.6556C107.24 60.6556 107.634 60.5619 107.97 60.3785C108.305 60.194 108.613 59.9502 108.895 59.6483L109.998 60.3859C109.187 61.3035 108.052 61.7628 106.593 61.7628C105.987 61.7628 105.438 61.6725 104.947 61.4925C104.456 61.313 104.038 61.0642 103.698 60.7476C103.357 60.4299 103.095 60.0569 102.912 59.6269C102.728 59.1958 102.637 58.7296 102.637 58.228C102.637 57.7263 102.737 57.2602 102.936 56.8302C103.137 56.3996 103.412 56.0254 103.764 55.7094C104.114 55.3917 104.533 55.1429 105.02 54.9634C105.506 54.7851 106.036 54.6931 106.609 54.6931C107.29 54.6931 107.865 54.7975 108.336 55.0063C108.806 55.214 109.192 55.4865 109.496 55.8217C109.797 56.1575 110.016 56.5367 110.152 56.9577C110.287 57.3787 110.355 57.807 110.355 58.2421V58.6958H104.192Z" fill="black"/>
<path d="M111.635 54.8625H113.321L115.624 60.0153L117.829 54.8625H119.385L116.369 61.5914H114.764L111.635 54.8625Z" fill="black"/>
<path d="M126.829 57.6745C126.818 57.3907 126.766 57.13 126.674 56.8941C126.583 56.6565 126.445 56.4517 126.261 56.2762C126.077 56.1007 125.847 55.963 125.572 55.8648C125.297 55.7655 124.974 55.7147 124.607 55.7147C124.25 55.7147 123.923 55.7734 123.627 55.8919C123.328 56.0109 123.077 56.1639 122.873 56.3535C122.666 56.5431 122.507 56.7541 122.394 56.9855C122.28 57.2169 122.224 57.446 122.224 57.674H126.829V57.6745ZM122.223 58.6954C122.223 58.9894 122.296 59.2563 122.442 59.4978C122.587 59.7388 122.78 59.9447 123.018 60.1157C123.256 60.2856 123.531 60.4188 123.845 60.5124C124.159 60.6072 124.483 60.6552 124.818 60.6552C125.272 60.6552 125.666 60.5615 126.002 60.3781C126.336 60.1936 126.644 59.9498 126.926 59.6479L128.029 60.3855C127.218 61.303 126.083 61.7624 124.625 61.7624C124.018 61.7624 123.47 61.6721 122.979 61.4921C122.487 61.3126 122.071 61.0638 121.73 60.7472C121.389 60.4295 121.127 60.0565 120.943 59.6265C120.759 59.1953 120.668 58.7292 120.668 58.2275C120.668 57.7259 120.767 57.2597 120.968 56.8297C121.167 56.3992 121.444 56.025 121.794 55.709C122.146 55.3913 122.564 55.1425 123.052 54.963C123.538 54.7847 124.067 54.6927 124.641 54.6927C125.322 54.6927 125.897 54.7971 126.367 55.0059C126.837 55.2136 127.224 55.4861 127.527 55.8213C127.83 56.1565 128.048 56.5363 128.183 56.9573C128.319 57.3783 128.387 57.8066 128.387 58.2417V58.6954H122.223Z" fill="black"/>
<path d="M132.163 50.8596H130.703V61.5922H132.163V50.8596Z" fill="black"/>
<path d="M136.119 58.2267C136.119 58.5676 136.178 58.8825 136.297 59.1708C136.415 59.4586 136.583 59.7052 136.8 59.9095C137.017 60.1121 137.281 60.2735 137.595 60.3914C137.908 60.5094 138.26 60.5686 138.649 60.5686C139.038 60.5686 139.389 60.5094 139.703 60.3914C140.017 60.2729 140.282 60.1121 140.497 59.9095C140.714 59.7058 140.881 59.4586 141.001 59.1708C141.12 58.8825 141.179 58.5676 141.179 58.2267C141.179 57.8859 141.12 57.5721 141.001 57.2826C140.882 56.9932 140.714 56.7477 140.497 56.5451C140.282 56.3414 140.017 56.1805 139.703 56.0632C139.389 55.9441 139.038 55.8843 138.649 55.8843C138.26 55.8843 137.908 55.9441 137.595 56.0632C137.281 56.1805 137.017 56.3414 136.8 56.5451C136.583 56.7471 136.416 56.9932 136.297 57.2826C136.178 57.5721 136.119 57.8859 136.119 58.2267ZM134.562 58.2267C134.562 57.7352 134.668 57.2753 134.879 56.8498C135.09 56.4243 135.379 56.0502 135.747 55.7285C136.114 55.4074 136.546 55.1541 137.044 54.9695C137.54 54.785 138.075 54.6925 138.648 54.6925C139.221 54.6925 139.756 54.785 140.253 54.9695C140.75 55.1541 141.184 55.4069 141.55 55.7285C141.917 56.0502 142.207 56.4243 142.418 56.8498C142.628 57.2759 142.734 57.7352 142.734 58.2267C142.734 58.7182 142.628 59.1799 142.418 59.6104C142.207 60.0416 141.917 60.4157 141.55 60.7317C141.184 61.0494 140.75 61.2994 140.253 61.4839C139.756 61.6685 139.221 61.761 138.648 61.761C138.075 61.761 137.54 61.6685 137.044 61.4839C136.546 61.2994 136.114 61.0494 135.747 60.7317C135.379 60.4151 135.09 60.041 134.879 59.6104C134.668 59.1799 134.562 58.7182 134.562 58.2267Z" fill="black"/>
<path d="M149.009 55.8839C148.62 55.8839 148.267 55.9426 147.955 56.0616C147.64 56.1801 147.376 56.341 147.159 56.5447C146.944 56.7467 146.777 56.9928 146.658 57.2822C146.539 57.5717 146.479 57.8855 146.479 58.2263C146.479 58.5672 146.539 58.8809 146.658 59.1704C146.776 59.4594 146.944 59.7048 147.159 59.908C147.376 60.1117 147.641 60.2725 147.955 60.391C148.267 60.5101 148.62 60.5682 149.009 60.5682C149.397 60.5682 149.749 60.5095 150.063 60.391C150.376 60.2725 150.641 60.1117 150.858 59.908C151.074 59.7054 151.241 59.4594 151.36 59.1704C151.479 58.8809 151.539 58.5672 151.539 58.2263C151.539 57.8855 151.479 57.5717 151.36 57.2822C151.242 56.9928 151.074 56.7473 150.858 56.5447C150.641 56.341 150.376 56.1801 150.063 56.0616C149.749 55.9426 149.397 55.8839 149.009 55.8839ZM145.02 54.8619H146.479V55.8275H146.511C146.793 55.4674 147.179 55.1892 147.671 54.9906C148.163 54.7919 148.668 54.6926 149.188 54.6926C149.782 54.6926 150.32 54.7818 150.801 54.9624C151.282 55.1418 151.693 55.3929 152.033 55.714C152.374 56.0357 152.636 56.4121 152.82 56.8438C153.003 57.2738 153.095 57.7354 153.095 58.2269C153.095 58.7286 153.003 59.1947 152.82 59.6258C152.636 60.0564 152.374 60.4305 152.033 60.7466C151.693 61.0637 151.282 61.312 150.801 61.4914C150.319 61.6709 149.782 61.7617 149.188 61.7617C148.636 61.7617 148.117 61.6596 147.631 61.4559C147.145 61.2533 146.772 60.9757 146.512 60.6258H146.479V65.5946H145.02V54.8619H145.02Z" fill="black"/>
<path d="M155.383 54.8622H156.744V55.913H156.777C156.81 55.8193 156.893 55.6991 157.028 55.5575C157.163 55.4164 157.336 55.281 157.547 55.1534C157.758 55.0259 158.006 54.917 158.293 54.8272C158.579 54.737 158.896 54.6924 159.242 54.6924C159.815 54.6924 160.295 54.7979 160.685 55.005C161.074 55.2127 161.393 55.5259 161.641 55.9406C161.89 55.5259 162.242 55.2127 162.696 55.005C163.15 54.7979 163.609 54.6924 164.074 54.6924C164.668 54.6924 165.155 54.777 165.533 54.9474C165.911 55.1179 166.209 55.343 166.426 55.6212C166.642 55.9006 166.79 56.2171 166.871 56.5727C166.952 56.9276 166.993 57.2944 166.993 57.6731V61.5905H165.533V57.8435C165.533 57.5879 165.515 57.3418 165.477 57.1042C165.438 56.8678 165.36 56.6596 165.241 56.4795C165.122 56.3001 164.955 56.1556 164.738 56.0479C164.522 55.9389 164.236 55.8831 163.879 55.8831C163.177 55.8831 162.674 56.0738 162.371 56.4519C162.069 56.8294 161.917 57.3176 161.917 57.9129V61.5905H160.458V58.0703C160.458 57.7492 160.439 57.4547 160.401 57.19C160.362 56.9242 160.287 56.6957 160.174 56.501C160.06 56.308 159.899 56.1556 159.688 56.0479C159.477 55.9389 159.192 55.8831 158.837 55.8831C158.576 55.8831 158.326 55.9288 158.083 56.0185C157.839 56.1082 157.626 56.2425 157.442 56.4231C157.259 56.6026 157.113 56.8322 157.005 57.1116C156.896 57.3909 156.842 57.7193 156.842 58.0986V61.5905H155.383V54.8622H155.383Z" fill="black"/>
<path d="M175.359 57.6745C175.347 57.3906 175.295 57.1299 175.204 56.894C175.112 56.6565 174.975 56.4516 174.791 56.2761C174.607 56.1006 174.377 55.9629 174.101 55.8647C173.827 55.7654 173.504 55.7146 173.136 55.7146C172.781 55.7146 172.452 55.7733 172.156 55.8918C171.858 56.0109 171.607 56.1638 171.402 56.3534C171.196 56.543 171.036 56.7541 170.923 56.9855C170.809 57.2168 170.753 57.4459 170.753 57.6739H175.359V57.6745ZM170.753 58.6953C170.753 58.9893 170.827 59.2563 170.972 59.4978C171.117 59.7387 171.311 59.9447 171.548 60.1157C171.786 60.2856 172.061 60.4187 172.374 60.5124C172.689 60.6072 173.013 60.6552 173.348 60.6552C173.802 60.6552 174.197 60.5615 174.532 60.3781C174.866 60.1936 175.174 59.9498 175.456 59.6479L176.559 60.3854C175.748 61.303 174.614 61.7624 173.155 61.7624C172.549 61.7624 172 61.6721 171.509 61.4921C171.017 61.312 170.6 61.0637 170.26 60.7472C169.919 60.4295 169.657 60.0564 169.473 59.6264C169.289 59.1953 169.199 58.7292 169.199 58.2275C169.199 57.7258 169.298 57.2597 169.498 56.8297C169.699 56.3991 169.974 56.025 170.325 55.709C170.677 55.3913 171.095 55.1424 171.582 54.963C172.069 54.7847 172.598 54.6927 173.171 54.6927C173.852 54.6927 174.428 54.7971 174.898 55.0059C175.368 55.2135 175.755 55.4861 176.058 55.8213C176.361 56.1565 176.579 56.5363 176.714 56.9572C176.849 57.3782 176.917 57.8065 176.917 58.2416V58.6953H170.753Z" fill="black"/>
<path d="M179.12 54.8623H180.578V55.899H180.611C180.795 55.5401 181.114 55.2489 181.567 55.0266C182.022 54.8031 182.545 54.6925 183.14 54.6925C183.508 54.6925 183.862 54.7427 184.203 54.8409C184.543 54.9408 184.84 55.0937 185.094 55.3025C185.348 55.5107 185.551 55.7788 185.703 56.105C185.854 56.4311 185.93 56.8177 185.93 57.2612V61.5912H184.47V57.6162C184.47 57.3041 184.422 57.0372 184.325 56.8137C184.227 56.592 184.098 56.4119 183.935 56.2754C183.773 56.1377 183.586 56.0389 183.376 55.9769C183.165 55.9159 182.946 55.8843 182.719 55.8843C182.416 55.8843 182.135 55.9278 181.875 56.013C181.617 56.0982 181.39 56.2325 181.194 56.4176C181 56.6021 180.848 56.8357 180.74 57.1202C180.631 57.4034 180.578 57.7403 180.578 58.1274V61.5918H179.119V54.8623H179.12Z" fill="black"/>
<path d="M192.707 55.9691H190.615V59.0214C190.615 59.2111 190.62 59.3967 190.631 59.5824C190.642 59.7658 190.683 59.9317 190.752 60.0778C190.822 60.2257 190.931 60.3431 191.076 60.4328C191.223 60.5231 191.435 60.5682 191.717 60.5682C191.89 60.5682 192.068 60.5541 192.252 60.5265C192.435 60.4977 192.603 60.4446 192.755 60.3696V61.5338C192.582 61.6178 192.358 61.6782 192.082 61.7104C191.806 61.7442 191.593 61.7612 191.441 61.7612C190.88 61.7612 190.444 61.6929 190.136 61.5546C189.829 61.4181 189.602 61.2403 189.455 61.0236C189.309 60.8052 189.222 60.562 189.195 60.2923C189.169 60.022 189.156 59.75 189.156 59.4757V55.9696H187.469V54.8625H189.156V52.9748H190.615V54.8625H192.707V55.9691Z" fill="black"/>
<path d="M0.579956 38.9022H2.0515L4.87698 44.6232H4.90075L7.75 38.9022H9.18714V46.1999H8.19797V40.0776H8.17357L5.18355 46.1999H4.58229L1.59165 40.0776H1.56912V46.1999H0.579956V38.9022Z" fill="black"/>
<path d="M12.2353 43.7877C12.2353 44.0422 12.2809 44.277 12.371 44.4937C12.4617 44.7104 12.5931 44.9 12.7664 45.0614C12.9379 45.2228 13.145 45.3497 13.3833 45.4428C13.6223 45.536 13.892 45.5822 14.1898 45.5822C14.4889 45.5822 14.7579 45.536 14.9975 45.4428C15.2359 45.3497 15.443 45.2228 15.6157 45.0614C15.7865 44.9 15.9198 44.7104 16.0092 44.4937C16.1 44.277 16.145 44.0422 16.145 43.7877C16.145 43.5338 16.1 43.2985 16.0092 43.0818C15.9198 42.8656 15.7871 42.6766 15.6157 42.5141C15.443 42.3538 15.2359 42.2263 14.9975 42.1337C14.7579 42.0412 14.4889 41.9943 14.1898 41.9943C13.892 41.9943 13.6223 42.0412 13.3833 42.1337C13.145 42.2263 12.9379 42.3538 12.7664 42.5141C12.5938 42.6766 12.4617 42.8656 12.371 43.0818C12.2816 43.2985 12.2353 43.5338 12.2353 43.7877ZM11.2461 43.7877C11.2461 43.4102 11.3212 43.0665 11.4707 42.7573C11.6196 42.4475 11.8236 42.1817 12.0826 41.9582C12.3416 41.7353 12.6513 41.5621 13.013 41.4385C13.3733 41.3138 13.7656 41.2517 14.1898 41.2517C14.6146 41.2517 15.0069 41.3138 15.3679 41.4385C15.7283 41.5621 16.0386 41.7353 16.2977 41.9582C16.5567 42.1817 16.7606 42.4475 16.9102 42.7573C17.0597 43.0665 17.1342 43.4102 17.1342 43.7877C17.1342 44.1658 17.0597 44.51 16.9102 44.8193C16.7613 45.128 16.5573 45.3949 16.2977 45.6178C16.038 45.8407 15.7283 46.0139 15.3679 46.1381C15.0069 46.2622 14.6146 46.3232 14.1898 46.3232C13.7656 46.3232 13.3733 46.2622 13.013 46.1381C12.6513 46.0139 12.3416 45.8412 12.0826 45.6178C11.8242 45.3943 11.6202 45.128 11.4707 44.8193C11.3218 44.51 11.2461 44.1658 11.2461 43.7877Z" fill="black"/>
<path d="M19.0312 38.4083H19.9497V42.0458H19.9729C20.0361 41.9505 20.1224 41.8556 20.2325 41.7631C20.3414 41.6706 20.4746 41.5865 20.6273 41.5114C20.78 41.4352 20.9508 41.3732 21.1391 41.3252C21.3268 41.2772 21.5276 41.2535 21.7397 41.2535C22.1007 41.2535 22.4129 41.3015 22.6757 41.3974C22.9385 41.4939 23.1568 41.6277 23.3295 41.7998C23.501 41.9719 23.6292 42.1796 23.7118 42.4228C23.7944 42.6677 23.8357 42.9335 23.8357 43.2213V46.2003H22.9166V43.3037C22.9166 42.8985 22.814 42.5797 22.6094 42.3455C22.4061 42.1119 22.0882 41.9945 21.6571 41.9945C21.3581 41.9945 21.1016 42.0396 20.8863 42.1293C20.6692 42.2185 20.4928 42.3455 20.3558 42.5097C20.2187 42.675 20.1161 42.8714 20.0504 43.0977C19.9835 43.324 19.9497 43.5762 19.9497 43.8505V46.2003H19.0312V38.4083Z" fill="black"/>
<path d="M28.6398 43.8824C28.051 43.8824 27.5837 43.9546 27.2383 44.0985C26.8923 44.2424 26.7209 44.48 26.7209 44.8101C26.7209 45.1121 26.8366 45.3271 27.0681 45.454C27.299 45.5816 27.5887 45.6448 27.9328 45.6448C28.2006 45.6448 28.4339 45.6058 28.6335 45.5263C28.8344 45.4467 29.0008 45.3429 29.1347 45.2119C29.2679 45.081 29.3705 44.9287 29.4406 44.7532C29.5113 44.5782 29.5514 44.3897 29.5582 44.1911V43.8824H28.6398ZM25.9776 41.9954C26.261 41.7409 26.5958 41.5546 26.9843 41.4333C27.3734 41.3131 27.7689 41.2539 28.1687 41.2539C28.9845 41.2539 29.5733 41.4215 29.9349 41.7589C30.2959 42.0947 30.4761 42.6071 30.4761 43.2955V45.3666C30.4761 45.5048 30.4842 45.6476 30.4999 45.7943C30.5155 45.9422 30.5362 46.0782 30.5587 46.2017H29.6752C29.644 46.0923 29.6264 45.9704 29.6221 45.8361C29.6183 45.7023 29.6171 45.5838 29.6171 45.4805H29.5933C29.4125 45.7283 29.1703 45.9309 28.87 46.0894C28.5672 46.2469 28.2037 46.3253 27.7795 46.3253C27.498 46.3253 27.2327 46.2948 26.9843 46.2333C26.7378 46.1718 26.5219 46.0798 26.338 45.9602C26.1522 45.84 26.0058 45.6905 25.8956 45.5116C25.7855 45.3327 25.7305 45.1267 25.7305 44.8931C25.7305 44.4941 25.8481 44.1815 26.0833 43.9558C26.3186 43.7278 26.612 43.5602 26.9605 43.4496C27.3109 43.3407 27.6863 43.2713 28.0911 43.2447C28.4953 43.2171 28.8663 43.2035 29.2041 43.2035H29.557V43.0591C29.557 42.7087 29.4381 42.4434 29.1972 42.2645C28.9582 42.0868 28.6229 41.9971 28.1912 41.9971C27.8927 41.9971 27.6006 42.0394 27.314 42.1263C27.0275 42.2115 26.7753 42.3447 26.5551 42.523L25.9776 41.9954Z" fill="black"/>
<path d="M32.6335 42.5203C32.6335 42.3008 32.6241 42.0948 32.6091 41.9012C32.5941 41.7088 32.5859 41.5344 32.5859 41.3753H33.4581C33.4581 41.5062 33.4619 41.6371 33.4694 41.7664C33.4769 41.8967 33.4825 42.0321 33.4825 42.1693H33.505C33.5676 42.0519 33.6564 41.939 33.7697 41.8284C33.8842 41.7195 34.0187 41.6208 34.1764 41.5344C34.3334 41.4492 34.5086 41.3798 34.7057 41.3284C34.9027 41.2765 35.1149 41.2517 35.3426 41.2517C35.641 41.2517 35.8894 41.2839 36.0896 41.3488C36.2898 41.4148 36.4569 41.4938 36.5902 41.5863C36.7234 41.6795 36.8279 41.7788 36.903 41.8849C36.9774 41.991 37.0375 42.0852 37.085 42.1687C37.2884 41.8798 37.5243 41.6552 37.792 41.4938C38.0586 41.3324 38.4046 41.2517 38.8281 41.2517C39.2204 41.2517 39.5501 41.2968 39.816 41.39C40.0838 41.4831 40.2984 41.6168 40.4649 41.7923C40.6294 41.9678 40.747 42.1806 40.8171 42.4317C40.8872 42.6828 40.9235 42.9627 40.9235 43.2714V46.199H40.0044V43.3131C40.0044 43.1478 39.985 42.987 39.9456 42.8284C39.9061 42.6709 39.8354 42.5299 39.7328 42.4057C39.6315 42.2821 39.4932 42.1823 39.3218 42.1072C39.1491 42.0321 38.9289 41.9938 38.6617 41.9938C38.4659 41.9938 38.2813 42.0293 38.1092 42.097C37.9366 42.1665 37.7839 42.2624 37.6556 42.386C37.5255 42.5096 37.4229 42.6591 37.3484 42.8346C37.274 43.0101 37.2365 43.2042 37.2365 43.417V46.2002H36.3174V43.4683C36.3174 42.9334 36.2348 42.553 36.0696 42.3295C35.9057 42.1061 35.6354 41.9938 35.2581 41.9938C34.9591 41.9938 34.7025 42.0389 34.4873 42.1275C34.2702 42.2178 34.0938 42.3448 33.9568 42.509C33.8191 42.6743 33.7171 42.8707 33.6514 43.097C33.5845 43.3233 33.5507 43.575 33.5507 43.8498V46.1996H32.6329V42.5203H32.6335Z" fill="black"/>
<path d="M43.1342 42.5202C43.1342 42.3007 43.1261 42.0948 43.1117 41.9012C43.096 41.7088 43.0879 41.5344 43.0879 41.3753H43.9588C43.9588 41.5062 43.9632 41.6371 43.9713 41.7663C43.9788 41.8967 43.9832 42.0321 43.9832 42.1692H44.0064C44.0696 42.0519 44.1571 41.939 44.2716 41.8284C44.3855 41.7195 44.5206 41.6207 44.6771 41.5344C44.8341 41.4492 45.0112 41.3798 45.2082 41.3284C45.4041 41.2765 45.6162 41.2517 45.8439 41.2517C46.1436 41.2517 46.3914 41.2838 46.591 41.3487C46.7912 41.4148 46.9588 41.4938 47.0921 41.5863C47.2254 41.6794 47.3292 41.7787 47.4043 41.8848C47.4781 41.9909 47.5395 42.0852 47.5864 42.1687C47.7903 41.8797 48.0256 41.6552 48.2934 41.4938C48.5593 41.3324 48.9053 41.2517 49.3288 41.2517C49.7211 41.2517 50.0515 41.2968 50.318 41.3899C50.5852 41.483 50.801 41.6168 50.9656 41.7923C51.1307 41.9678 51.2477 42.1805 51.3184 42.4316C51.3898 42.6822 51.4242 42.9627 51.4242 43.2713V46.199H50.5057V43.3131C50.5057 43.1478 50.4869 42.9869 50.4475 42.8284C50.4068 42.6709 50.3368 42.5298 50.2354 42.4057C50.1328 42.2821 49.9952 42.1822 49.8231 42.1072C49.6504 42.0321 49.4302 41.9937 49.163 41.9937C48.9672 41.9937 48.7833 42.0293 48.61 42.097C48.4373 42.1664 48.2852 42.2624 48.1563 42.3859C48.0268 42.5095 47.9242 42.6591 47.8504 42.8346C47.7753 43.0101 47.7384 43.2042 47.7384 43.4169V46.2001H46.8193V43.4683C46.8193 42.9333 46.7374 42.553 46.5722 42.3295C46.407 42.106 46.1367 41.9937 45.7595 41.9937C45.461 41.9937 45.2032 42.0389 44.9886 42.1275C44.7715 42.2178 44.5957 42.3447 44.4581 42.509C44.3204 42.6743 44.2185 42.8707 44.1521 43.097C44.0858 43.3233 44.0527 43.5749 44.0527 43.8498V46.1996H43.1336L43.1342 42.5202Z" fill="black"/>
<path d="M57.7719 43.3556C57.7556 42.9431 57.6036 42.6141 57.3126 42.3658C57.0223 42.1187 56.6219 41.9945 56.112 41.9945C55.6015 41.9945 55.1891 42.1192 54.8751 42.3658C54.561 42.6136 54.372 42.9426 54.3101 43.3556H57.7719ZM58.5602 45.324C58.2311 45.6958 57.8695 45.9549 57.4772 46.1033C57.0849 46.2511 56.63 46.3245 56.1114 46.3245C55.6797 46.3245 55.2905 46.2579 54.9451 46.1241C54.5998 45.9904 54.307 45.8104 54.068 45.583C53.829 45.3567 53.6438 45.0886 53.5149 44.7788C53.386 44.469 53.3203 44.1395 53.3203 43.789C53.3203 43.4183 53.391 43.0763 53.5324 42.7642C53.6738 42.451 53.8696 42.1836 54.1205 41.9595C54.3714 41.7355 54.6705 41.5623 55.0158 41.4392C55.3606 41.3151 55.7379 41.2541 56.1464 41.2541C56.5318 41.2541 56.8853 41.3106 57.2069 41.424C57.5279 41.5369 57.8044 41.7016 58.0365 41.9183C58.2668 42.135 58.4463 42.3997 58.5708 42.7123C58.6966 43.025 58.7598 43.3805 58.7598 43.78V44.0368H54.3095C54.3251 44.2427 54.3814 44.4408 54.4797 44.6293C54.5779 44.8189 54.7055 44.9842 54.8619 45.1248C55.019 45.2653 55.2042 45.3764 55.4156 45.4594C55.6271 45.5423 55.8599 45.5835 56.1107 45.5835C56.5112 45.5835 56.8478 45.522 57.1224 45.3984C57.3977 45.2749 57.6455 45.0926 57.8651 44.8516L58.5602 45.324Z" fill="black"/>
<path d="M65.2362 43.7883C65.2362 43.5344 65.1911 43.2991 65.1004 43.083C65.0109 42.8663 64.8789 42.6766 64.7056 42.5153C64.5336 42.3544 64.3277 42.2269 64.0881 42.1338C63.8491 42.0412 63.5801 41.9944 63.2816 41.9944C62.9832 41.9944 62.7141 42.0412 62.4751 42.1338C62.2361 42.2269 62.0297 42.3544 61.857 42.5153C61.6843 42.6766 61.5529 42.8663 61.4622 43.083C61.3727 43.2991 61.3271 43.5344 61.3271 43.7883C61.3271 44.0428 61.3727 44.2787 61.4622 44.4949C61.5529 44.7116 61.6837 44.9006 61.857 45.0626C62.0297 45.2234 62.2361 45.3504 62.4751 45.4429C62.7141 45.5355 62.9838 45.5823 63.2816 45.5823C63.5807 45.5823 63.8491 45.5355 64.0881 45.4429C64.3277 45.3504 64.5336 45.2234 64.7056 45.0626C64.8783 44.9006 65.0109 44.7116 65.1004 44.4949C65.1911 44.2787 65.2362 44.0428 65.2362 43.7883ZM65.2362 45.3458H65.2124C65.041 45.6201 64.7669 45.8515 64.394 46.0411C64.0211 46.2296 63.5882 46.3238 63.0933 46.3238C62.7079 46.3238 62.3475 46.2606 62.0103 46.1331C61.6724 46.0061 61.3796 45.83 61.1325 45.602C60.8847 45.3757 60.6908 45.1077 60.55 44.7985C60.4086 44.4898 60.3379 44.1529 60.3379 43.7883C60.3379 43.4238 60.4086 43.0886 60.55 42.7782C60.6908 42.469 60.8878 42.2009 61.1387 41.9746C61.389 41.7478 61.6943 41.5706 62.0509 41.4436C62.4076 41.3167 62.8024 41.2535 63.2347 41.2535C63.6351 41.2535 64.0017 41.3251 64.3358 41.469C64.6693 41.6146 64.9615 41.8155 65.2124 42.0779H65.2362V38.4082H66.1546V46.2008H65.2362V45.3458Z" fill="black"/>
<path d="M73.2201 45.3963H74.8931C75.1365 45.3963 75.3774 45.3743 75.617 45.3297C75.856 45.2857 76.0719 45.2129 76.2646 45.113C76.4573 45.0137 76.6118 44.8828 76.7288 44.7219C76.8477 44.56 76.9059 44.3619 76.9059 44.1294C76.9059 43.8749 76.849 43.6616 76.7363 43.49C76.6218 43.3174 76.4723 43.1802 76.2877 43.0775C76.1032 42.9748 75.8917 42.902 75.6514 42.8608C75.4118 42.8196 75.1672 42.7993 74.915 42.7993H73.2195V45.3963H73.2201ZM73.2201 41.9946H74.5866C74.8218 41.9946 75.0521 41.9811 75.276 41.9534C75.5 41.9258 75.7015 41.8693 75.8836 41.7836C76.0625 41.6978 76.2083 41.577 76.3178 41.423C76.4273 41.2678 76.4829 41.0629 76.4829 40.8096C76.4829 40.5821 76.431 40.3982 76.3297 40.2571C76.2277 40.1171 76.0919 40.0054 75.9242 39.9225C75.7553 39.8401 75.5632 39.7836 75.3474 39.752C75.1309 39.7204 74.9138 39.7058 74.6936 39.7058H73.2208L73.2201 41.9946ZM72.231 38.9022H74.7743C75.1203 38.9022 75.4581 38.9332 75.7872 38.9953C76.1163 39.0568 76.4116 39.1589 76.6706 39.2995C76.9297 39.4405 77.1386 39.6239 77.3013 39.8508C77.4608 40.0776 77.5422 40.3592 77.5422 40.6967C77.5422 41.1222 77.4102 41.4743 77.1474 41.752C76.8852 42.0313 76.5286 42.2282 76.0819 42.3456V42.3659C76.3497 42.3862 76.5974 42.4472 76.8289 42.5465C77.0604 42.647 77.26 42.7751 77.4302 42.9336C77.5991 43.0911 77.7305 43.275 77.8244 43.4855C77.9182 43.6943 77.9658 43.92 77.9658 44.1599C77.9658 44.5662 77.8707 44.8986 77.678 45.1593C77.4846 45.4211 77.2337 45.6282 76.924 45.7828C76.6143 45.9374 76.2646 46.0452 75.8761 46.1079C75.4875 46.1699 75.1009 46.1999 74.7161 46.1999H72.2303L72.231 38.9022Z" fill="black"/>
<path d="M80.0383 41.3766H80.9574V46.2003H80.0383V41.3766ZM79.8262 39.4895C79.8262 39.3321 79.8912 39.195 80.0201 39.0776C80.1503 38.9608 80.3092 38.9021 80.4981 38.9021C80.6858 38.9021 80.8447 38.9608 80.9749 39.0776C81.1044 39.195 81.1688 39.3321 81.1688 39.4895C81.1688 39.6622 81.1056 39.8027 80.9805 39.9133C80.8548 40.0222 80.6946 40.0776 80.4981 40.0776C80.3017 40.0776 80.1403 40.0222 80.0151 39.9133C79.8881 39.8027 79.8262 39.6622 79.8262 39.4895Z" fill="black"/>
<path d="M83.254 42.5203C83.254 42.3008 83.2452 42.0948 83.2308 41.9012C83.2152 41.7088 83.207 41.5344 83.207 41.3753H84.0792C84.0792 41.5062 84.083 41.6371 84.0905 41.7664C84.0986 41.8967 84.1036 42.0321 84.1036 42.1693H84.1267C84.1893 42.0519 84.2775 41.939 84.3914 41.8284C84.5053 41.7195 84.6404 41.6208 84.7981 41.5344C84.9545 41.4492 85.1303 41.3798 85.3274 41.3284C85.5232 41.2765 85.7353 41.2517 85.9631 41.2517C86.3241 41.2517 86.6369 41.2997 86.8997 41.3956C87.1631 41.4921 87.3808 41.6258 87.5535 41.798C87.7249 41.9701 87.8532 42.1777 87.9358 42.421C88.0183 42.6659 88.0603 42.9317 88.0603 43.2195V46.1985H87.1412V43.3018C87.1412 42.8967 87.0386 42.5773 86.834 42.3436C86.6306 42.11 86.3128 41.9926 85.8811 41.9926C85.5827 41.9926 85.3255 42.0378 85.1097 42.1264C84.8926 42.2167 84.7174 42.3436 84.5804 42.5079C84.4427 42.6732 84.3401 42.8696 84.2738 43.0959C84.2075 43.3222 84.1737 43.5738 84.1737 43.8487V46.1985H83.2552V42.5203H83.254Z" fill="black"/>
<path d="M95.1689 42.1187H96.0517C96.3257 42.1187 96.611 42.1113 96.9051 42.0978C97.1991 42.0842 97.4707 42.0391 97.7184 41.9635C97.9662 41.8884 98.1695 41.7699 98.3309 41.608C98.4917 41.4466 98.5718 41.2146 98.5718 40.9127C98.5718 40.6509 98.5136 40.4421 98.396 40.2841C98.2784 40.1261 98.1232 40.0036 97.9305 39.9178C97.7384 39.8326 97.5226 39.7756 97.283 39.748C97.044 39.7203 96.8018 39.7068 96.5591 39.7068H95.1695L95.1689 42.1187ZM94.1797 38.9021H96.3113C96.7124 38.9021 97.109 38.923 97.5063 38.9642C97.903 39.0048 98.2571 39.0945 98.5712 39.2316C98.8859 39.3699 99.1412 39.5714 99.3376 39.8349C99.5334 40.0996 99.6323 40.4579 99.6323 40.9122C99.6323 41.4488 99.4465 41.8811 99.078 42.2106C98.7095 42.5408 98.1995 42.7507 97.547 42.8399L99.9139 46.1998H98.7013L96.4408 42.9217H95.1689V46.1998H94.1797V38.9021Z" fill="black"/>
<path d="M104.271 43.8824C103.683 43.8824 103.215 43.9546 102.87 44.0985C102.526 44.2424 102.353 44.48 102.353 44.8101C102.353 45.1121 102.469 45.3271 102.7 45.454C102.932 45.5816 103.22 45.6448 103.566 45.6448C103.833 45.6448 104.066 45.6058 104.266 45.5263C104.466 45.4467 104.633 45.3429 104.767 45.2119C104.9 45.081 105.003 44.9287 105.073 44.7532C105.144 44.5782 105.183 44.3897 105.19 44.1911V43.8824H104.271ZM101.61 41.9954C101.893 41.7409 102.228 41.5546 102.617 41.4333C103.006 41.3131 103.401 41.2539 103.801 41.2539C104.617 41.2539 105.205 41.4215 105.567 41.7589C105.928 42.0947 106.108 42.6071 106.108 43.2955V45.3666C106.108 45.5048 106.116 45.6476 106.132 45.7943C106.147 45.9422 106.168 46.0782 106.191 46.2017H105.308C105.277 46.0923 105.259 45.9704 105.255 45.8361C105.25 45.7023 105.249 45.5838 105.249 45.4805H105.225C105.044 45.7283 104.803 45.9309 104.502 46.0894C104.2 46.2469 103.836 46.3253 103.412 46.3253C103.13 46.3253 102.865 46.2948 102.617 46.2333C102.369 46.1718 102.154 46.0798 101.97 45.9602C101.785 45.84 101.638 45.6905 101.528 45.5116C101.418 45.3327 101.363 45.1267 101.363 44.8931C101.363 44.4941 101.481 44.1815 101.716 43.9558C101.952 43.7278 102.244 43.5602 102.593 43.4496C102.942 43.3407 103.318 43.2713 103.724 43.2447C104.128 43.2171 104.498 43.2035 104.836 43.2035H105.189V43.0591C105.189 42.7087 105.07 42.4434 104.829 42.2645C104.591 42.0868 104.255 41.9971 103.824 41.9971C103.526 41.9971 103.233 42.0394 102.947 42.1263C102.66 42.2115 102.408 42.3447 102.187 42.523L101.61 41.9954Z" fill="black"/>
<path d="M108.382 44.9332C108.562 45.1324 108.76 45.2904 108.976 45.4083C109.192 45.524 109.465 45.5827 109.795 45.5827C109.937 45.5827 110.079 45.5691 110.224 45.5415C110.37 45.5138 110.502 45.4698 110.619 45.4089C110.737 45.3468 110.831 45.2689 110.902 45.1753C110.972 45.0827 111.008 44.971 111.008 44.8406C111.008 44.7103 110.975 44.6036 110.908 44.5212C110.841 44.4388 110.753 44.3689 110.643 44.3102C110.533 44.252 110.407 44.2058 110.266 44.1713C110.125 44.1364 109.979 44.1064 109.83 44.0788C109.571 44.0297 109.323 43.9755 109.088 43.9135C108.853 43.8514 108.647 43.7718 108.471 43.6708C108.294 43.5709 108.152 43.4434 108.047 43.2842C107.94 43.1262 107.887 42.9231 107.887 42.6765C107.887 42.4423 107.946 42.2363 108.063 42.0574C108.181 41.8791 108.339 41.7313 108.535 41.6144C108.731 41.4971 108.951 41.4079 109.194 41.3458C109.438 41.2843 109.688 41.2539 109.948 41.2539C110.34 41.2539 110.703 41.3221 111.037 41.4593C111.371 41.5964 111.632 41.8199 111.82 42.1291L111.055 42.5732C110.936 42.4011 110.781 42.2623 110.589 42.1551C110.396 42.049 110.163 41.9959 109.888 41.9959C109.763 41.9959 109.636 42.0095 109.506 42.0371C109.377 42.0648 109.26 42.1054 109.16 42.1607C109.057 42.216 108.972 42.2871 108.906 42.3718C108.839 42.4581 108.806 42.5557 108.806 42.6658C108.806 42.7685 108.844 42.8559 108.917 42.9282C108.992 43.0015 109.094 43.0647 109.224 43.1189C109.353 43.1742 109.502 43.2227 109.671 43.2639C109.841 43.3046 110.015 43.3395 110.196 43.3672C110.439 43.4078 110.671 43.4609 110.89 43.5269C111.11 43.5929 111.302 43.6798 111.467 43.7893C111.633 43.8999 111.762 44.037 111.856 44.2013C111.949 44.366 111.998 44.5686 111.998 44.8101C111.998 45.0844 111.934 45.318 111.809 45.5105C111.683 45.7029 111.516 45.8592 111.308 45.9794C111.1 46.1002 110.864 46.1871 110.602 46.2424C110.338 46.2977 110.069 46.3248 109.795 46.3248C109.323 46.3248 108.917 46.2616 108.576 46.1346C108.235 46.0076 107.926 45.7717 107.652 45.4281L108.382 44.9332Z" fill="black"/>
<path d="M113.752 38.4082H114.67V42.0458H114.694C114.756 41.9504 114.842 41.8556 114.953 41.763C115.062 41.6705 115.195 41.5864 115.347 41.5113C115.501 41.4352 115.671 41.3731 115.859 41.3251C116.047 41.2772 116.248 41.2535 116.46 41.2535C116.821 41.2535 117.133 41.3014 117.396 41.3974C117.659 41.4939 117.877 41.6276 118.05 41.7997C118.222 41.9718 118.35 42.1795 118.433 42.4227C118.515 42.6676 118.556 42.9334 118.556 43.2212V46.2002H117.637V43.3036C117.637 42.8984 117.535 42.5796 117.331 42.3454C117.127 42.1118 116.809 41.9944 116.377 41.9944C116.079 41.9944 115.822 42.0395 115.606 42.1293C115.39 42.2184 115.213 42.3454 115.076 42.5096C114.939 42.675 114.837 42.8713 114.771 43.0976C114.704 43.3239 114.67 43.5762 114.67 43.8504V46.2002H113.752V38.4082Z" fill="black"/>
<path d="M120.853 41.3766H121.772V46.2003H120.853V41.3766ZM120.641 39.4895C120.641 39.3321 120.706 39.195 120.835 39.0776C120.965 38.9608 121.124 38.9021 121.313 38.9021C121.502 38.9021 121.659 38.9608 121.79 39.0776C121.919 39.195 121.985 39.3321 121.985 39.4895C121.985 39.6622 121.921 39.8027 121.795 39.9133C121.67 40.0222 121.51 40.0776 121.313 40.0776C121.117 40.0776 120.955 40.0222 120.83 39.9133C120.704 39.8027 120.641 39.6622 120.641 39.4895Z" fill="black"/>
<path d="M128.647 43.7884C128.647 43.5345 128.601 43.2992 128.511 43.083C128.421 42.8663 128.29 42.6767 128.116 42.5153C127.944 42.3545 127.738 42.227 127.499 42.1339C127.259 42.0413 126.99 41.9945 126.692 41.9945C126.394 41.9945 126.125 42.0413 125.885 42.1339C125.646 42.227 125.44 42.3545 125.268 42.5153C125.095 42.6767 124.963 42.8663 124.873 43.083C124.783 43.2992 124.737 43.5345 124.737 43.7884C124.737 44.0429 124.783 44.2788 124.873 44.4949C124.963 44.7116 125.095 44.9007 125.268 45.0626C125.44 45.2235 125.646 45.3504 125.885 45.443C126.125 45.5355 126.394 45.5824 126.692 45.5824C126.991 45.5824 127.259 45.5355 127.499 45.443C127.738 45.3504 127.944 45.2235 128.116 45.0626C128.289 44.9007 128.421 44.7116 128.511 44.4949C128.601 44.2788 128.647 44.0429 128.647 43.7884ZM128.647 45.3459H128.623C128.451 45.6202 128.178 45.8515 127.805 46.0411C127.432 46.2296 126.998 46.3239 126.505 46.3239C126.119 46.3239 125.758 46.2607 125.421 46.1331C125.083 46.0062 124.79 45.8301 124.543 45.6021C124.296 45.3758 124.102 45.1078 123.96 44.7985C123.819 44.4899 123.748 44.153 123.748 43.7884C123.748 43.4239 123.819 43.0887 123.96 42.7783C124.102 42.4691 124.298 42.201 124.55 41.9747C124.8 41.7479 125.105 41.5707 125.461 41.4437C125.818 41.3167 126.213 41.2535 126.646 41.2535C127.046 41.2535 127.413 41.3252 127.746 41.4691C128.08 41.6147 128.372 41.8156 128.623 42.078H128.647V38.4083H129.565V46.2009H128.647V45.3459Z" fill="black"/>
<path d="M141.481 40.4076C141.23 40.1119 140.921 39.8906 140.551 39.7434C140.182 39.5944 139.798 39.521 139.398 39.521C138.934 39.521 138.508 39.6034 138.119 39.7682C137.732 39.9324 137.396 40.1559 137.113 40.4341C136.831 40.7117 136.61 41.0351 136.453 41.403C136.296 41.7704 136.219 42.153 136.219 42.5519C136.219 42.978 136.296 43.3747 136.453 43.7421C136.61 44.11 136.828 44.4294 137.107 44.7008C137.386 44.9723 137.72 45.1867 138.108 45.3447C138.497 45.5039 138.927 45.5829 139.398 45.5829C139.908 45.5829 140.364 45.4948 140.764 45.3193C141.165 45.1438 141.513 44.8921 141.813 44.5609L142.554 45.1077C142.177 45.5479 141.724 45.8712 141.194 46.0772C140.663 46.2832 140.065 46.3864 139.399 46.3864C138.801 46.3864 138.245 46.2899 137.727 46.0975C137.208 45.9056 136.759 45.6393 136.378 45.299C135.997 44.9587 135.699 44.5552 135.483 44.0874C135.267 43.6207 135.158 43.1089 135.158 42.5519C135.158 42.0158 135.263 41.5136 135.471 41.0464C135.679 40.5802 135.972 40.1739 136.348 39.8297C136.725 39.4872 137.172 39.2157 137.69 39.0171C138.209 38.8173 138.778 38.718 139.398 38.718C139.963 38.718 140.507 38.8072 141.029 38.9861C141.551 39.1649 141.988 39.4567 142.341 39.8624L141.481 40.4076Z" fill="black"/>
<path d="M148.371 43.3556C148.355 42.9431 148.202 42.6141 147.912 42.3658C147.621 42.1187 147.221 41.9945 146.711 41.9945C146.2 41.9945 145.788 42.1192 145.475 42.3658C145.161 42.6136 144.972 42.9426 144.91 43.3556H148.371ZM149.16 45.324C148.831 45.6958 148.47 45.9549 148.077 46.1033C147.685 46.2511 147.23 46.3245 146.711 46.3245C146.279 46.3245 145.89 46.2579 145.545 46.1241C145.199 45.9904 144.907 45.8104 144.668 45.583C144.429 45.3567 144.243 45.0886 144.115 44.7788C143.985 44.469 143.92 44.1395 143.92 43.789C143.92 43.4183 143.991 43.0763 144.132 42.7642C144.273 42.451 144.469 42.1836 144.721 41.9595C144.972 41.7361 145.271 41.5623 145.615 41.4392C145.961 41.3151 146.337 41.2541 146.746 41.2541C147.131 41.2541 147.485 41.3106 147.807 41.424C148.128 41.5369 148.404 41.7016 148.636 41.9183C148.867 42.135 149.046 42.3997 149.171 42.7123C149.297 43.025 149.36 43.3805 149.36 43.78V44.0368H144.91C144.925 44.2427 144.981 44.4408 145.079 44.6293C145.177 44.8189 145.305 44.9842 145.462 45.1248C145.619 45.2653 145.803 45.3764 146.015 45.4594C146.227 45.5423 146.459 45.5835 146.71 45.5835C147.111 45.5835 147.447 45.522 147.723 45.3984C147.997 45.2749 148.244 45.0926 148.465 44.8516L149.16 45.324Z" fill="black"/>
<path d="M151.254 42.5203C151.254 42.3008 151.245 42.0948 151.231 41.9012C151.215 41.7088 151.207 41.5344 151.207 41.3753H152.079C152.079 41.5062 152.083 41.6371 152.09 41.7664C152.099 41.8967 152.104 42.0321 152.104 42.1693H152.127C152.19 42.0519 152.278 41.939 152.391 41.8284C152.505 41.7195 152.64 41.6208 152.797 41.5344C152.954 41.4492 153.13 41.3798 153.327 41.3284C153.524 41.2765 153.736 41.2517 153.964 41.2517C154.325 41.2517 154.637 41.2997 154.9 41.3956C155.163 41.4921 155.381 41.6258 155.553 41.798C155.725 41.9701 155.853 42.1777 155.936 42.421C156.018 42.6659 156.06 42.9317 156.06 43.2195V46.1985H155.141V43.3018C155.141 42.8967 155.038 42.5773 154.834 42.3436C154.631 42.11 154.313 41.9926 153.881 41.9926C153.583 41.9926 153.326 42.0378 153.11 42.1264C152.893 42.2167 152.717 42.3436 152.58 42.5079C152.443 42.6732 152.34 42.8696 152.274 43.0959C152.207 43.3222 152.174 43.5738 152.174 43.8487V46.1985H151.255V42.5203H151.254Z" fill="black"/>
<path d="M161.288 42.0582H159.663V44.4695C159.663 44.6281 159.666 44.7743 159.675 44.9074C159.683 45.0417 159.714 45.1591 159.769 45.259C159.824 45.3578 159.906 45.4373 160.016 45.4949C160.126 45.5536 160.283 45.5829 160.487 45.5829C160.621 45.5829 160.758 45.5694 160.9 45.5417C161.04 45.5141 161.174 45.4734 161.3 45.4181L161.336 46.15C161.179 46.2121 161.004 46.2561 160.811 46.2838C160.619 46.312 160.436 46.3244 160.263 46.3244C159.935 46.3244 159.671 46.2877 159.475 46.2121C159.279 46.1365 159.125 46.0298 159.016 45.8927C158.906 45.7556 158.834 45.5846 158.797 45.3826C158.762 45.1794 158.745 44.9543 158.745 44.7077V42.0582H157.543V41.3782H158.745V40.007H159.664V41.3782H161.288V42.0582H161.288Z" fill="black"/>
<path d="M167.022 43.3556C167.006 42.9431 166.853 42.6141 166.563 42.3658C166.271 42.1187 165.871 41.9945 165.361 41.9945C164.851 41.9945 164.439 42.1192 164.125 42.3658C163.811 42.6136 163.622 42.9426 163.56 43.3556H167.022ZM167.811 45.324C167.481 45.6958 167.12 45.9549 166.728 46.1033C166.336 46.2511 165.88 46.3245 165.361 46.3245C164.929 46.3245 164.541 46.2579 164.196 46.1241C163.85 45.9904 163.557 45.8104 163.319 45.583C163.08 45.3567 162.894 45.0886 162.765 44.7788C162.635 44.469 162.57 44.1395 162.57 43.789C162.57 43.4183 162.641 43.0763 162.782 42.7642C162.923 42.451 163.119 42.1836 163.371 41.9595C163.622 41.7361 163.921 41.5623 164.266 41.4392C164.611 41.3151 164.988 41.2541 165.397 41.2541C165.781 41.2541 166.135 41.3106 166.457 41.424C166.778 41.5369 167.054 41.7016 167.287 41.9183C167.517 42.135 167.696 42.3997 167.822 42.7123C167.947 43.025 168.01 43.3805 168.01 43.78V44.0368H163.56C163.575 44.2427 163.631 44.4408 163.73 44.6293C163.827 44.8189 163.956 44.9842 164.112 45.1248C164.27 45.2653 164.454 45.3764 164.666 45.4594C164.878 45.5423 165.11 45.5835 165.361 45.5835C165.761 45.5835 166.098 45.522 166.373 45.3984C166.648 45.2749 166.895 45.0926 167.115 44.8516L167.811 45.324Z" fill="black"/>
<path d="M169.907 42.5203C169.907 42.3008 169.898 42.0948 169.884 41.9012C169.868 41.7088 169.859 41.5344 169.859 41.3753H170.732C170.732 41.5062 170.736 41.6371 170.743 41.7664C170.751 41.8967 170.756 42.0321 170.756 42.1693H170.778C170.842 42.0519 170.93 41.939 171.044 41.8284C171.158 41.7195 171.293 41.6208 171.45 41.5344C171.607 41.4492 171.783 41.3798 171.98 41.3284C172.176 41.2765 172.388 41.2517 172.616 41.2517C172.679 41.2517 172.742 41.2551 172.805 41.2619C172.868 41.2686 172.93 41.2816 172.993 41.3031L172.934 42.1168C172.777 42.0756 172.612 42.0553 172.44 42.0553C171.875 42.0553 171.464 42.215 171.209 42.5349C170.954 42.8549 170.826 43.2928 170.826 43.8492V46.199H169.908V42.5203H169.907Z" fill="black"/>
<path d="M178.74 42.0579H177.539V41.3779H178.74V40.2944C178.74 40.0004 178.771 39.7295 178.834 39.4863C178.897 39.242 179.004 39.0304 179.158 38.8515C179.312 38.6731 179.514 38.5338 179.765 38.4344C180.015 38.3351 180.325 38.2849 180.694 38.2849C180.812 38.2849 180.938 38.2951 181.072 38.3159C181.205 38.3368 181.316 38.3679 181.401 38.409L181.272 39.1302C181.052 39.0614 180.843 39.027 180.648 39.027C180.412 39.027 180.228 39.0625 180.094 39.1348C179.96 39.2076 179.86 39.3069 179.795 39.4338C179.728 39.5614 179.688 39.7132 179.676 39.8921C179.664 40.0709 179.659 40.2634 179.659 40.4694V41.3768H181.002V42.0568H179.659V46.2005H178.74V42.0579H178.74Z" fill="black"/>
<path d="M183.118 43.7877C183.118 44.0422 183.163 44.277 183.254 44.4937C183.344 44.7104 183.475 44.9 183.648 45.0614C183.821 45.2228 184.027 45.3497 184.266 45.4428C184.506 45.536 184.774 45.5822 185.073 45.5822C185.371 45.5822 185.64 45.536 185.879 45.4428C186.119 45.3497 186.325 45.2228 186.497 45.0614C186.67 44.9 186.802 44.7104 186.892 44.4937C186.982 44.277 187.028 44.0422 187.028 43.7877C187.028 43.5338 186.982 43.2985 186.892 43.0818C186.802 42.8656 186.671 42.6766 186.497 42.5141C186.325 42.3538 186.119 42.2263 185.879 42.1337C185.64 42.0412 185.37 41.9943 185.073 41.9943C184.775 41.9943 184.506 42.0412 184.266 42.1337C184.027 42.2263 183.821 42.3538 183.648 42.5141C183.476 42.6766 183.344 42.8656 183.254 43.0818C183.164 43.2985 183.118 43.5338 183.118 43.7877ZM182.129 43.7877C182.129 43.4102 182.204 43.0665 182.353 42.7573C182.501 42.4475 182.705 42.1817 182.965 41.9582C183.224 41.7353 183.534 41.5621 183.895 41.4385C184.256 41.3138 184.648 41.2517 185.073 41.2517C185.497 41.2517 185.889 41.3138 186.25 41.4385C186.611 41.5621 186.921 41.7353 187.18 41.9582C187.439 42.1817 187.643 42.4475 187.793 42.7573C187.942 43.0665 188.016 43.4102 188.016 43.7877C188.016 44.1658 187.942 44.51 187.793 44.8193C187.643 45.128 187.439 45.3949 187.18 45.6178C186.921 45.8412 186.611 46.0139 186.25 46.1381C185.889 46.2622 185.497 46.3232 185.073 46.3232C184.648 46.3232 184.256 46.2622 183.895 46.1381C183.534 46.0139 183.224 45.8412 182.965 45.6178C182.706 45.3943 182.502 45.128 182.353 44.8193C182.205 44.51 182.129 44.1658 182.129 43.7877Z" fill="black"/>
<path d="M189.914 42.5203C189.914 42.3008 189.906 42.0948 189.891 41.9012C189.876 41.7088 189.867 41.5344 189.867 41.3753H190.739C190.739 41.5062 190.742 41.6371 190.751 41.7664C190.759 41.8967 190.764 42.0321 190.764 42.1693H190.787C190.849 42.0519 190.938 41.939 191.052 41.8284C191.165 41.7195 191.301 41.6208 191.458 41.5344C191.615 41.4492 191.79 41.3798 191.988 41.3284C192.183 41.2765 192.395 41.2517 192.623 41.2517C192.687 41.2517 192.749 41.2551 192.813 41.2619C192.875 41.2686 192.937 41.2816 193.001 41.3031L192.942 42.1168C192.785 42.0756 192.619 42.0553 192.447 42.0553C191.882 42.0553 191.472 42.215 191.217 42.5349C190.961 42.8549 190.834 43.2928 190.834 43.8492V46.199H189.915V42.5203H189.914Z" fill="black"/>
<path d="M3.74269 22.5311C3.74269 22.4476 3.77898 22.3782 3.85155 22.3234C3.9235 22.2681 4.00234 22.241 4.09055 22.241H5.10162C5.19797 22.241 5.2768 22.2681 5.33999 22.3234C5.40318 22.3782 5.43322 22.4476 5.43322 22.5311V23.5186C5.43322 23.5943 5.40256 23.6591 5.33999 23.715C5.2768 23.7692 5.19797 23.7968 5.10162 23.7968H4.09055C4.00234 23.7968 3.9235 23.7692 3.85155 23.715C3.77898 23.6591 3.74269 23.5943 3.74269 23.5186V22.5311ZM1.82067 28.2114C1.82067 28.6934 1.94142 29.0489 2.1823 29.2808C2.42255 29.5128 2.81796 29.629 3.36792 29.629H3.88096C4.07741 29.629 4.24321 29.6245 4.37898 29.616V26.5422C4.24321 26.5253 4.11808 26.5151 4.00234 26.5101C3.88659 26.5061 3.73831 26.505 3.55562 26.505C2.96687 26.505 2.53141 26.6387 2.24674 26.9085C1.96206 27.1788 1.82004 27.558 1.82004 28.0478V28.2114H1.82067ZM1.06925 22.5311C1.06925 22.4476 1.10304 22.3782 1.16998 22.3234C1.23755 22.2681 1.31889 22.241 1.41649 22.241H2.41379C2.50952 22.241 2.5946 22.2681 2.66656 22.3234C2.73913 22.3782 2.77479 22.4476 2.77479 22.5311V23.5186C2.77479 23.5943 2.73538 23.6591 2.65967 23.715C2.58209 23.7692 2.50013 23.7968 2.41316 23.7968H1.41586C1.31889 23.7968 1.23755 23.7692 1.16936 23.715C1.10241 23.6591 1.06862 23.5943 1.06862 23.5186L1.06925 22.5311ZM0 28.1612C0 27.1669 0.315332 26.3966 0.947247 25.8526C1.57728 25.3092 2.52829 25.0366 3.80087 25.0366C3.9942 25.0366 4.19379 25.0434 4.40088 25.0564C4.60797 25.0682 4.80756 25.0835 5.00026 25.1004C5.19359 25.1168 5.3744 25.1376 5.54271 25.1625C5.71038 25.1879 5.84803 25.2183 5.95439 25.2511C6.06013 25.2855 6.1277 25.3165 6.1571 25.3459C6.18588 25.3763 6.19902 25.4243 6.19902 25.492V28.9704C6.19902 29.2487 6.19777 29.5613 6.19277 29.9072C6.18714 30.2526 6.16586 30.5816 6.1277 30.8936C6.1277 30.9867 6.09892 31.0494 6.04073 31.0838C5.98317 31.1177 5.90496 31.138 5.80986 31.1464C5.39505 31.1628 5.01715 31.1763 4.67554 31.1842C4.33393 31.1921 4.00296 31.1967 3.68513 31.1967H3.39607C2.29804 31.1967 1.45716 30.9619 0.87467 30.4947C0.291557 30.0268 0.000625315 29.3327 0.000625315 28.4135L0 28.1612Z" fill="black"/>
<path d="M7.94814 29.8073C7.94814 29.7402 7.97692 29.6855 8.0351 29.6437C8.09329 29.6014 8.16023 29.5805 8.23782 29.5805H12.0087L11.9799 28.4287C11.9611 28.1178 11.9048 27.8413 11.8135 27.6009C11.7221 27.3594 11.5782 27.1551 11.3805 26.9863C11.1828 26.8182 10.9275 26.6901 10.6141 26.6015C10.3006 26.5118 9.91833 26.4677 9.46598 26.4677H9.29205H9.04554C8.95857 26.4677 8.87286 26.4694 8.78652 26.4745C8.69955 26.4796 8.6276 26.4858 8.56942 26.4931C8.38547 26.4931 8.29475 26.4316 8.29475 26.3052V25.3769C8.29475 25.3103 8.31602 25.2528 8.35982 25.2071C8.40362 25.1614 8.47807 25.1298 8.58443 25.1134C8.85409 25.0722 9.1225 25.0468 9.39278 25.0378C9.66307 25.0299 9.86515 25.0259 10.0009 25.0259C10.7135 25.0259 11.3079 25.119 11.7847 25.3036C12.2627 25.4887 12.6431 25.737 12.9265 26.0479C13.2105 26.36 13.4183 26.7194 13.5484 27.1274C13.6785 27.536 13.753 27.962 13.7718 28.409C13.7718 28.4761 13.7743 28.5726 13.7799 28.6985C13.7837 28.8254 13.7893 28.9648 13.7937 29.1161C13.798 29.2673 13.8012 29.4168 13.8012 29.5641V29.9236C13.8012 30.0415 13.798 30.2057 13.7937 30.4162C13.7887 30.6262 13.7774 30.8067 13.7574 30.9585C13.7574 31.0268 13.7305 31.0833 13.6779 31.1301C13.6241 31.1752 13.5453 31.1989 13.4389 31.1989H8.23719C8.15961 31.1989 8.09266 31.1781 8.03448 31.1363C7.97629 31.094 7.94751 31.0387 7.94751 30.971V29.8073H7.94814Z" fill="black"/>
<path d="M15.8535 21.8243C15.8535 21.7565 15.8817 21.6973 15.9399 21.6471C15.9974 21.5968 16.0706 21.5714 16.157 21.5714H17.4433C17.5397 21.5714 17.6122 21.5968 17.661 21.6471C17.7086 21.6979 17.7324 21.7565 17.7324 21.8243V28.9346C17.7324 29.2213 17.7999 29.3996 17.9351 29.4718C18.0696 29.5429 18.2723 29.5785 18.5432 29.5785H19.0193V31.198H18.007C17.6804 31.198 17.3839 31.1743 17.1192 31.1286C16.8533 31.0824 16.6275 30.9938 16.4391 30.8628C16.2521 30.7319 16.1069 30.5508 16.0062 30.3183C15.9054 30.0869 15.8548 29.7856 15.8548 29.4142V21.8243H15.8535Z" fill="black"/>
<path d="M23.7425 22.4698C23.7425 22.3857 23.7794 22.3169 23.8514 22.2605C23.9227 22.2057 24.0041 22.1781 24.091 22.1781H25.1015C25.1984 22.1781 25.2779 22.2057 25.3411 22.2605C25.4037 22.3169 25.4337 22.3857 25.4337 22.4698V23.4562C25.4337 23.5319 25.403 23.5973 25.3411 23.6526C25.2779 23.7079 25.1984 23.7344 25.1015 23.7344H24.091C24.0041 23.7344 23.9227 23.7079 23.8514 23.6526C23.7794 23.5973 23.7425 23.5319 23.7425 23.4562V22.4698ZM24.4226 29.6292V26.442C24.1329 26.4161 23.8207 26.4042 23.4829 26.4042C22.3367 26.4042 21.7636 26.8929 21.7636 27.8725V28.1C21.7636 28.5971 21.8862 28.9769 22.1321 29.2382C22.3773 29.5 22.7746 29.6298 23.3246 29.6298L24.4226 29.6292ZM21.0697 22.4698C21.0697 22.3857 21.1035 22.3169 21.1705 22.2605C21.238 22.2057 21.3206 22.1781 21.417 22.1781H22.4143C22.51 22.1781 22.5951 22.2057 22.667 22.2605C22.739 22.3169 22.7753 22.3857 22.7753 22.4698V23.4562C22.7753 23.5319 22.7371 23.5973 22.6595 23.6526C22.5832 23.7079 22.5006 23.7344 22.4136 23.7344H21.4163C21.3206 23.7344 21.238 23.7079 21.1698 23.6526C21.1029 23.5973 21.0691 23.5319 21.0691 23.4562L21.0697 22.4698ZM18.4395 29.7308C18.4395 29.6891 18.4926 29.6529 18.599 29.6236C18.7054 29.5943 18.8105 29.5796 18.9168 29.5796H20.5204C20.3377 29.4267 20.1957 29.2224 20.0949 28.9656C19.993 28.7083 19.9417 28.3985 19.9417 28.0362V27.7947C19.9417 27.3319 20.0311 26.9228 20.2094 26.5679C20.3884 26.214 20.6405 25.9189 20.969 25.683C21.2962 25.4466 21.6891 25.2682 22.1471 25.1452C22.6038 25.0228 23.1131 24.9624 23.6712 24.9624C23.8739 24.9624 24.0854 24.9658 24.3075 24.9742C24.5296 24.9827 24.743 24.9974 24.9507 25.0183C25.1578 25.0397 25.3536 25.0623 25.5357 25.0877C25.7196 25.1131 25.8729 25.1385 25.9987 25.1633C26.105 25.1887 26.172 25.2214 26.2001 25.2598C26.2295 25.2965 26.2439 25.3495 26.2439 25.4167V29.579H27.5009V31.1986H18.9168C18.8105 31.1986 18.7054 31.1856 18.599 31.1602C18.4926 31.1354 18.4395 31.097 18.4395 31.0462V29.7308Z" fill="black"/>
<path d="M26.922 29.7316C26.922 29.6898 26.9752 29.6537 27.0815 29.6243C27.1879 29.595 27.293 29.5803 27.3994 29.5803H28.3823C28.6138 29.5803 28.7652 29.5617 28.8378 29.5228C28.9091 29.485 28.9466 29.3653 28.9466 29.1622V21.8374C28.9466 21.7618 28.9742 21.6986 29.033 21.6478C29.0912 21.5976 29.1581 21.5716 29.2351 21.5716H30.5502C30.6278 21.5716 30.6922 21.5976 30.746 21.6478C30.7986 21.6986 30.8255 21.7618 30.8255 21.8374V29.1876C30.8255 29.4144 30.8205 29.6672 30.8117 29.9404C30.8011 30.214 30.7823 30.4646 30.7529 30.692C30.7329 30.7772 30.7022 30.8495 30.6597 30.9082C30.6165 30.9668 30.5364 31.0182 30.4207 31.06C30.3149 31.0859 30.1685 31.1068 29.9808 31.1232C29.7919 31.1401 29.5879 31.1553 29.3664 31.1672C29.145 31.1801 28.9153 31.1886 28.6801 31.1926C28.4436 31.1976 28.229 31.1999 28.0369 31.1999H27.4006C27.2943 31.1999 27.1892 31.1869 27.0828 31.1615C26.9764 31.1367 26.9233 31.0983 26.9233 31.0475V29.7316H26.922Z" fill="black"/>
<path d="M33.0488 21.8241C33.0488 21.7564 33.0757 21.6971 33.1283 21.6469C33.1821 21.5967 33.2509 21.5713 33.3379 21.5713H34.6386C34.725 21.5713 34.795 21.5967 34.8482 21.6469C34.9008 21.6977 34.9271 21.7564 34.9271 21.8241V30.9326C34.9271 31.0004 34.9008 31.0613 34.8482 31.1161C34.795 31.1714 34.725 31.1984 34.6386 31.1984H33.3379C33.2509 31.1984 33.1821 31.1714 33.1283 31.1161C33.0757 31.0607 33.0488 31.0004 33.0488 30.9326V21.8241Z" fill="black"/>
<path d="M40.3776 29.8073C40.3776 29.7401 40.4064 29.6854 40.4639 29.6436C40.5227 29.6013 40.589 29.5804 40.6673 29.5804H44.4381L44.4093 28.4287C44.3906 28.1177 44.3349 27.8412 44.2429 27.6008C44.1509 27.3593 44.007 27.155 43.8093 26.9863C43.6122 26.8181 43.3563 26.69 43.0435 26.6014C42.7301 26.5117 42.3478 26.4677 41.8942 26.4677H41.7215H41.4756C41.3886 26.4677 41.3029 26.4694 41.216 26.4744C41.1284 26.4795 41.0564 26.4857 40.9982 26.4931C40.8155 26.4931 40.7242 26.4316 40.7242 26.3051V25.3769C40.7242 25.3103 40.7455 25.2527 40.7893 25.207C40.8331 25.1613 40.9075 25.1297 41.0126 25.1133C41.2829 25.0721 41.5526 25.0467 41.8216 25.0377C42.0925 25.0298 42.2946 25.0259 42.4291 25.0259C43.1424 25.0259 43.738 25.119 44.2141 25.3035C44.6915 25.4886 45.0713 25.7369 45.3559 26.0478C45.6406 26.3599 45.8471 26.7194 45.9772 27.1274C46.108 27.5359 46.1824 27.962 46.2012 28.4089C46.2012 28.4761 46.2031 28.5726 46.2087 28.6984C46.2131 28.8254 46.2187 28.9648 46.2225 29.116C46.2281 29.2672 46.2294 29.4168 46.2294 29.564V29.9235C46.2294 30.0415 46.2281 30.2057 46.2225 30.4162C46.2181 30.6261 46.2056 30.8067 46.1862 30.9585C46.1862 31.0267 46.1599 31.0832 46.1074 31.13C46.0535 31.1752 45.9747 31.1989 45.8684 31.1989H40.6666C40.5884 31.1989 40.5221 31.178 40.4633 31.1362C40.4057 31.0939 40.377 31.0386 40.377 30.9709L40.3776 29.8073Z" fill="black"/>
<path d="M48.3672 21.8243C48.3672 21.7565 48.3935 21.6973 48.4473 21.6471C48.4998 21.5968 48.5699 21.5714 48.6562 21.5714H49.957C50.0433 21.5714 50.114 21.5968 50.1672 21.6471C50.2191 21.6979 50.2454 21.7565 50.2454 21.8243V30.9328C50.2454 31.0005 50.2191 31.0615 50.1672 31.1162C50.114 31.1715 50.0433 31.1986 49.957 31.1986H48.6562C48.5699 31.1986 48.4998 31.1715 48.4473 31.1162C48.3935 31.0609 48.3672 31.0005 48.3672 30.9328V21.8243Z" fill="black"/>
<path d="M52.082 29.8073C52.082 29.7402 52.1108 29.6855 52.1684 29.6437C52.2266 29.6014 52.2941 29.5805 52.3711 29.5805H56.1419L56.1131 28.4287C56.0944 28.1178 56.0381 27.8413 55.9467 27.6009C55.8554 27.3594 55.7134 27.1551 55.5207 26.9863C55.3273 26.8182 55.0752 26.6901 54.7623 26.6015C54.4489 26.5118 54.0704 26.4677 53.628 26.4677H53.4541H53.2013C53.1094 26.4677 53.018 26.4694 52.9267 26.4745C52.8347 26.4796 52.7609 26.4858 52.7033 26.4931C52.52 26.4931 52.4293 26.4316 52.4293 26.3052V25.3769C52.4293 25.3103 52.4499 25.2505 52.4937 25.2014C52.5375 25.1506 52.612 25.1207 52.7177 25.1134C52.988 25.0722 53.2564 25.0468 53.5267 25.0378C53.797 25.0299 53.999 25.0259 54.1342 25.0259C54.8374 25.0259 55.4274 25.1173 55.9048 25.3024C56.3822 25.4881 56.7645 25.737 57.0535 26.0468C57.3419 26.3583 57.5522 26.7177 57.6817 27.1263C57.8131 27.5343 57.8869 27.9609 57.9057 28.4067L57.9201 29.5799H58.831V31.1989H52.3711C52.2941 31.1989 52.2266 31.1781 52.1684 31.1363C52.1108 31.094 52.082 31.0387 52.082 30.971V29.8073Z" fill="black"/>
<path d="M58.2539 29.7316C58.2539 29.6899 58.3071 29.6538 58.4134 29.6244C58.5198 29.5951 58.6249 29.5804 58.7313 29.5804H60.2917C60.1278 29.4117 59.9957 29.178 59.895 28.8784C59.793 28.5787 59.7436 28.2435 59.7436 27.8733V27.7334C59.7436 27.2447 59.8387 26.8282 60.032 26.4868C60.2247 26.146 60.4869 25.865 60.8191 25.646C61.1513 25.4271 61.5367 25.2657 61.9759 25.1647C62.4139 25.0636 62.8788 25.0134 63.3705 25.0134C63.7178 25.0134 64.0187 25.0241 64.2734 25.045C64.5286 25.0665 64.8152 25.102 65.1336 25.1517C65.2388 25.1692 65.322 25.1917 65.3795 25.2222C65.4377 25.2516 65.4665 25.308 65.4665 25.3926V26.3164C65.4665 26.4846 65.3651 26.5613 65.1631 26.5438C65.0091 26.5354 64.8715 26.5275 64.752 26.5184C64.6306 26.5094 64.5142 26.5043 64.4041 26.5004C64.294 26.4947 64.1789 26.4908 64.0569 26.4868C63.9374 26.4829 63.7985 26.4812 63.6458 26.4812C62.9808 26.4812 62.4677 26.5935 62.1061 26.8158C61.7457 27.0399 61.5649 27.4174 61.5649 27.949V28.0878C61.5649 28.4416 61.6519 28.7599 61.8252 29.0426C61.9985 29.3248 62.1962 29.5042 62.417 29.5804H65.4377C65.5147 29.5804 65.5816 29.6018 65.6404 29.643C65.6974 29.6859 65.7268 29.7401 65.7268 29.8078V30.9844C65.7268 31.0521 65.6974 31.104 65.6404 31.1418C65.5816 31.1802 65.5147 31.2 65.4377 31.2H58.7319C58.6255 31.2 58.5204 31.187 58.4141 31.1616C58.3077 31.1368 58.2545 31.0984 58.2545 31.0476L58.2539 29.7316Z" fill="black"/>
<path d="M69.1202 22.634C69.1202 22.4738 69.2153 22.3936 69.4087 22.3936H70.6662C70.8489 22.3936 70.9403 22.4738 70.9403 22.634V28.3646C70.9403 28.4402 70.914 28.504 70.8614 28.5542C70.807 28.6045 70.7432 28.6299 70.6656 28.6299H69.3936C69.3167 28.6299 69.251 28.6045 69.1978 28.5542C69.1459 28.504 69.1196 28.4402 69.1196 28.3646L69.1202 22.634ZM68.8162 34.3988C68.6629 34.3988 68.5853 34.3475 68.5853 34.2464V33.8796C68.5853 33.7956 68.6629 33.7532 68.8162 33.7532H69.0908C69.0132 33.6517 68.9557 33.5382 68.9169 33.4113C68.8787 33.2854 68.8593 33.1585 68.8593 33.0326C68.8593 32.3244 69.3411 31.9694 70.3052 31.9694C70.3816 31.9694 70.486 31.9734 70.6162 31.9813C70.7457 31.9903 70.8689 32.0112 70.9847 32.0451C71.0898 32.062 71.143 32.1043 71.143 32.1715V32.5134C71.143 32.5975 71.0804 32.6399 70.9553 32.6399H70.4485C70.1989 32.6399 70.0156 32.6782 69.8998 32.7538C69.7841 32.8295 69.7265 32.9604 69.7265 33.1455C69.7265 33.2894 69.7559 33.4135 69.8141 33.519C69.8717 33.6246 69.9436 33.6979 70.0306 33.7408H71.0423C71.1962 33.7408 71.2731 33.7826 71.2731 33.8667V34.2464C71.2731 34.3475 71.1962 34.3988 71.0423 34.3988H68.8162ZM67.4141 29.8064C67.4141 29.7393 67.441 29.6846 67.4942 29.6428C67.5473 29.6005 67.6124 29.5796 67.6894 29.5796H73.0218C73.2533 29.5796 73.4047 29.5604 73.4779 29.522C73.5486 29.4848 73.5856 29.364 73.5856 29.1609V21.8243C73.5856 21.7565 73.6143 21.6973 73.6719 21.6471C73.7301 21.5968 73.797 21.5714 73.874 21.5714H75.1898C75.2667 21.5714 75.3324 21.5968 75.3856 21.6471C75.4388 21.6979 75.465 21.7565 75.465 21.8243V29.1874C75.465 29.5074 75.4569 29.7839 75.4425 30.0158C75.4287 30.2477 75.4119 30.4735 75.3931 30.6918C75.3731 30.7765 75.3443 30.8487 75.3055 30.9074C75.2667 30.9667 75.1897 31.0169 75.074 31.0598C74.9683 31.0852 74.815 31.1055 74.6123 31.1224C74.4096 31.1388 74.1899 31.1546 73.9547 31.1664C73.7188 31.1794 73.4723 31.1879 73.217 31.1924C72.9624 31.1969 72.7334 31.1986 72.5307 31.1986H67.6894C67.613 31.1986 67.5473 31.1777 67.4942 31.136C67.441 31.0936 67.4141 31.0383 67.4141 30.9706V29.8064Z" fill="black"/>
<path d="M80.8242 29.8073C80.8242 29.7401 80.853 29.6854 80.9112 29.6436C80.9688 29.6013 81.0357 29.5804 81.1139 29.5804H84.8847L84.856 28.4287C84.8372 28.1177 84.7809 27.8412 84.6895 27.6008C84.5982 27.3593 84.4562 27.155 84.2635 26.9863C84.0701 26.8181 83.8174 26.69 83.5052 26.6014C83.1905 26.5117 82.8132 26.4677 82.3708 26.4677H82.1975H81.9442C81.8528 26.4677 81.7615 26.4694 81.6695 26.4745C81.5781 26.4795 81.5031 26.4857 81.4468 26.4931C81.2634 26.4931 81.1721 26.4316 81.1721 26.3052V25.3769C81.1721 25.3103 81.1934 25.2505 81.2372 25.2014C81.281 25.1506 81.3554 25.1207 81.4611 25.1133C81.7302 25.0721 81.9998 25.0468 82.2701 25.0377C82.5404 25.0298 82.7425 25.0259 82.877 25.0259C83.5809 25.0259 84.1702 25.1173 84.6476 25.3024C85.1256 25.488 85.5073 25.7369 85.797 26.0467C86.0854 26.3582 86.2956 26.7177 86.4251 27.1262C86.5565 27.5342 86.6303 27.9609 86.6491 28.4067L86.6635 29.5799H87.5744V31.1989H81.1145C81.0363 31.1989 80.9694 31.178 80.9118 31.1362C80.8536 31.0939 80.8248 31.0386 80.8248 30.9709V29.8073H80.8242Z" fill="black"/>
<path d="M93.6744 23.291C93.6744 23.2075 93.71 23.1398 93.782 23.0896C93.8533 23.0382 93.9334 23.0128 94.0197 23.0128H95.0321C95.1272 23.0128 95.2072 23.0382 95.2698 23.0896C95.333 23.1403 95.3643 23.2075 95.3643 23.291V24.2148C95.3643 24.2825 95.3324 24.344 95.2698 24.3982C95.2072 24.4535 95.1272 24.4806 95.0321 24.4806H94.0197C93.9334 24.4806 93.8533 24.4529 93.782 24.3982C93.71 24.344 93.6744 24.2825 93.6744 24.2148V23.291ZM92.4012 21.4948C92.4012 21.4186 92.4374 21.3526 92.51 21.2984C92.582 21.2431 92.6564 21.216 92.7334 21.216H93.6869C93.7832 21.216 93.8646 21.2437 93.9328 21.2984C94.0003 21.3526 94.0341 21.4186 94.0341 21.4948V22.2662C94.0341 22.3418 93.9972 22.4056 93.9253 22.4558C93.8527 22.5072 93.7688 22.5326 93.6737 22.5326H92.719C92.6427 22.5326 92.5701 22.5072 92.5025 22.4558C92.4356 22.4056 92.4012 22.3418 92.4012 22.2662V21.4948ZM90.9997 23.291C90.9997 23.2075 91.0328 23.1398 91.1004 23.0896C91.168 23.0382 91.25 23.0128 91.3469 23.0128H92.3442C92.4399 23.0128 92.5244 23.0382 92.597 23.0896C92.6689 23.1403 92.7052 23.2075 92.7052 23.291V24.2148C92.7052 24.2825 92.6658 24.344 92.5895 24.3982C92.5113 24.4535 92.4306 24.4806 92.3436 24.4806H91.3463C91.2499 24.4806 91.168 24.4529 91.0998 24.3982C91.0322 24.344 90.9991 24.2825 90.9991 24.2148L90.9997 23.291ZM86.9967 29.7304C86.9967 29.6886 87.0499 29.6525 87.1556 29.6232C87.262 29.5938 87.3677 29.5791 87.4741 29.5791H87.9358C88.1198 29.5791 88.3 29.5554 88.4777 29.5103C88.6566 29.4635 88.7461 29.3427 88.7461 29.1491V26.5804C88.7461 26.5048 88.7742 26.4416 88.8324 26.3902C88.89 26.3394 88.9569 26.3146 89.0345 26.3146H90.2627C90.3396 26.3146 90.4053 26.3394 90.4585 26.3902C90.5117 26.4416 90.538 26.5048 90.538 26.5804V29.4014C90.5667 29.4522 90.6199 29.4922 90.6975 29.5216C90.7738 29.5515 90.8564 29.5746 90.9428 29.5916C91.0303 29.6079 91.1179 29.6192 91.2112 29.6232C91.3019 29.6277 91.3807 29.6294 91.4489 29.6294H91.666C91.7524 29.6294 91.8412 29.626 91.9332 29.6169C92.0245 29.6085 92.109 29.5893 92.1866 29.5605C92.2629 29.5295 92.3255 29.4883 92.3736 29.433C92.4218 29.3788 92.4462 29.3043 92.4462 29.2118V26.125C92.4462 26.0578 92.475 25.9997 92.5332 25.9546C92.5914 25.9077 92.6583 25.884 92.7353 25.884H93.949C94.026 25.884 94.0929 25.9077 94.1511 25.9546C94.2087 25.9997 94.2381 26.0578 94.2381 26.125V29.4014C94.2963 29.503 94.4258 29.5662 94.6285 29.5916C94.8306 29.6164 95.0283 29.6288 95.221 29.6288H95.552C95.7835 29.6288 95.938 29.613 96.015 29.5786C96.0919 29.5447 96.1307 29.4256 96.1307 29.2242V28.4336V27.529C96.1307 27.2181 96.1288 26.9015 96.1232 26.5804C96.1195 26.261 96.1113 25.9478 96.1019 25.6442C96.1019 25.5855 96.1263 25.5308 96.1739 25.48C96.2214 25.4292 96.2903 25.4044 96.3766 25.4044H97.6048C97.7111 25.4044 97.7875 25.4275 97.8356 25.4738C97.8844 25.5206 97.9082 25.577 97.9082 25.6442C97.9176 25.9224 97.9238 26.1842 97.9295 26.4292C97.9351 26.6741 97.9395 26.9054 97.9439 27.1244C97.9489 27.3445 97.9514 27.5606 97.9514 27.7756V28.4398V29.1491C97.9514 29.385 97.9489 29.6384 97.9439 29.9081C97.9389 30.1784 97.922 30.4312 97.8932 30.6666C97.8732 30.7433 97.845 30.8127 97.8062 30.8754C97.7681 30.9386 97.6899 30.991 97.5754 31.0339C97.3726 31.0847 97.1274 31.1208 96.8377 31.1406C96.5487 31.1626 96.2358 31.1722 95.8986 31.1722H95.7109C95.373 31.1722 95.007 31.1496 94.6122 31.1028C94.2174 31.0571 93.8796 30.9459 93.6012 30.7681C93.3791 30.9278 93.1113 31.0396 92.7991 31.1028C92.4863 31.166 92.1603 31.1987 91.8231 31.1987H91.6347C91.2787 31.1987 90.9459 31.1682 90.6374 31.1101C90.329 31.0514 90.0456 30.9363 89.7853 30.7687C89.5356 30.9369 89.2341 31.0514 88.8825 31.1101C88.5302 31.1688 88.1905 31.1987 87.8639 31.1987H87.4735C87.3671 31.1987 87.2614 31.1857 87.155 31.1603C87.0493 31.1355 86.9961 31.0971 86.9961 31.0463V29.7304H86.9967Z" fill="black"/>
<path d="M100.176 21.8242C100.176 21.7565 100.203 21.6972 100.256 21.647C100.309 21.5968 100.378 21.5714 100.465 21.5714H101.766C101.852 21.5714 101.923 21.5968 101.976 21.647C102.028 21.6978 102.054 21.7565 102.054 21.8242V30.9328C102.054 31.0005 102.028 31.0614 101.976 31.1162C101.923 31.1715 101.852 31.1985 101.766 31.1985H100.465C100.378 31.1985 100.309 31.1715 100.256 31.1162C100.203 31.0609 100.176 31.0005 100.176 30.9328V21.8242Z" fill="black"/>
<path d="M103.022 33.0074C103.022 32.872 103.114 32.8048 103.297 32.8048H103.585C103.788 32.8048 103.966 32.7941 104.12 32.7732C104.274 32.7518 104.402 32.7038 104.503 32.6282C104.604 32.5515 104.681 32.4403 104.734 32.2925C104.787 32.1446 104.813 31.9398 104.813 31.6785V25.9981C104.813 25.931 104.842 25.8734 104.9 25.8277C104.958 25.7814 105.025 25.7583 105.103 25.7583H106.361C106.438 25.7583 106.503 25.7814 106.555 25.8277C106.608 25.8734 106.635 25.931 106.635 25.9981V31.4889C106.635 31.8088 106.618 32.1192 106.584 32.4177C106.55 32.7174 106.457 32.9939 106.303 33.2473C106.1 33.6101 105.812 33.8607 105.436 34.0001C105.059 34.1394 104.598 34.2089 104.048 34.2089C103.981 34.2089 103.86 34.206 103.687 34.2021C103.514 34.1976 103.374 34.1868 103.267 34.1705C103.104 34.1451 103.021 34.065 103.021 33.9301V33.0074H103.022Z" fill="black"/>
<path d="M114.93 23.7349C114.93 23.6508 114.965 23.5809 115.032 23.5267C115.098 23.4714 115.18 23.4443 115.277 23.4443H116.419C116.506 23.4443 116.58 23.4719 116.642 23.5267C116.706 23.5809 116.737 23.6508 116.737 23.7349V24.7213C116.737 24.7969 116.706 24.863 116.642 24.9177C116.58 24.9724 116.5 25.0001 116.405 25.0001H115.277C115.171 25.0001 115.086 24.9724 115.024 24.9177C114.961 24.863 114.93 24.7969 114.93 24.7213V23.7349ZM113.558 27.4283C113.74 27.4283 113.822 27.509 113.804 27.6699C113.784 27.8549 113.769 28.0536 113.761 28.2641C113.751 28.4751 113.747 28.6388 113.747 28.7573C113.747 29.2302 113.783 29.6562 113.854 30.0354C113.927 30.4158 114.072 30.738 114.289 31.0032C114.505 31.2696 114.814 31.4733 115.213 31.6166C115.614 31.76 116.136 31.8322 116.782 31.8322C116.965 31.8322 117.135 31.8277 117.294 31.8198C117.453 31.8108 117.643 31.7944 117.865 31.769C117.875 31.3554 117.879 30.9925 117.879 30.681V29.694V26.0006C117.879 25.9329 117.908 25.8759 117.966 25.8296C118.024 25.7828 118.091 25.7597 118.169 25.7597H119.425C119.513 25.7597 119.58 25.7828 119.628 25.8296C119.676 25.8759 119.701 25.9329 119.701 26.0006V29.5812H120.986V31.1991H119.701V32.0912C119.701 32.4084 119.69 32.6838 119.672 32.9202C119.672 33.0641 119.57 33.1561 119.368 33.199C118.954 33.2921 118.527 33.3542 118.089 33.388C117.65 33.4219 117.205 33.4388 116.752 33.4388C115.123 33.4388 113.922 33.1228 113.146 32.4902C112.37 31.8576 111.982 30.8537 111.982 29.479C111.982 29.3944 111.988 29.2764 111.997 29.1252C112.006 28.9723 112.019 28.8098 112.033 28.6382C112.048 28.4655 112.067 28.2951 112.091 28.1253C112.116 27.9571 112.142 27.8087 112.171 27.6828C112.19 27.5903 112.218 27.5248 112.257 27.487C112.296 27.4492 112.368 27.4289 112.475 27.4289L113.558 27.4283Z" fill="black"/>
<path d="M121.304 32.5912C121.304 32.5059 121.338 32.4371 121.405 32.3824C121.472 32.3271 121.549 32.3 121.636 32.3H122.749C122.845 32.3 122.93 32.3276 123.002 32.3824C123.074 32.4371 123.11 32.5059 123.11 32.5912V33.603C123.11 33.6696 123.074 33.7316 123.002 33.7864C122.93 33.8405 122.845 33.8688 122.749 33.8688H121.636C121.549 33.8688 121.472 33.8405 121.405 33.7864C121.338 33.7311 121.304 33.6696 121.304 33.603V32.5912ZM120.408 29.7318C120.408 29.69 120.461 29.6539 120.567 29.6246C120.673 29.5952 120.779 29.5806 120.885 29.5806H121.795C122.026 29.5806 122.181 29.5619 122.258 29.523C122.335 29.4852 122.373 29.3656 122.373 29.1624V27.6568C122.373 27.1337 122.364 26.5688 122.345 25.9605C122.345 25.8945 122.372 25.8369 122.424 25.7906C122.477 25.7444 122.547 25.7207 122.634 25.7207H123.847C123.953 25.7207 124.03 25.7444 124.079 25.7906C124.126 25.8369 124.156 25.8945 124.165 25.9605C124.175 26.2314 124.183 26.4689 124.187 26.6772C124.192 26.8831 124.194 27.079 124.194 27.2646V27.821V28.4412C124.194 28.9818 124.192 29.4344 124.187 29.8012C124.183 30.1674 124.165 30.4648 124.136 30.6923C124.117 30.7775 124.086 30.8497 124.043 30.9084C123.999 30.9671 123.919 31.0184 123.804 31.0602C123.699 31.0861 123.557 31.107 123.378 31.1234C123.199 31.1403 123.002 31.1555 122.785 31.1674C122.568 31.1804 122.345 31.1888 122.114 31.1928C121.882 31.1979 121.67 31.2001 121.477 31.2001H120.885C120.779 31.2001 120.673 31.1872 120.567 31.1618C120.461 31.1369 120.408 31.0986 120.408 31.0478V29.7318Z" fill="black"/>
<path d="M129.555 29.8073C129.555 29.7401 129.583 29.6854 129.642 29.6436C129.699 29.6013 129.766 29.5804 129.844 29.5804H133.615L133.586 28.4287C133.567 28.1177 133.511 27.8412 133.42 27.6008C133.329 27.3593 133.187 27.155 132.993 26.9863C132.801 26.8181 132.547 26.69 132.235 26.6014C131.921 26.5117 131.544 26.4677 131.101 26.4677H130.927H130.675C130.583 26.4677 130.491 26.4694 130.4 26.4745C130.309 26.4795 130.234 26.4857 130.177 26.4931C129.993 26.4931 129.903 26.4316 129.903 26.3052V25.3769C129.903 25.3103 129.924 25.2505 129.968 25.2014C130.011 25.1506 130.087 25.1207 130.192 25.1133C130.461 25.0721 130.73 25.0468 131.001 25.0377C131.271 25.0298 131.474 25.0259 131.607 25.0259C132.311 25.0259 132.901 25.1173 133.379 25.3024C133.855 25.488 134.238 25.7369 134.527 26.0467C134.816 26.3582 135.026 26.7177 135.156 27.1262C135.286 27.5342 135.361 27.9609 135.38 28.4067L135.395 29.5799H136.304V31.1989H129.844C129.767 31.1989 129.7 31.178 129.642 31.1362C129.584 31.0939 129.555 31.0386 129.555 30.9709V29.8073H129.555Z" fill="black"/>
<path d="M139.325 28.0286V28.5709C139.325 28.7718 139.339 28.9614 139.368 29.138C139.445 29.4411 139.599 29.6566 139.83 29.787C140.062 29.9173 140.36 29.9822 140.726 29.9822C141.209 29.9822 141.56 29.8711 141.782 29.6482C142.003 29.4253 142.114 29.0664 142.114 28.5709V28.0286C142.114 27.5168 142.006 27.1443 141.789 26.9135C141.571 26.6821 141.218 26.5665 140.726 26.5665C140.236 26.5665 139.878 26.6821 139.658 26.9135C139.436 27.1443 139.325 27.5168 139.325 28.0286ZM135.727 29.7294C135.727 29.6877 135.78 29.6516 135.886 29.6222C135.992 29.5929 136.098 29.5782 136.204 29.5782H136.636C136.704 29.5782 136.783 29.5759 136.876 29.5714C136.967 29.5675 137.054 29.5573 137.136 29.5398C137.218 29.5235 137.287 29.493 137.345 29.4512C137.403 29.4095 137.441 29.3542 137.461 29.287C137.49 29.2108 137.504 29.1104 137.504 28.9834V27.9208C137.504 26.992 137.799 26.2905 138.386 25.8142C138.973 25.3374 139.763 25.0993 140.756 25.0993C141.738 25.0993 142.514 25.3334 143.082 25.8013C143.651 26.2696 143.935 26.9722 143.935 27.9073V28.6538V28.9129C143.935 29.0009 143.925 29.0889 143.906 29.1724C143.925 29.2565 143.971 29.3243 144.043 29.3745C144.116 29.4247 144.195 29.4653 144.282 29.4952C144.369 29.5246 144.46 29.5455 144.556 29.5584C144.653 29.5703 144.729 29.5771 144.788 29.5771H145.12V31.1966H144.831C144.503 31.1966 144.18 31.1622 143.862 31.0945C143.544 31.0273 143.26 30.9173 143.01 30.7661C142.76 31.0098 142.439 31.1916 142.049 31.3101C141.659 31.428 141.218 31.4867 140.726 31.4867C140.236 31.4867 139.761 31.428 139.303 31.3101C138.845 31.1916 138.502 31.0098 138.27 30.7661C138.077 30.9342 137.827 31.0488 137.518 31.1075C137.21 31.1662 136.897 31.1961 136.579 31.1961H136.204C136.098 31.1961 135.992 31.1831 135.886 31.1577C135.78 31.1329 135.727 31.0945 135.727 31.0437V29.7294Z" fill="black"/>
<path d="M145.018 31.1967C144.903 31.1967 144.794 31.1804 144.692 31.1459C144.592 31.1126 144.541 31.0788 144.541 31.0444V29.729C144.541 29.6872 144.594 29.6511 144.7 29.6212C144.806 29.5924 144.912 29.5777 145.018 29.5777H151.16L150.769 28.7928L150.48 28.2623C150.201 27.7228 149.797 27.299 149.267 26.9898C148.736 26.6828 148.015 26.5293 147.099 26.5293C147.032 26.5293 146.91 26.5316 146.737 26.5349C146.564 26.54 146.425 26.5468 146.319 26.5547C146.116 26.5716 146.015 26.5033 146.015 26.3521V25.4159C146.015 25.2889 146.111 25.2094 146.304 25.1755C146.545 25.1332 146.779 25.1039 147.005 25.0869C147.232 25.0706 147.469 25.0615 147.721 25.0615C148.251 25.0615 148.742 25.1101 149.195 25.2077C149.648 25.3042 150.072 25.4695 150.467 25.7015C150.861 25.9328 151.227 26.2409 151.565 26.6247C151.901 27.009 152.215 27.4864 152.504 28.0608L152.692 28.4147C152.721 28.4818 152.759 28.5648 152.808 28.6618C152.856 28.7583 152.904 28.856 152.952 28.9525C153 29.0501 153.044 29.1404 153.082 29.2245C153.121 29.308 153.155 29.3684 153.183 29.4017C153.231 29.4688 153.28 29.5156 153.327 29.5405C153.375 29.5659 153.439 29.5783 153.515 29.5783H153.659V31.1973L145.018 31.1967Z" fill="black"/>
<path d="M156.681 28.5072C156.681 28.7013 156.695 28.8859 156.723 29.0619C156.8 29.3734 156.955 29.5856 157.186 29.699C157.417 29.8119 157.715 29.8689 158.082 29.8689C158.573 29.8689 158.925 29.7639 159.137 29.5529C159.349 29.3429 159.455 28.9739 159.455 28.4446V27.9784C159.455 27.4734 159.349 27.106 159.137 26.8746C158.925 26.6444 158.573 26.5287 158.082 26.5287C157.591 26.5287 157.235 26.6472 157.012 26.882C156.791 27.1167 156.681 27.4824 156.681 27.9784V28.5072ZM153.082 29.7295C153.082 29.6877 153.135 29.6516 153.241 29.6223C153.347 29.5929 153.453 29.5783 153.559 29.5783H153.992C154.059 29.5783 154.137 29.5738 154.223 29.5659C154.31 29.5574 154.394 29.5405 154.476 29.5156C154.558 29.4902 154.63 29.4541 154.694 29.4078C154.756 29.3621 154.796 29.3001 154.816 29.2244C154.845 29.1404 154.86 29.0433 154.86 28.9333V27.8712C154.86 26.9508 155.154 26.2533 155.741 25.7771C156.328 25.3002 157.118 25.0615 158.11 25.0615C159.093 25.0615 159.867 25.2934 160.43 25.7579C160.993 26.2206 161.276 26.9164 161.276 27.8453V28.5913C161.276 29.5348 160.998 30.2357 160.445 30.69C159.89 31.1459 159.103 31.3739 158.082 31.3739C157.591 31.3739 157.116 31.322 156.659 31.2159C156.202 31.1104 155.857 30.9354 155.626 30.69C155.433 30.8846 155.18 31.0173 154.868 31.0889C154.554 31.1617 154.195 31.1973 153.79 31.1973H153.559C153.453 31.1973 153.347 31.1843 153.241 31.1589C153.135 31.1341 153.082 31.0957 153.082 31.0449V29.7295Z" fill="black"/>
<path d="M167.189 23.0877C167.189 23.0041 167.222 22.9347 167.29 22.8794C167.356 22.8253 167.439 22.7976 167.535 22.7976H168.677C168.765 22.7976 168.839 22.8253 168.901 22.8794C168.964 22.9347 168.994 23.0041 168.994 23.0877V24.0746C168.994 24.1514 168.963 24.2163 168.901 24.271C168.838 24.3263 168.758 24.3534 168.662 24.3534H167.535C167.429 24.3534 167.345 24.3263 167.282 24.271C167.219 24.2163 167.189 24.1514 167.189 24.0746V23.0877ZM165.15 32.9942C165.15 32.8672 165.232 32.804 165.397 32.804H165.7C165.969 32.804 166.199 32.7938 166.386 32.7724C166.576 32.7509 166.726 32.703 166.842 32.6273C166.958 32.5506 167.042 32.4383 167.094 32.2916C167.149 32.1437 167.175 31.9389 167.175 31.6787V25.9989C167.175 25.9312 167.201 25.8742 167.253 25.828C167.306 25.7811 167.377 25.758 167.463 25.758H168.72C168.798 25.758 168.863 25.7811 168.916 25.828C168.969 25.8742 168.996 25.9312 168.996 25.9989V29.5795H170.282V31.1974H168.953V31.7927C168.953 32.08 168.932 32.3452 168.887 32.5901C168.845 32.835 168.77 33.0455 168.664 33.2216C168.443 33.585 168.139 33.8395 167.754 33.9868C167.368 34.1346 166.872 34.2091 166.266 34.2091C166.188 34.2091 166.048 34.2063 165.846 34.2023C165.645 34.1984 165.48 34.1871 165.354 34.1707C165.22 34.1453 165.152 34.0646 165.152 33.9303V32.9942H165.15Z" fill="black"/>
<path d="M169.701 29.8069C169.701 29.7398 169.751 29.685 169.846 29.6433C169.942 29.601 170.053 29.5801 170.179 29.5801H175.641H176.01H176.587C176.794 29.5801 176.989 29.5778 177.173 29.5733C177.356 29.5694 177.486 29.5626 177.563 29.5547C177.573 29.4108 177.579 29.2612 177.584 29.1049C177.589 28.9497 177.593 28.8047 177.593 28.6693C177.593 28.2985 177.527 27.9882 177.397 27.7399C177.267 27.491 177.078 27.2901 176.834 27.1394C176.587 26.9865 176.289 26.8776 175.936 26.8093C175.585 26.7427 175.184 26.7083 174.73 26.7083H171.652C171.44 26.7083 171.329 26.6411 171.319 26.5063C171.319 26.4899 171.317 26.46 171.312 26.4182C171.307 26.3754 171.303 26.3319 171.298 26.2851C171.293 26.2388 171.29 26.1948 171.29 26.1525V26.0768C171.29 25.8658 171.31 25.6638 171.349 25.4696C171.387 25.2761 171.447 25.0814 171.529 24.8873C171.611 24.6931 171.71 24.4917 171.826 24.2806C171.942 24.0696 172.076 23.8433 172.23 23.5973L173.314 21.8264C173.361 21.7587 173.417 21.6995 173.48 21.6492C173.543 21.599 173.622 21.5736 173.719 21.5736H175.019C175.096 21.5736 175.15 21.5877 175.178 21.6182C175.208 21.647 175.221 21.6825 175.221 21.7243C175.221 21.7678 175.208 21.8129 175.178 21.8637L173.82 24.1283C173.762 24.2214 173.704 24.3224 173.647 24.433C173.588 24.5419 173.536 24.6469 173.488 24.7484C173.439 24.85 173.399 24.9454 173.365 25.0334C173.331 25.1215 173.315 25.1835 173.315 25.2163C173.729 25.2005 174.058 25.1869 174.304 25.179C174.55 25.1711 174.774 25.166 174.976 25.166C175.795 25.166 176.489 25.2467 177.058 25.4076C177.625 25.5673 178.088 25.8037 178.445 26.1152C178.8 26.4273 179.06 26.8178 179.225 27.2856C179.389 27.7534 179.471 28.2918 179.471 28.8978V29.2155C179.471 29.3075 179.468 29.43 179.463 29.5818C179.458 29.7336 179.451 29.8916 179.443 30.0558C179.432 30.2206 179.421 30.3786 179.406 30.5304C179.392 30.6833 179.379 30.8046 179.369 30.8966C179.34 31.049 179.225 31.1291 179.022 31.1381C178.858 31.1545 178.651 31.1658 178.4 31.1692C178.15 31.1743 177.876 31.1805 177.577 31.1884C177.277 31.1974 176.978 31.2008 176.674 31.2008H175.828H170.179C170.053 31.2008 169.942 31.1799 169.846 31.1381C169.751 31.0958 169.701 31.0405 169.701 30.9728V29.8069Z" fill="black"/>
<path d="M179.861 32.9945C179.861 32.8675 179.943 32.8043 180.107 32.8043H180.41C180.68 32.8043 180.909 32.7942 181.096 32.7727C181.285 32.7513 181.436 32.7033 181.552 32.6277C181.668 32.5509 181.752 32.4386 181.805 32.2919C181.858 32.1441 181.885 31.9392 181.885 31.6791V25.9993C181.885 25.9316 181.911 25.8746 181.964 25.8283C182.017 25.7815 182.087 25.7583 182.174 25.7583H183.43C183.508 25.7583 183.573 25.7815 183.626 25.8283C183.679 25.8746 183.706 25.9316 183.706 25.9993V29.5798H184.992V31.1977H183.663V31.7931C183.663 32.0803 183.642 32.3455 183.597 32.5904C183.555 32.8354 183.48 33.0458 183.374 33.2219C183.153 33.5853 182.849 33.8398 182.463 33.9871C182.079 34.135 181.582 34.2095 180.976 34.2095C180.897 34.2095 180.759 34.2066 180.556 34.2027C180.354 34.1987 180.19 34.1874 180.065 34.1711C179.93 34.1457 179.863 34.065 179.863 33.9307V32.9945H179.861Z" fill="black"/>
<path d="M188.013 28.5072C188.013 28.7013 188.027 28.8859 188.056 29.0619C188.133 29.3734 188.288 29.5856 188.518 29.699C188.749 29.8119 189.048 29.8689 189.414 29.8689C189.905 29.8689 190.257 29.7639 190.47 29.5529C190.681 29.3429 190.788 28.9739 190.788 28.4446V27.9784C190.788 27.4734 190.681 27.106 190.47 26.8746C190.257 26.6444 189.906 26.5287 189.414 26.5287C188.923 26.5287 188.567 26.6472 188.345 26.882C188.123 27.1167 188.013 27.4824 188.013 27.9784V28.5072ZM184.414 29.7295C184.414 29.6877 184.467 29.6516 184.574 29.6223C184.68 29.5929 184.786 29.5783 184.891 29.5783H185.324C185.391 29.5783 185.47 29.5738 185.556 29.5659C185.643 29.5574 185.727 29.5405 185.809 29.5156C185.89 29.4902 185.963 29.4541 186.026 29.4078C186.088 29.3621 186.129 29.3001 186.148 29.2244C186.178 29.1404 186.192 29.0433 186.192 28.9333V27.8712C186.192 26.9508 186.485 26.2533 187.072 25.7771C187.66 25.3002 188.45 25.0615 189.443 25.0615C190.425 25.0615 191.199 25.2934 191.763 25.7579C192.325 26.2206 192.608 26.9164 192.608 27.8453V28.5913C192.608 29.5348 192.331 30.2357 191.777 30.69C191.223 31.1459 190.436 31.3739 189.414 31.3739C188.923 31.3739 188.449 31.322 187.992 31.2159C187.533 31.1104 187.189 30.9354 186.958 30.69C186.765 30.8846 186.513 31.0173 186.2 31.0889C185.886 31.1617 185.528 31.1973 185.122 31.1973H184.891C184.786 31.1973 184.68 31.1843 184.574 31.1589C184.467 31.1341 184.414 31.0957 184.414 31.0449V29.7295Z" fill="black"/>
</svg>
