<?xml version="1.0" encoding="UTF-8" standalone="no" ?>
<!DOCTYPE svg PUBLIC "-//W3C//DTD SVG 1.1//EN" "http://www.w3.org/Graphics/SVG/1.1/DTD/svg11.dtd">
<svg xmlns="http://www.w3.org/2000/svg" xmlns:xlink="http://www.w3.org/1999/xlink" version="1.1" width="500" height="500" viewBox="0 0 500 500" xml:space="preserve">
<desc>Created with Fabric.js 4.6.0</desc>
<defs>
</defs>
<g transform="matrix(0.5 0 0 0.5 223.89 250)" id="pRrCZs2n6EHeZOiez5w8l"  >
<path style="stroke: none; stroke-width: 1; stroke-dasharray: none; stroke-linecap: butt; stroke-dashoffset: 0; stroke-linejoin: miter; stroke-miterlimit: 4; fill: rgb(0,0,0); fill-opacity: 0.7; fill-rule: nonzero; opacity: 1;" vector-effect="non-scaling-stroke"  transform=" translate(-500, -500)" d="M 477.4 10 L 230.2 10 C 155.5 10 82.2 44.2 58.5 94 L 58.5 878 C 68.1 940.9 141.4 990 230.2 990 L 941.5 990 L 941.5 10 L 477.4 10 L 477.4 10 L 477.4 10 z M 449.4 66 L 449.4 446.4 L 385.2 382.2 C 379.7 376.7 372.5 374 365.4 374 C 358.2 374 351 376.7 345.59999999999997 382.2 L 281.4 446.4 L 281.4 66 L 449.4 66 L 449.4 66 L 449.4 66 z M 885.5 934 L 230.2 934 C 167.89999999999998 934 113.29999999999998 901.3 113.29999999999998 864 C 113.29999999999998 826.7 167.89999999999998 794 230.2 794 L 885.5 794 L 885.5 934 L 885.5 934 L 885.5 934 z M 230.2 738 C 185.1 738 144.1 750.8 113.29999999999998 771.4 L 113.29999999999998 127.9 C 119.69999999999999 98.30000000000001 164.09999999999997 67.80000000000001 225.29999999999998 66.2 L 225.29999999999998 514 C 225.29999999999998 525.3 232.1 535.5 242.6 539.9 C 253.1 544.1999999999999 265.1 541.8 273.1 533.8 L 365.3 441.59999999999997 L 457.5 533.8 C 462.8 539.1999999999999 470 542 477.3 542 C 480.90000000000003 542 484.5 541.3 488.1 539.9 C 498.5 535.5 505.40000000000003 525.3 505.40000000000003 514 L 505.40000000000003 66 L 885.5 66 L 885.5 738 L 230.2 738 L 230.2 738 L 230.2 738 z" stroke-linecap="round" />
</g>
</svg>